<svg width="150" height="59" viewBox="0 0 150 59" fill="none" xmlns="http://www.w3.org/2000/svg">
<mask id="mask0_224_275" style="mask-type:luminance" maskUnits="userSpaceOnUse" x="0" y="18" width="150" height="41">
<path d="M149.69 18H0V58.4424H149.69V18Z" fill="white"/>
</mask>
<g mask="url(#mask0_224_275)">
<path fill-rule="evenodd" clip-rule="evenodd" d="M14.1903 22.185C12.8742 20.9995 11.1745 20.343 9.41252 20.3398C5.35589 20.3398 2.25705 23.8575 2.25705 28.0248C2.25705 32.1404 5.33064 35.6609 9.36338 35.6609C11.1567 35.6484 12.8798 34.9537 14.1903 33.715L15.3336 35.5215C13.5604 37.164 11.2405 37.7492 9.43761 37.8065C4.27654 37.9695 0 33.5386 0 28.0995C0 22.5348 4.29843 18.1926 9.62821 18.1926C11.6481 18.1926 13.7479 18.7623 15.3345 20.4275L14.1903 22.185ZM33.7568 27.9995C33.7568 33.5886 29.5065 37.8066 24.2723 37.8066C19.0383 37.8066 14.7883 33.5884 14.7883 27.9993C14.7883 22.6101 19.0861 18.1926 24.2735 18.1926C29.4609 18.1926 33.758 22.6101 33.758 27.9993L33.7568 27.9995ZM31.498 27.9995C31.498 23.8577 28.5212 20.3886 24.2723 20.3886C20.0236 20.3886 17.0451 23.8575 17.0451 27.9993C17.0451 32.2922 20.3597 35.6107 24.2735 35.6107C28.1873 35.6107 31.4992 32.2922 31.4992 27.9993L31.498 27.9995ZM83.7542 22.7273C83.6802 21.4971 82.7079 20.3884 81.1201 20.3884C79.6801 20.3884 78.0948 21.4119 78.0948 23.0594C78.0948 24.5307 79.4873 25.3052 80.616 25.7538L81.9121 26.2778C84.482 27.3254 86.4042 28.7975 86.4042 31.9423C86.4042 35.3606 83.8579 37.8065 80.616 37.8065C77.6861 37.8065 75.2974 35.6738 75.0217 32.088L77.3035 32.0427C77.2911 32.5129 77.3729 32.9808 77.5444 33.4179C77.7158 33.8551 77.9731 34.2526 78.3008 34.5861C78.6284 34.9197 79.0195 35.1826 79.4504 35.3588C79.8814 35.535 80.3432 35.6208 80.8079 35.6111C82.7521 35.6111 84.1468 33.9151 84.1468 31.9429C84.1468 29.9219 82.5863 29.0483 81.0249 28.3745L79.7757 27.8251C77.7111 26.9014 75.8373 25.6796 75.8373 23.0601C75.8373 20.0146 78.4311 18.1933 81.1679 18.1933C83.1861 18.1933 85.4963 19.4425 85.8261 22.7365L83.7542 22.7273ZM124.73 37.4068H122.476V18.592H125.066C130.638 18.592 132.366 20.5887 132.366 24.0318C132.366 27.9993 129.463 29.5225 126.027 29.5225H124.731L124.73 37.4068ZM124.73 27.4254H125.453C127.757 27.4254 130.254 26.9756 130.254 23.9821C130.254 21.0385 127.564 20.6878 125.333 20.6878H124.73V27.4254ZM133.977 18.592H143.701V20.7377H136.233V26.003H143.484V28.1488H136.233V35.2606H143.701V37.4071H133.977V18.592ZM101.496 22.185C100.18 20.9989 98.48 20.3424 96.718 20.3398C92.6593 20.3398 89.5611 23.8581 89.5611 28.0255C89.5611 32.1411 92.6352 35.6616 96.6688 35.6616C98.4619 35.6496 100.185 34.9549 101.496 33.7157L102.641 35.5222C100.867 37.1647 98.5447 37.7499 96.7412 37.8062C91.5826 37.9692 87.305 33.5384 87.305 28.0992C87.305 22.5346 91.6042 18.1926 96.9335 18.1926C98.955 18.1926 101.053 18.7623 102.642 20.4275L101.496 22.185ZM51.1254 37.4037H53.4025L52.2782 18.6438H49.3061L46.0911 27.7173C45.2877 30.0838 44.6456 32.1438 44.1898 34.0354H44.1093C43.6555 32.0866 43.0386 30.0279 42.2883 27.7173L39.2084 18.6438H36.2347L34.9766 37.4033H37.2003L37.6821 29.3602C37.8425 26.5482 37.9767 23.4034 38.0303 21.065H38.0832C38.5934 23.2919 39.3159 25.7131 40.1729 28.358L43.0923 37.2901H44.8599L48.046 28.1913C48.9568 25.6294 49.7073 23.2641 50.3224 21.065H50.402C50.3763 23.4032 50.5361 26.548 50.6713 29.1644L51.1254 37.4037ZM71.4978 37.4037H73.7749L72.6499 18.6438H69.6778L66.4639 27.7173C65.6594 30.0838 65.0185 32.1438 64.5622 34.0354H64.4822C64.0273 32.0866 63.4108 30.0279 62.6611 27.7173L59.5805 18.6438H56.6084L55.3505 37.4033H57.5729L58.0561 29.3602C58.2165 26.5482 58.3499 23.4034 58.4038 21.065H58.4572C58.9658 23.2919 59.6894 25.7131 60.5468 28.358L63.4654 37.2901H65.2308L68.4179 28.1911C69.3286 25.6292 70.0778 23.2639 70.6937 21.0647H70.775C70.7475 23.4029 70.9092 26.5478 71.0432 29.1641L71.4978 37.4037ZM147.096 20.8282H147.335C147.389 20.8188 147.444 20.8209 147.497 20.8344C147.55 20.848 147.6 20.8726 147.642 20.9067C147.685 20.9408 147.721 20.9836 147.746 21.0324C147.771 21.0812 147.787 21.1349 147.79 21.19C147.821 21.3788 147.878 21.5619 147.964 21.7327H148.513C148.424 21.5594 148.37 21.3702 148.352 21.1758C148.285 20.8712 148.165 20.69 147.952 20.6204V20.5932C148.075 20.5659 148.187 20.4979 148.269 20.3998C148.351 20.3016 148.399 20.1789 148.405 20.0505C148.407 19.9587 148.389 19.8676 148.352 19.7837C148.315 19.6997 148.26 19.6249 148.191 19.5646C147.964 19.4213 147.696 19.3577 147.429 19.3837C147.146 19.3817 146.864 19.4097 146.587 19.4671V21.7321H147.096V20.8282ZM147.108 19.8002C147.2 19.7799 147.295 19.7705 147.389 19.7724C147.71 19.7724 147.856 19.9119 147.856 20.1197C147.856 20.3572 147.629 20.4535 147.349 20.4535H147.108V19.8002ZM147.441 18.2715C147.145 18.2698 146.851 18.3275 146.577 18.4413C146.302 18.5551 146.052 18.7227 145.843 18.9346C145.633 19.1464 145.466 19.3983 145.352 19.6756C145.24 19.9529 145.181 20.2502 145.182 20.5503C145.179 20.8517 145.235 21.1507 145.347 21.43C145.458 21.7093 145.624 21.9634 145.834 22.1775C146.044 22.3917 146.293 22.5617 146.568 22.6778C146.843 22.7938 147.138 22.8535 147.435 22.8535C147.733 22.8535 148.028 22.7938 148.303 22.6778C148.578 22.5617 148.827 22.3917 149.037 22.1775C149.246 21.9634 149.412 21.7093 149.524 21.43C149.636 21.1507 149.692 20.8517 149.69 20.5503C149.693 20.2517 149.638 19.9553 149.527 19.6785C149.416 19.4016 149.252 19.1498 149.045 18.9377C148.837 18.7256 148.589 18.5575 148.317 18.4432C148.044 18.3288 147.752 18.2704 147.457 18.2715H147.441ZM147.441 18.7295C148.419 18.7295 149.127 19.5496 149.127 20.5503C149.127 21.5647 148.419 22.3838 147.457 22.3702C147.225 22.369 146.996 22.3204 146.783 22.2274C146.57 22.1344 146.377 21.9989 146.217 21.829C146.058 21.6591 145.933 21.4582 145.852 21.2385C145.77 21.0188 145.733 20.7847 145.743 20.5503C145.743 19.5496 146.466 18.7295 147.429 18.7295H147.441ZM115.455 18.9556C112.486 17.8523 108.554 19.3362 108.146 22.3449C107.758 25.2222 109.472 26.8465 113.083 27.5685C116.83 28.3161 116.401 31.6224 115.458 32.7348C113.949 34.5189 111.633 34.6921 109.792 34.0499C106.073 33.0744 103.276 29.4683 104 24.9368C104.744 20.3278 108.485 18.0538 112.341 18.0626C110.958 17.9036 109.556 18.0424 108.228 18.4699C106.901 18.8974 105.678 19.6038 104.639 20.543C103.601 21.4822 102.77 22.6329 102.202 23.9196C101.633 25.2064 101.34 26.6002 101.341 28.0097C101.337 29.807 101.81 31.5724 102.711 33.1211C103.613 34.6699 104.908 35.945 106.464 36.813C108.019 37.6811 109.777 38.1102 111.552 38.0554C113.327 38.0007 115.055 37.464 116.555 36.5016C118.055 35.5393 119.272 34.1865 120.078 32.5852C120.884 30.9837 121.251 29.1924 121.139 27.3987C121.026 25.605 120.439 23.8749 119.439 22.3893C118.439 20.9038 117.064 19.7176 115.455 18.9547V18.9556ZM8.39374 52.8755V58.2377C8.39411 58.2533 8.39134 58.2689 8.38559 58.2834C8.37984 58.2978 8.37125 58.311 8.36031 58.3221C8.34938 58.3331 8.33635 58.3418 8.322 58.3476C8.30766 58.3534 8.2923 58.3561 8.27687 58.3558H7.8601C7.84466 58.3561 7.8293 58.3534 7.81495 58.3476C7.80061 58.3418 7.78757 58.3331 7.77665 58.3221C7.76572 58.311 7.75712 58.2978 7.75137 58.2834C7.74562 58.2689 7.74285 58.2533 7.74322 58.2377V52.8589C7.74322 50.2283 6.909 49.874 5.14002 49.874H2.21972V58.2377C2.22009 58.2533 2.21732 58.2689 2.21157 58.2834C2.20582 58.2978 2.19723 58.311 2.1863 58.3221C2.17537 58.3331 2.16233 58.3418 2.14799 58.3476C2.13364 58.3534 2.11829 58.3561 2.10285 58.3558H1.68586C1.67008 58.3576 1.65408 58.3558 1.63907 58.3506C1.62406 58.3454 1.61043 58.3367 1.59918 58.3253C1.58793 58.314 1.57937 58.3002 1.57415 58.285C1.56892 58.2698 1.56715 58.2537 1.56898 58.2377V49.537C1.57041 49.5015 1.58499 49.4678 1.60984 49.4427C1.63468 49.4176 1.66796 49.4028 1.70306 49.4014C2.82364 49.3052 3.94831 49.2662 5.07276 49.2846C7.34276 49.2846 8.39374 49.7392 8.39374 52.8755ZM17.7211 53.8539C17.7211 57.4792 17.0368 58.4403 14.2335 58.4403C11.4133 58.4403 10.7458 57.4792 10.7458 53.8539C10.7458 50.2285 11.4142 49.2846 14.235 49.2846C17.0378 49.2846 17.7211 50.2283 17.7211 53.8539ZM11.3799 53.8539C11.3799 57.0238 11.9141 57.8501 14.2335 57.8501C16.5363 57.8501 17.0704 57.0238 17.0704 53.8539C17.0704 50.684 16.5363 49.874 14.2335 49.874C11.9149 49.8742 11.3809 50.6838 11.3809 53.8539H11.3799ZM30.8871 49.3853C30.904 49.3829 30.9213 49.3851 30.9371 49.3918C30.9529 49.3985 30.9666 49.4093 30.9768 49.4232C30.9871 49.437 30.9934 49.4534 30.9953 49.4706C30.9971 49.4878 30.9942 49.5053 30.9872 49.521L29.4519 56.2491C28.9847 58.2725 28.8512 58.4412 28.0171 58.4412C27.1325 58.4412 27.0322 58.2725 26.5318 56.2491L25.1634 50.6677L23.8116 56.2491C23.311 58.2725 23.2111 58.4412 22.3267 58.4412C21.4922 58.4412 21.3588 58.2725 20.8915 56.2491L19.3562 49.521C19.3492 49.5053 19.3465 49.4879 19.3484 49.4707C19.3502 49.4535 19.3566 49.4371 19.3668 49.4233C19.377 49.4095 19.3907 49.3987 19.4065 49.3919C19.4223 49.3852 19.4394 49.3829 19.4564 49.3853H19.8911C19.9191 49.386 19.946 49.3965 19.9673 49.415C19.9886 49.4334 20.0029 49.4587 20.0079 49.4866L21.5096 56.1302C21.86 57.5971 21.9769 57.7995 22.3105 57.7995C22.7278 57.7995 22.7946 57.6984 23.195 56.1302L24.6635 50.1103C24.7135 49.8912 24.7636 49.8405 24.8805 49.8405H25.4643C25.5812 49.8405 25.6313 49.8912 25.6813 50.1103L27.1498 56.1302C27.5502 57.6984 27.617 57.7995 28.0342 57.7995C28.3679 57.7995 28.4848 57.5959 28.8352 56.1302L30.3371 49.4866C30.3435 49.4561 30.3606 49.429 30.3853 49.4103C30.4099 49.3918 30.4404 49.3828 30.4712 49.3853H30.8884H30.8871ZM48.7755 52.8756V58.2379C48.776 58.2535 48.7732 58.269 48.7674 58.2836C48.7617 58.2981 48.7531 58.3113 48.7422 58.3223C48.7312 58.3333 48.7182 58.342 48.7038 58.3478C48.6895 58.3536 48.6742 58.3564 48.6587 58.3559H48.2426C48.228 58.3559 48.2136 58.3528 48.2003 58.3466C48.187 58.3405 48.1752 58.3314 48.1656 58.3203C48.1561 58.309 48.1491 58.2959 48.1451 58.2817C48.1411 58.2675 48.1401 58.2526 48.1423 58.2379V52.8589C48.1423 50.2283 47.2913 49.874 45.5225 49.874C44.6088 49.8639 43.6968 49.9544 42.8024 50.144C43.1361 50.6496 43.303 51.4085 43.303 52.6226V58.2377C43.3067 58.2525 43.3067 58.2679 43.3033 58.2827C43.2998 58.2976 43.2929 58.3113 43.283 58.3229C43.2733 58.3344 43.2609 58.3435 43.2469 58.3491C43.233 58.3549 43.2179 58.3572 43.203 58.3558H42.7692C42.7546 58.3558 42.7401 58.3525 42.7268 58.3464C42.7136 58.3402 42.7017 58.3312 42.6923 58.32C42.6827 58.3088 42.6757 58.2957 42.6717 58.2814C42.6676 58.2672 42.6667 58.2523 42.6688 58.2377V52.6059C42.6688 49.9755 41.8179 49.8742 40.0491 49.8742H37.6133V58.2379C37.6136 58.2535 37.6109 58.269 37.6051 58.2836C37.5994 58.2981 37.5908 58.3113 37.5798 58.3223C37.5689 58.3333 37.5559 58.342 37.5416 58.3478C37.5272 58.3536 37.5118 58.3564 37.4964 58.3559H37.0792C37.0634 58.3579 37.0474 58.3561 37.0324 58.3509C37.0173 58.3455 37.0037 58.3369 36.9925 58.3256C36.9812 58.3142 36.9727 58.3005 36.9675 58.2853C36.9623 58.2701 36.9605 58.2539 36.9623 58.2379V49.537C36.9638 49.5015 36.9784 49.4679 37.0032 49.4428C37.028 49.4177 37.0613 49.4028 37.0964 49.4014C38.0613 49.3119 39.0302 49.273 39.9991 49.2846C40.9836 49.2846 41.8011 49.369 42.3519 49.7064C43.369 49.4263 44.4184 49.2845 45.4724 49.2846C47.725 49.2846 48.7765 49.7394 48.7765 52.8756H48.7755ZM57.8531 53.4491V53.955C57.8531 54.1067 57.8364 54.1741 57.6026 54.1741H51.7965C51.8299 57.0745 52.2973 57.8501 54.5498 57.8501H56.9695C56.9831 57.8483 56.9969 57.8497 57.0098 57.8542C57.0228 57.8587 57.0345 57.866 57.0442 57.8759C57.0539 57.8857 57.0612 57.8975 57.0656 57.9106C57.07 57.9238 57.0714 57.9377 57.0697 57.9514V58.2549C57.0726 58.2673 57.0726 58.2803 57.0698 58.2928C57.0668 58.3052 57.0611 58.3169 57.053 58.3267C57.0448 58.3365 57.0346 58.3442 57.0229 58.3494C57.0113 58.3544 56.9987 58.3567 56.9861 58.3559C56.3521 58.4403 55.0004 58.4403 54.5503 58.4403C51.6967 58.4403 51.1461 57.496 51.1461 53.8369C51.1461 50.1779 51.6963 49.2846 54.5489 49.2846C57.1859 49.2846 57.8205 50.1103 57.8541 53.4491H57.8531ZM51.7955 53.5671H57.2189C57.1856 50.4981 56.6851 49.8742 54.5489 49.8742C52.2805 49.8742 51.8132 50.6164 51.7965 53.5671H51.7955ZM66.4804 53.4491V53.955C66.4804 54.1067 66.4636 54.1741 66.2299 54.1741H60.4237C60.457 57.0745 60.9242 57.8501 63.1771 57.8501H65.5968C65.6104 57.8483 65.6242 57.8497 65.6371 57.8542C65.65 57.8587 65.6618 57.866 65.6715 57.8759C65.6811 57.8857 65.6885 57.8975 65.6929 57.9106C65.6973 57.9238 65.6986 57.9377 65.6969 57.9514V58.2549C65.6999 58.2673 65.6999 58.2803 65.697 58.2928C65.6941 58.3052 65.6884 58.3169 65.6803 58.3267C65.6721 58.3365 65.6618 58.3442 65.6502 58.3494C65.6386 58.3544 65.626 58.3567 65.6134 58.3559C64.9793 58.4403 63.6276 58.4403 63.1775 58.4403C60.3241 58.4403 59.7734 57.496 59.7734 53.8369C59.7734 50.1779 60.3236 49.2846 63.1771 49.2846C65.8138 49.2846 66.4478 50.1103 66.4822 53.4491H66.4804ZM60.4228 53.5671H65.8462C65.8129 50.4981 65.3121 49.8742 63.1761 49.8742C60.9075 49.8742 60.4404 50.6164 60.4237 53.5671H60.4228ZM69.518 46.8058C69.585 46.789 69.6349 46.8058 69.6349 46.9069V49.3857H71.6206C71.6361 49.3854 71.6515 49.3881 71.6658 49.3939C71.6801 49.3997 71.6932 49.4083 71.7041 49.4194C71.715 49.4305 71.7236 49.4437 71.7294 49.4581C71.7351 49.4726 71.7379 49.4882 71.7375 49.5038V49.8409C71.7379 49.8565 71.7351 49.8721 71.7294 49.8866C71.7236 49.9011 71.715 49.9143 71.7041 49.9254C71.6932 49.9364 71.6801 49.9451 71.6658 49.9508C71.6515 49.9566 71.6361 49.9594 71.6206 49.959H69.6349V56.856C69.6349 57.6319 69.8684 57.851 70.7029 57.851H71.7876C71.802 57.8488 71.8167 57.8497 71.8308 57.8537C71.8448 57.8578 71.8579 57.8649 71.8689 57.8745C71.88 57.8842 71.8889 57.8961 71.895 57.9095C71.9011 57.9229 71.9042 57.9376 71.9042 57.9523V58.2558C71.9067 58.2704 71.906 58.2854 71.902 58.2998C71.8981 58.3141 71.8911 58.3273 71.8816 58.3386C71.872 58.3498 71.8601 58.3589 71.8467 58.3649C71.8334 58.371 71.8188 58.3741 71.8042 58.3738C71.4496 58.4161 71.0931 58.4387 70.7361 58.4417C69.518 58.4417 68.9839 58.1549 68.9839 56.9241V49.9592H68.0007C67.9861 49.9592 67.9717 49.9561 67.9583 49.9499C67.945 49.9437 67.9332 49.9347 67.9237 49.9235C67.9142 49.9123 67.9072 49.8991 67.9031 49.8849C67.8991 49.8708 67.8981 49.8558 67.9004 49.8412V49.504C67.8981 49.4894 67.8991 49.4745 67.9031 49.4602C67.9072 49.446 67.9142 49.4329 67.9237 49.4217C67.9332 49.4105 67.945 49.4015 67.9583 49.3953C67.9717 49.3891 67.9861 49.386 68.0007 49.386H68.9839V47.0252C68.9822 46.9961 68.9917 46.9676 69.0105 46.9455C69.0292 46.9235 69.0556 46.9097 69.0842 46.9071L69.518 46.8058ZM78.5788 49.3521C78.6624 49.3688 78.6624 49.4028 78.6624 49.4701V49.7568C78.666 49.7716 78.6661 49.787 78.6625 49.8018C78.6591 49.8166 78.6521 49.8303 78.6423 49.8418C78.6325 49.8533 78.6202 49.8624 78.6062 49.8681C78.5924 49.8737 78.5773 49.876 78.5623 49.8747H75.6755C75.0245 49.8747 73.7897 49.976 73.7897 51.1225V51.4935C73.7897 52.2355 73.9566 52.657 74.9412 53.0785L77.6277 54.2252C78.7792 54.7311 79.0296 55.3717 79.0296 56.2486V56.5184C79.0296 58.0192 78.2619 58.4405 75.909 58.4405C75.3749 58.4405 73.7063 58.4235 73.189 58.3562C73.1756 58.3571 73.1623 58.3551 73.1498 58.3503C73.1372 58.3455 73.1258 58.338 73.1164 58.3285C73.1069 58.3189 73.0995 58.3074 73.0948 58.2948C73.09 58.2821 73.088 58.2686 73.0888 58.2551V57.9516C73.0889 57.9369 73.092 57.9222 73.0982 57.9089C73.1042 57.8954 73.1132 57.8835 73.1243 57.8739C73.1354 57.8642 73.1484 57.8571 73.1624 57.8531C73.1765 57.849 73.1913 57.8481 73.2057 57.8503H75.9258C77.7779 57.8503 78.3954 57.5299 78.3954 56.5182V56.2314C78.3954 55.5906 78.1784 55.1184 77.345 54.7643L74.6411 53.6176C73.3897 53.078 73.1559 52.4374 73.1559 51.4761V51.1053C73.1559 49.3853 74.8746 49.284 75.7929 49.284C76.1926 49.2846 77.9281 49.2842 78.5788 49.3521ZM92.1955 52.8761V58.2383C92.1955 58.254 92.1929 58.2696 92.1869 58.2841C92.1817 58.2985 92.1731 58.3117 92.1619 58.3228C92.1507 58.3338 92.1378 58.3425 92.124 58.3483C92.1093 58.354 92.0938 58.3568 92.0783 58.3565H91.6611C91.6464 58.3568 91.6309 58.354 91.6162 58.3483C91.6016 58.3425 91.5886 58.3338 91.5783 58.3228C91.5671 58.3117 91.5585 58.2985 91.5524 58.2841C91.5473 58.2695 91.5447 58.254 91.5447 58.2383V52.8589C91.5447 50.2283 90.7102 49.874 88.9412 49.874H86.0212V58.2377C86.0217 58.2533 86.0188 58.2689 86.0131 58.2834C86.0073 58.2978 85.9987 58.311 85.9879 58.3221C85.9769 58.3331 85.9639 58.3418 85.9495 58.3476C85.9352 58.3534 85.9198 58.3561 85.9044 58.3558H85.4872C85.4714 58.3576 85.4555 58.3558 85.4405 58.3505C85.4255 58.3452 85.4118 58.3366 85.4006 58.3252C85.3894 58.3139 85.3809 58.3001 85.3757 58.2849C85.3705 58.2698 85.3687 58.2536 85.3705 58.2377V49.537C85.3719 49.5015 85.3865 49.4678 85.4114 49.4427C85.4362 49.4176 85.4695 49.4028 85.5046 49.4014C86.6248 49.3052 87.7498 49.2662 88.874 49.2846C91.1438 49.2846 92.1955 49.7398 92.1955 52.8761ZM101.273 53.4495V53.9554C101.273 54.1072 101.256 54.1745 101.023 54.1745H95.2154C95.249 57.0749 95.7162 57.8506 97.9688 57.8506H100.389C100.402 57.8488 100.416 57.8501 100.429 57.8547C100.442 57.8591 100.454 57.8665 100.464 57.8763C100.473 57.8861 100.48 57.898 100.485 57.9111C100.489 57.9242 100.49 57.9382 100.489 57.9519V58.2553C100.492 58.2677 100.492 58.2807 100.489 58.2932C100.486 58.3056 100.48 58.3172 100.472 58.3271C100.464 58.3368 100.454 58.3447 100.442 58.3497C100.431 58.3548 100.418 58.3572 100.406 58.3565C99.7714 58.4407 98.4197 58.4407 97.9697 58.4407C95.1162 58.4407 94.5654 57.4964 94.5654 53.8374C94.5654 50.1783 95.1154 49.2846 97.9688 49.2846C100.606 49.2846 101.239 50.1107 101.273 53.4495ZM95.2154 53.5677H100.639C100.606 50.4986 100.105 49.8747 97.9688 49.8747C95.6998 49.8742 95.2326 50.6169 95.2154 53.5677ZM109.149 49.3857C109.166 49.3823 109.183 49.3844 109.199 49.3919C109.215 49.3995 109.227 49.412 109.234 49.4275C109.242 49.443 109.245 49.4606 109.241 49.4776C109.238 49.4945 109.229 49.51 109.216 49.5214L106.329 53.5853L109.634 58.2212C109.668 58.289 109.651 58.3569 109.567 58.3569H109C108.976 58.36 108.952 58.3551 108.93 58.3428C108.909 58.3306 108.892 58.3117 108.883 58.289L105.946 54.1239L103.008 58.2886C102.995 58.312 102.975 58.331 102.952 58.343C102.927 58.3551 102.901 58.3598 102.874 58.3565H102.323C102.307 58.3599 102.29 58.3578 102.274 58.3502C102.258 58.3427 102.246 58.3302 102.239 58.3147C102.231 58.2992 102.228 58.2816 102.232 58.2646C102.234 58.2476 102.244 58.2321 102.257 58.2207L105.56 53.5834L102.673 49.5196C102.623 49.4518 102.64 49.3839 102.724 49.3839H103.291C103.317 49.3843 103.342 49.3907 103.365 49.4024C103.389 49.4142 103.409 49.431 103.425 49.4518L105.945 53.0267L108.465 49.4518C108.481 49.431 108.501 49.4142 108.524 49.4024C108.547 49.3907 108.573 49.3843 108.599 49.3839H109.149V49.3857ZM112.186 46.8058C112.253 46.789 112.303 46.8058 112.303 46.9069V49.3857H114.289C114.304 49.3853 114.32 49.3881 114.334 49.3939C114.348 49.3997 114.362 49.4084 114.372 49.4194C114.383 49.4305 114.392 49.4437 114.397 49.4581C114.403 49.4726 114.406 49.4882 114.406 49.5038V49.8409C114.406 49.8565 114.403 49.8721 114.397 49.8866C114.392 49.901 114.383 49.9142 114.372 49.9253C114.361 49.9363 114.348 49.945 114.334 49.9508C114.32 49.9566 114.304 49.9594 114.289 49.959H112.303V56.856C112.303 57.6319 112.537 57.851 113.371 57.851H114.456C114.471 57.8488 114.485 57.8497 114.499 57.8537C114.514 57.8578 114.527 57.8649 114.537 57.8745C114.548 57.8842 114.558 57.8961 114.564 57.9095C114.57 57.9229 114.572 57.9376 114.572 57.9523V58.2558C114.575 58.2704 114.574 58.2854 114.571 58.2998C114.566 58.3141 114.559 58.3273 114.55 58.3386C114.54 58.3498 114.528 58.3589 114.515 58.3649C114.502 58.371 114.488 58.3741 114.473 58.3738C114.118 58.4161 113.762 58.4387 113.404 58.4417C112.186 58.4417 111.652 58.1549 111.652 56.9241V49.9592H110.668C110.653 49.9592 110.639 49.956 110.626 49.9498C110.612 49.9436 110.601 49.9346 110.591 49.9235C110.582 49.9122 110.575 49.899 110.571 49.8849C110.566 49.8707 110.565 49.8558 110.568 49.8412V49.504C110.565 49.4895 110.566 49.4745 110.571 49.4603C110.575 49.4461 110.582 49.4329 110.591 49.4217C110.601 49.4105 110.612 49.4015 110.626 49.3953C110.639 49.3891 110.653 49.386 110.668 49.386H111.652V47.0252C111.651 46.9962 111.66 46.9677 111.679 46.9456C111.697 46.9236 111.724 46.9098 111.752 46.9071L112.186 46.8058Z" fill="black"/>
</g>
</svg>
