<svg width="150" height="59" viewBox="0 0 150 59" fill="none" xmlns="http://www.w3.org/2000/svg">
<g clip-path="url(#clip0_84_1024)">
<path d="M85.5942 39.7889C85.5942 44.5169 83.3382 46.8849 78.8182 46.8849C74.2982 46.8849 72.2422 44.5729 72.2422 39.9569V30.8689H75.8902V40.0049C75.8902 42.5489 76.9142 43.8289 78.9542 43.8289C80.9942 43.8289 81.9622 42.5969 81.9622 40.1409V30.8769H85.6022V39.8049L85.5942 39.7889Z" fill="black"/>
<path d="M100.042 46.0527C98.8662 46.6127 97.3222 46.8847 95.4262 46.8847C92.9462 46.8847 91.0022 46.1727 89.5782 44.7567C88.1622 43.3407 87.4502 41.4447 87.4502 39.0767C87.4502 36.5567 88.2502 34.5167 89.8422 32.9487C91.4342 31.3807 93.5062 30.5967 96.0502 30.5967C97.6262 30.5967 98.9542 30.7887 100.034 31.1807V34.5967C98.9542 33.9647 97.7222 33.6527 96.3382 33.6527C94.8182 33.6527 93.5942 34.1167 92.6662 35.0447C91.7382 35.9727 91.2662 37.2367 91.2662 38.8207C91.2662 40.4047 91.7062 41.5567 92.5862 42.4607C93.4662 43.3647 94.6502 43.8207 96.1302 43.8207C97.6102 43.8207 98.8502 43.4847 100.026 42.8127V46.0527H100.042Z" fill="black"/>
<path d="M131.666 39.7891C131.666 44.5171 129.41 46.8851 124.89 46.8851C120.37 46.8851 118.314 44.5731 118.314 39.9571V30.8691H121.962V40.0051C121.962 42.5491 122.986 43.8291 125.026 43.8291C127.066 43.8291 128.034 42.5971 128.034 40.1411V30.8771H131.674V39.8051L131.666 39.7891Z" fill="black"/>
<path d="M133.722 46.0049V42.4929C134.378 43.0289 135.082 43.4289 135.85 43.6929C136.618 43.9569 137.386 44.0929 138.17 44.0929C138.626 44.0929 139.026 44.0529 139.37 43.9729C139.714 43.8929 139.994 43.7809 140.226 43.6369C140.458 43.4929 140.626 43.3249 140.738 43.1329C140.85 42.9409 140.906 42.7249 140.906 42.5009C140.906 42.1969 140.818 41.9169 140.634 41.6769C140.45 41.4369 140.21 41.2129 139.898 41.0049C139.586 40.7969 139.218 40.6049 138.786 40.4129C138.362 40.2209 137.898 40.0289 137.402 39.8289C136.138 39.3169 135.202 38.6929 134.578 37.9489C133.962 37.2129 133.65 36.3169 133.65 35.2689C133.65 34.4529 133.818 33.7409 134.154 33.1569C134.49 32.5649 134.954 32.0849 135.53 31.7009C136.114 31.3169 136.786 31.0369 137.554 30.8609C138.322 30.6849 139.13 30.5889 139.986 30.5889C140.842 30.5889 141.57 30.6369 142.218 30.7409C142.866 30.8369 143.466 30.9889 144.018 31.1969V34.4769C143.746 34.2929 143.45 34.1329 143.138 33.9969C142.818 33.8609 142.49 33.7409 142.154 33.6529C141.818 33.5649 141.482 33.4929 141.146 33.4529C140.81 33.4129 140.498 33.3889 140.194 33.3889C139.778 33.3889 139.402 33.4289 139.066 33.5009C138.73 33.5809 138.442 33.6849 138.21 33.8289C137.978 33.9649 137.794 34.1329 137.666 34.3249C137.538 34.5169 137.474 34.7329 137.474 34.9809C137.474 35.2449 137.546 35.4769 137.69 35.6929C137.834 35.9009 138.034 36.1009 138.298 36.2849C138.562 36.4689 138.882 36.6529 139.258 36.8369C139.634 37.0129 140.058 37.2049 140.53 37.3889C141.178 37.6529 141.754 37.9329 142.266 38.2289C142.778 38.5249 143.218 38.8609 143.586 39.2369C143.954 39.6129 144.234 40.0369 144.434 40.5169C144.626 40.9969 144.73 41.5569 144.73 42.1889C144.73 43.0689 144.562 43.8049 144.218 44.4049C143.874 45.0049 143.41 45.4849 142.826 45.8529C142.242 46.2209 141.562 46.4849 140.786 46.6529C140.01 46.8209 139.186 46.8929 138.322 46.8929C137.458 46.8929 136.594 46.8209 135.794 46.6769C134.994 46.5329 134.298 46.3089 133.714 46.0209L133.722 46.0049Z" fill="black"/>
<path d="M106.226 46.6129H102.586V30.8689H106.226V46.6129Z" fill="black"/>
<path d="M107.658 39.7729L113.29 46.6129H117.882L110.842 38.3729L116.474 30.8689H112.138L107.682 37.4289L107.658 39.7729Z" fill="black"/>
<path d="M66.9861 40.4848C67.4261 40.2768 67.8341 40.0208 68.1941 39.7168C69.3621 38.7408 69.9461 37.4608 69.9461 35.8768C69.9461 32.5328 67.9141 30.8608 63.8421 30.8608H56.3301V46.6048H59.9701V33.5808H63.2181C65.1541 33.5808 66.1221 34.3888 66.1221 36.0048C66.1221 37.6208 65.1541 38.4848 63.2181 38.4848V38.5008H61.1621L67.6261 46.5968H72.2181L66.9861 40.4688V40.4848Z" fill="black"/>
<path d="M52.426 16.9894L51.434 15.7334L46.058 18.0294L43.794 16.4934L40.162 17.2774L36.178 19.0534L35.146 21.3494L37.058 23.6054L38.522 24.0374L42.386 20.0214L38.97 25.5974L36.338 24.7494L35.73 23.8694L31.314 29.3414L17.57 32.9574C17.09 32.9574 16.386 32.9734 16.386 32.9734C3.64996 27.5174 10.97 20.2054 11.042 20.1254C10.954 20.1734 0.593964 25.4054 12.306 35.0454L10.114 37.5334L8.56196 44.5654L4.62596 47.6934L0.313965 57.0614H4.40996L5.08196 55.4774L3.49796 55.0854L6.08196 50.5894C7.42596 49.8694 12.242 47.9334 13.186 47.2774L19.586 39.2374L26.746 41.4934L27.754 37.0454L28.106 37.7894L28.658 44.1334L25.634 57.6934H29.914V56.3094L28.314 55.6374L33.522 43.9494C33.522 43.9494 41.442 38.9094 41.434 38.8614C41.41 38.7334 45.274 26.8374 45.274 26.8374L50.058 26.4294L51.458 24.5014L45.786 24.5174L52.362 19.6694L52.426 17.0214V16.9894Z" fill="black"/>
<path d="M34.8262 44.6692L40.0342 41.3652L34.4022 54.4932L36.0102 55.1092V56.4212L32.2422 56.4292L34.8262 44.6692Z" fill="black"/>
<path d="M21.6902 47.629L15.7382 50.653L13.5462 54.525L15.2102 54.989L14.5382 56.413H10.8662L13.7222 48.821C13.9942 48.653 17.0182 45.957 17.0182 45.957L17.2742 44.245L20.0582 40.749L24.1942 42.061L21.6902 47.629Z" fill="black"/>
<path d="M44.2419 32.1733L32.2979 27.6853L33.4899 26.1973L44.7459 30.2373L44.2419 32.1733Z" fill="#F47920"/>
<path d="M148.714 31.8451C148.714 32.7571 147.978 33.4691 147.026 33.4691C146.074 33.4691 145.33 32.7571 145.33 31.8451C145.33 30.9331 146.082 30.2371 147.026 30.2371C147.97 30.2371 148.714 30.9491 148.714 31.8451ZM145.754 31.8451C145.754 32.5571 146.298 33.1251 147.042 33.1251C147.786 33.1251 148.298 32.5571 148.298 31.8531C148.298 31.1491 147.762 30.5571 147.034 30.5571C146.306 30.5571 145.762 31.1331 145.762 31.8371L145.754 31.8451ZM146.77 32.6851H146.386V31.0771C146.538 31.0451 146.746 31.0291 147.018 31.0291C147.33 31.0291 147.474 31.0771 147.594 31.1491C147.682 31.2211 147.754 31.3491 147.754 31.5011C147.754 31.6771 147.61 31.8131 147.41 31.8771V31.8931C147.57 31.9491 147.658 32.0691 147.714 32.2851C147.762 32.5331 147.794 32.6291 147.834 32.6851H147.426C147.378 32.6291 147.346 32.4771 147.298 32.2931C147.266 32.1171 147.17 32.0371 146.954 32.0371H146.77V32.6851ZM146.778 31.7731H146.962C147.17 31.7731 147.346 31.7011 147.346 31.5411C147.346 31.3971 147.234 31.2931 146.994 31.2931C146.89 31.2931 146.826 31.3011 146.786 31.3091V31.7731H146.778Z" fill="#231F20"/>
<path d="M56.394 16.8537V24.4937H60.05V14.2217L56.394 16.8537Z" fill="#F47920"/>
<path d="M64.2178 11.2214V24.4934H67.8738V8.58936L64.2178 11.2214Z" fill="#F47920"/>
<path d="M72.2422 5.44548V24.4935H75.8982V2.81348L72.2422 5.44548Z" fill="#F47920"/>
<path d="M60.5544 58.2212C60.1224 58.4292 59.5544 58.5332 58.8584 58.5332C57.9464 58.5332 57.2344 58.2692 56.7064 57.7332C56.1784 57.1972 55.9224 56.4852 55.9224 55.5892C55.9224 54.6372 56.2184 53.8692 56.8024 53.2772C57.3864 52.6852 58.1464 52.3892 59.0904 52.3892C59.6664 52.3892 60.1624 52.4612 60.5544 52.6052V53.8932C60.1544 53.6532 59.7064 53.5332 59.1944 53.5332C58.6344 53.5332 58.1864 53.7092 57.8424 54.0612C57.4984 54.4132 57.3304 54.8852 57.3304 55.4852C57.3304 56.0852 57.4904 56.5172 57.8184 56.8612C58.1464 57.2052 58.5784 57.3732 59.1224 57.3732C59.6664 57.3732 60.1224 57.2452 60.5544 56.9892V58.2132V58.2212Z" fill="#F47920"/>
<path d="M64.9303 58.5412C64.0823 58.5412 63.3863 58.2612 62.8503 57.7092C62.3143 57.1572 62.0503 56.4372 62.0503 55.5412C62.0503 54.6052 62.3223 53.8452 62.8663 53.2612C63.4103 52.6772 64.1303 52.3892 65.0263 52.3892C65.8743 52.3892 66.5623 52.6692 67.0823 53.2212C67.6023 53.7732 67.8663 54.5092 67.8663 55.4132C67.8663 56.3172 67.5943 57.1012 67.0503 57.6692C66.5063 58.2372 65.8023 58.5252 64.9303 58.5252V58.5412ZM64.9863 53.5492C64.5143 53.5492 64.1463 53.7252 63.8663 54.0772C63.5863 54.4292 63.4503 54.8932 63.4503 55.4772C63.4503 56.0612 63.5863 56.5332 63.8663 56.8692C64.1463 57.2052 64.5063 57.3812 64.9543 57.3812C65.4023 57.3812 65.7783 57.2132 66.0503 56.8852C66.3223 56.5572 66.4583 56.0932 66.4583 55.5012C66.4583 54.9092 66.3303 54.4052 66.0663 54.0612C65.8023 53.7172 65.4423 53.5492 64.9863 53.5492Z" fill="#F47920"/>
<path d="M76.5541 58.437H75.2341V54.885C75.2341 54.501 75.2501 54.077 75.2821 53.613H75.2501C75.1781 53.981 75.1221 54.237 75.0661 54.397L73.6741 58.437H72.5781L71.1621 54.437C71.1221 54.333 71.0581 54.053 70.9781 53.605H70.9381C70.9781 54.189 70.9941 54.701 70.9941 55.149V58.437H69.7861V52.501H71.7461L72.9621 56.021C73.0581 56.301 73.1301 56.589 73.1701 56.869H73.1941C73.2661 56.541 73.3461 56.253 73.4341 56.013L74.6501 52.501H76.5621V58.437H76.5541Z" fill="#F47920"/>
<path d="M85.6025 58.437H84.2825V54.885C84.2825 54.501 84.2985 54.077 84.3305 53.613H84.2985C84.2265 53.981 84.1705 54.237 84.1145 54.397L82.7225 58.437H81.6265L80.2105 54.437C80.1705 54.333 80.1065 54.053 80.0265 53.605H79.9865C80.0265 54.189 80.0425 54.701 80.0425 55.149V58.437H78.8345V52.501H80.7945L82.0105 56.021C82.1065 56.301 82.1785 56.589 82.2185 56.869H82.2425C82.3145 56.541 82.3945 56.253 82.4825 56.013L83.6985 52.501H85.6105V58.437H85.6025Z" fill="#F47920"/>
<path d="M87.6182 58.205V56.877C87.8582 57.077 88.1222 57.229 88.4022 57.333C88.6822 57.437 88.9702 57.485 89.2582 57.485C89.4262 57.485 89.5702 57.469 89.6982 57.437C89.8262 57.405 89.9302 57.365 90.0102 57.309C90.0982 57.253 90.1542 57.189 90.2022 57.117C90.2502 57.045 90.2662 56.965 90.2662 56.877C90.2662 56.765 90.2342 56.661 90.1702 56.565C90.1062 56.469 90.0102 56.389 89.8982 56.309C89.7862 56.229 89.6502 56.157 89.4902 56.085C89.3302 56.013 89.1622 55.941 88.9782 55.869C88.5142 55.677 88.1702 55.437 87.9382 55.157C87.7062 54.877 87.5942 54.541 87.5942 54.149C87.5942 53.837 87.6582 53.573 87.7782 53.349C87.8982 53.125 88.0742 52.941 88.2822 52.797C88.4982 52.653 88.7462 52.549 89.0262 52.477C89.3062 52.405 89.6022 52.373 89.9222 52.373C90.2422 52.373 90.5062 52.389 90.7462 52.429C90.9862 52.469 91.2022 52.525 91.4102 52.597V53.837C91.3142 53.765 91.2022 53.709 91.0822 53.653C90.9622 53.597 90.8422 53.557 90.7222 53.525C90.6022 53.493 90.4742 53.461 90.3542 53.445C90.2342 53.429 90.1142 53.421 90.0022 53.421C89.8502 53.421 89.7142 53.437 89.5862 53.461C89.4582 53.485 89.3542 53.533 89.2742 53.581C89.1942 53.629 89.1222 53.693 89.0742 53.773C89.0262 53.853 89.0022 53.925 89.0022 54.021C89.0022 54.117 89.0262 54.213 89.0822 54.285C89.1382 54.357 89.2102 54.437 89.3062 54.509C89.4022 54.581 89.5222 54.645 89.6582 54.717C89.7942 54.789 89.9542 54.853 90.1302 54.925C90.3702 55.021 90.5782 55.133 90.7702 55.245C90.9622 55.357 91.1222 55.485 91.2582 55.621C91.3942 55.757 91.4982 55.925 91.5702 56.101C91.6422 56.277 91.6742 56.493 91.6742 56.733C91.6742 57.061 91.6102 57.341 91.4822 57.565C91.3542 57.789 91.1862 57.973 90.9702 58.109C90.7542 58.245 90.5062 58.349 90.2182 58.413C89.9302 58.477 89.6342 58.501 89.3142 58.501C88.9942 58.501 88.6742 58.477 88.3862 58.421C88.0902 58.365 87.8342 58.285 87.6182 58.173V58.205Z" fill="#F47920"/>
<path d="M97.8341 58.2212C97.4021 58.4292 96.8341 58.5332 96.1381 58.5332C95.2261 58.5332 94.5141 58.2692 93.9861 57.7332C93.4581 57.1972 93.2021 56.4852 93.2021 55.5892C93.2021 54.6372 93.4981 53.8692 94.0821 53.2772C94.6661 52.6852 95.4261 52.3892 96.3701 52.3892C96.9461 52.3892 97.4421 52.4612 97.8341 52.6052V53.8932C97.4341 53.6532 96.9861 53.5332 96.4741 53.5332C95.9141 53.5332 95.4661 53.7092 95.1221 54.0612C94.7781 54.4132 94.6101 54.8852 94.6101 55.4852C94.6101 56.0852 94.7701 56.5172 95.0981 56.8612C95.4261 57.2052 95.8581 57.3732 96.4021 57.3732C96.9461 57.3732 97.4021 57.2452 97.8341 56.9892V58.2132V58.2212Z" fill="#F47920"/>
<path d="M102.21 58.5412C101.362 58.5412 100.666 58.2612 100.13 57.7092C99.5941 57.1572 99.3301 56.4372 99.3301 55.5412C99.3301 54.6052 99.6021 53.8452 100.146 53.2612C100.69 52.6772 101.41 52.3892 102.306 52.3892C103.154 52.3892 103.842 52.6692 104.362 53.2212C104.882 53.7732 105.146 54.5092 105.146 55.4132C105.146 56.3172 104.874 57.1012 104.33 57.6692C103.786 58.2372 103.082 58.5252 102.21 58.5252V58.5412ZM102.266 53.5492C101.794 53.5492 101.426 53.7252 101.146 54.0772C100.866 54.4292 100.73 54.8932 100.73 55.4772C100.73 56.0612 100.866 56.5332 101.146 56.8692C101.426 57.2052 101.786 57.3812 102.234 57.3812C102.682 57.3812 103.058 57.2132 103.33 56.8852C103.602 56.5572 103.738 56.0932 103.738 55.5012C103.738 54.9092 103.61 54.4052 103.346 54.0612C103.082 53.7172 102.722 53.5492 102.266 53.5492Z" fill="#F47920"/>
<path d="M108.402 56.389V58.437H107.066V52.501H109.162C110.658 52.501 111.41 53.133 111.41 54.397C111.41 54.997 111.194 55.477 110.77 55.845C110.338 56.213 109.77 56.397 109.05 56.397H108.41L108.402 56.389ZM108.402 53.525V55.373H108.93C109.642 55.373 110.002 55.061 110.002 54.437C110.002 53.813 109.642 53.525 108.93 53.525H108.402Z" fill="#F47920"/>
<path d="M116.77 58.437H113.21V52.501H116.634V53.589H114.546V54.909H116.49V55.997H114.546V57.357H116.77V58.445V58.437Z" fill="#F47920"/>
</g>
<defs>
<clipPath id="clip0_84_1024">
<rect width="149" height="58" fill="white" transform="translate(0.180176 0.44043)"/>
</clipPath>
</defs>
</svg>
