<?xml version="1.0" encoding="UTF-8"?>
<svg id="Layer_2" data-name="Layer 2" xmlns="http://www.w3.org/2000/svg" viewBox="0 0 460 254">
  <defs>
    <style>
      .cls-1 {
        fill: #000;
      }

      .cls-1, .cls-2 {
        stroke-width: 0px;
      }

      .cls-2 {
        fill: #c8102e;
      }
    </style>
  </defs>
  <g id="Layer_1-2" data-name="Layer 1">
    <g>
      <path class="cls-1" d="M340.83,154.87c-4.54,9.85-10.58,18.53-19.66,24.95-8.51,6-17.88,9.6-28.21,10.88-5.17.62-10.34.87-15.59.62-8.29-.33-16.29-1.57-23.83-5.05-8.46-3.85-14.92-9.76-18.87-18.33-3.13-6.78-4.21-13.94-4.34-21.26-.08-7.08.88-14.03,2.38-20.89,2.87-13.53,7.58-26.28,16.25-37.32,11.66-14.86,27.08-22.97,45.66-25.41,5.29-.7,10.59-.7,15.88-.62,7.46.17,14.66,1.37,21.42,4.51,7.16,3.31,12.54,8.48,15.79,15.72,3.16,7.12,3.75,14.61,3.29,22.26-.04,1.12-.08,1.82,0,2.28h107.75c.08-.21.12-.42.12-.66.34-3.64,1-7.24,1.04-10.88.13-4.64.17-9.31-.24-13.95-.84-9.97-3.34-19.4-7.8-28.34-5.54-11.13-13.79-19.94-23.87-27.18-13.63-9.8-29-15.64-45.21-19.57-11.58-2.81-23.37-4.47-35.29-5.46-7.84-.66-15.75-.87-23.63-1.12-5.08-.16-10.12.09-15.2.29-6.67.21-13.38.58-20.05,1.12-9,.66-17.87,1.86-26.71,3.48-12.95,2.31-25.66,5.62-37.91,10.38-21.25,8.23-40.42,19.69-56.13,36.37-4.37,4.67-8.41,9.68-12.08,14.93-8.92,12.79-15.58,26.65-20.04,41.54-5.25,17.5-8.5,35.21-7.88,53.54.21,5.79.71,11.46,1.84,17.12,4.54,22.39,16.46,39.76,35.79,52.13,10.37,6.62,21.62,11.22,33.42,14.61,17.83,5.13,36.12,7.28,54.58,8.11,11.67.49,23.37.45,35.04-.25,6.87-.41,13.75-.95,20.58-1.7,10.38-1.16,20.67-2.93,30.88-5.38,16.58-3.97,32.41-9.93,47.46-18.07,13.33-7.2,24.95-16.51,35.12-27.6,10.17-11.01,18.08-23.5,23.75-37.32,1.38-3.27,2.75-6.53,3.75-9.93h-108.33c-.34.38-.63.83-.92,1.45Z"/>
      <path class="cls-2" d="M101.12,203.81c0,27.72-22.62,50.19-50.54,50.19S0,231.53,0,203.81s22.63-50.22,50.58-50.22,50.54,22.46,50.54,50.22Z"/>
    </g>
  </g>
</svg>