<svg width="174" height="47" viewBox="0 0 174 47" fill="none" xmlns="http://www.w3.org/2000/svg">
<g clip-path="url(#clip0_84_1056)">
<path fill-rule="evenodd" clip-rule="evenodd" d="M16.6409 4.87695C15.1143 3.51794 13.1426 2.76541 11.0987 2.76168C6.39301 2.76168 2.79835 6.79418 2.79835 11.5714C2.79835 16.2893 6.36372 20.3249 11.0417 20.3249C13.1219 20.3106 15.1207 19.5143 16.6409 18.0943L17.9671 20.1652C15.9102 22.048 13.2192 22.7189 11.1278 22.7845C5.14096 22.9714 0.180176 17.8921 0.180176 11.657C0.180176 5.27797 5.16636 0.300343 11.3489 0.300343C13.692 0.300343 16.1277 0.95333 17.9682 2.86226L16.6409 4.87695ZM39.3381 11.5424C39.3381 17.9494 34.4077 22.7847 28.3361 22.7847C22.2646 22.7847 17.3346 17.9491 17.3346 11.5421C17.3346 5.3643 22.32 0.300343 28.3374 0.300343C34.3548 0.300343 39.3394 5.3643 39.3394 11.5421L39.3381 11.5424ZM36.7179 11.5424C36.7179 6.79444 33.2648 2.81767 28.3361 2.81767C23.4075 2.81767 19.9525 6.79418 19.9525 11.5421C19.9525 16.4633 23.7974 20.2674 28.3374 20.2674C32.8775 20.2674 36.7192 16.4633 36.7192 11.5421L36.7179 11.5424ZM97.335 5.49858C97.2492 4.08839 96.1213 2.81741 94.2795 2.81741C92.6091 2.81741 90.7701 3.99067 90.7701 5.87938C90.7701 7.56589 92.3854 8.45374 93.6947 8.96804L95.1982 9.56866C98.1793 10.7696 100.409 12.4572 100.409 16.0622C100.409 19.9807 97.4553 22.7845 93.6947 22.7845C90.296 22.7845 87.5252 20.3397 87.2053 16.2292L89.8522 16.1773C89.8378 16.7163 89.9328 17.2526 90.1317 17.7537C90.3305 18.2549 90.629 18.7105 91.0091 19.0929C91.3891 19.4753 91.8428 19.7767 92.3427 19.9786C92.8426 20.1806 93.3783 20.279 93.9174 20.2679C96.1726 20.2679 97.7905 18.3237 97.7905 16.0628C97.7905 13.7461 95.9803 12.7447 94.1691 11.9722L92.72 11.3425C90.325 10.2836 88.1514 8.88301 88.1514 5.88015C88.1514 2.38892 91.1603 0.30112 94.335 0.30112C96.676 0.30112 99.3559 1.73308 99.7385 5.5092L97.335 5.49858ZM144.867 22.3264H142.252V0.758133H145.257C151.72 0.758133 153.725 3.04709 153.725 6.99404C153.725 11.5421 150.357 13.2883 146.372 13.2883H144.868V22.3264H144.867ZM144.867 10.8842H145.706C148.378 10.8842 151.275 10.3686 151.275 6.93701C151.275 3.56269 148.155 3.16063 145.566 3.16063H144.867V10.8842ZM155.593 0.758133H166.873V3.21792H158.211V9.2537H166.622V11.7135H158.211V19.8661H166.873V22.3267H155.593V0.758133ZM117.915 4.87695C116.389 3.51729 114.417 2.76466 112.373 2.76168C107.665 2.76168 104.071 6.79496 104.071 11.5722C104.071 16.2901 107.637 20.3257 112.316 20.3257C114.396 20.312 116.395 19.5156 117.915 18.0951L119.244 20.166C117.186 22.0488 114.492 22.7196 112.4 22.7842C106.416 22.9711 101.454 17.8918 101.454 11.6567C101.454 5.27772 106.441 0.300343 112.623 0.300343C114.968 0.300343 117.402 0.95333 119.245 2.86226L117.915 4.87695ZM59.4856 22.3228H62.1271L60.8229 0.817496H57.3753L53.6458 11.2189C52.7139 13.9317 51.9691 16.2932 51.4403 18.4616H51.347C50.8205 16.2276 50.105 13.8676 49.2346 11.2189L45.6619 0.817496H42.2124L40.753 22.3223H43.3325L43.8914 13.1022C44.0775 9.87869 44.2331 6.27366 44.2953 3.59301H44.3567C44.9485 6.14586 45.7866 8.92138 46.7807 11.9533L50.1672 22.1926H52.2177L55.9135 11.7622C56.9701 8.82546 57.8406 6.11397 58.5542 3.59301H58.6465C58.6167 6.2734 58.802 9.87843 58.9589 12.8777L59.4856 22.3228ZM83.1176 22.3228H85.7591L84.4541 0.817496H81.0064L77.2783 11.2189C76.3451 13.9317 75.6016 16.2932 75.0723 18.4616H74.9795C74.4519 16.2276 73.7367 13.8676 72.867 11.2189L69.2936 0.817496H65.8459L64.3868 22.3223H66.9647L67.5252 13.1022C67.7113 9.87869 67.8661 6.27366 67.9286 3.59301H67.9905C68.5805 6.14586 69.4199 8.92138 70.4145 11.9533L73.8 22.1926H75.8479L79.5449 11.762C80.6013 8.8252 81.4704 6.11372 82.1849 3.59276H82.2792C82.2473 6.27314 82.4348 9.87818 82.5903 12.8774L83.1176 22.3228ZM170.811 3.32161H171.089C171.151 3.31083 171.215 3.31326 171.277 3.32876C171.338 3.34425 171.396 3.37246 171.445 3.41156C171.495 3.45066 171.536 3.49977 171.566 3.55572C171.595 3.61168 171.613 3.67322 171.617 3.73637C171.652 3.95283 171.719 4.16268 171.818 4.35851H172.455C172.352 4.15976 172.289 3.9429 172.269 3.72003C172.191 3.37086 172.051 3.16322 171.804 3.08338V3.05227C171.947 3.0209 172.077 2.94294 172.172 2.83046C172.267 2.71799 172.323 2.57728 172.33 2.43013C172.332 2.32486 172.311 2.22043 172.268 2.1242C172.225 2.02796 172.162 1.94224 172.082 1.87306C171.818 1.70877 171.508 1.6359 171.198 1.66568C170.87 1.66344 170.542 1.6955 170.221 1.76133V4.35773H170.811V3.32083V3.32161ZM170.825 2.14317C170.932 2.11987 171.042 2.10917 171.152 2.11129C171.524 2.11129 171.693 2.27123 171.693 2.50946C171.693 2.78164 171.43 2.89207 171.105 2.89207H170.825V2.14317ZM171.212 0.390812C170.868 0.388792 170.527 0.454913 170.209 0.585361C169.891 0.715809 169.601 0.908001 169.358 1.15085C169.114 1.3937 168.921 1.6824 168.789 2.00029C168.658 2.31819 168.59 2.65898 168.591 3.00302C168.588 3.3485 168.653 3.69125 168.783 4.01143C168.912 4.33161 169.104 4.62288 169.348 4.8684C169.591 5.11392 169.88 5.30882 170.199 5.44183C170.518 5.57485 170.86 5.64333 171.205 5.64333C171.551 5.64333 171.893 5.57485 172.212 5.44183C172.531 5.30882 172.82 5.11392 173.063 4.8684C173.306 4.62288 173.498 4.33161 173.628 4.01143C173.758 3.69125 173.823 3.3485 173.82 3.00302C173.824 2.66071 173.76 2.32097 173.631 2.00361C173.503 1.68625 173.313 1.3976 173.072 1.15448C172.831 0.911363 172.544 0.718636 172.228 0.587527C171.911 0.456418 171.572 0.389548 171.23 0.390812H171.212ZM171.212 0.915742C172.346 0.915742 173.168 1.85595 173.168 3.00302C173.168 4.1659 172.346 5.10481 171.23 5.08926C170.961 5.08784 170.695 5.03216 170.448 4.92555C170.201 4.81895 169.978 4.66361 169.792 4.46883C169.607 4.27406 169.462 4.04385 169.368 3.79199C169.273 3.54012 169.231 3.27178 169.242 3.00302C169.242 1.85595 170.081 0.915742 171.198 0.915742H171.212ZM134.108 1.17497C130.664 -0.0897906 126.103 1.61124 125.63 5.06023C125.18 8.3586 127.168 10.2206 131.357 11.0483C135.703 11.9053 135.205 15.6954 134.112 16.9706C132.361 19.0158 129.675 19.2144 127.539 18.4782C123.225 17.3599 119.98 13.2261 120.82 8.03146C121.683 2.74794 126.023 0.141179 130.496 0.151288C128.891 -0.030939 127.265 0.128169 125.725 0.618183C124.185 1.1082 122.767 1.91806 121.562 2.99468C120.357 4.0713 119.393 5.39038 118.734 6.86546C118.075 8.34054 117.734 9.93831 117.736 11.5541C117.731 13.6144 118.28 15.6381 119.325 17.4135C120.371 19.1889 121.874 20.6506 123.678 21.6457C125.482 22.6408 127.521 23.1327 129.58 23.0699C131.639 23.0071 133.644 22.3919 135.384 21.2887C137.124 20.1855 138.536 18.6348 139.471 16.7991C140.406 14.9633 140.831 12.9098 140.701 10.8536C140.57 8.79744 139.89 6.81411 138.73 5.1112C137.57 3.4083 135.974 2.04843 134.108 1.17393L134.108 1.17497ZM9.91691 40.0587V46.2057C9.91734 46.2236 9.91413 46.2414 9.90746 46.258C9.90079 46.2746 9.89082 46.2897 9.87814 46.3024C9.86546 46.315 9.85034 46.325 9.8337 46.3316C9.81706 46.3383 9.79925 46.3414 9.78134 46.341H9.29789C9.27998 46.3414 9.26216 46.3383 9.24552 46.3316C9.22888 46.325 9.21376 46.315 9.20109 46.3024C9.18841 46.2897 9.17843 46.2746 9.17177 46.258C9.1651 46.2414 9.16188 46.2236 9.16231 46.2057V40.0397C9.16231 37.0242 8.19462 36.618 6.1426 36.618H2.75505V46.2057C2.75548 46.2236 2.75227 46.2414 2.7456 46.258C2.73893 46.2746 2.72896 46.2897 2.71628 46.3024C2.7036 46.315 2.68848 46.325 2.67184 46.3316C2.6552 46.3383 2.63739 46.3414 2.61948 46.341H2.13577C2.11747 46.3431 2.09891 46.3411 2.0815 46.3351C2.06409 46.3291 2.04827 46.3192 2.03522 46.3061C2.02218 46.2931 2.01225 46.2773 2.00619 46.2599C2.00012 46.2425 1.99807 46.224 2.00019 46.2057V36.2317C2.00185 36.191 2.01877 36.1524 2.04759 36.1236C2.0764 36.0948 2.11501 36.0779 2.15573 36.0762C3.4556 35.966 4.76021 35.9213 6.06458 35.9424C8.69778 35.9424 9.91743 36.4637 9.91743 40.0589L9.91691 40.0587ZM20.7367 41.1803C20.7367 45.3362 19.9429 46.4379 16.691 46.4379C13.4196 46.4379 12.6453 45.3362 12.6453 41.1803C12.6453 37.0244 13.4206 35.9424 16.6928 35.9424C19.944 35.9424 20.7367 37.0242 20.7367 41.1803ZM13.3809 41.1803C13.3809 44.8141 14.0005 45.7614 16.691 45.7614C19.3623 45.7614 19.9818 44.8141 19.9818 41.1803C19.9818 37.5465 19.3623 36.618 16.691 36.618C14.0015 36.6182 13.382 37.5463 13.382 41.1803H13.3809ZM36.0092 36.0578C36.0288 36.055 36.0489 36.0576 36.0672 36.0652C36.0855 36.0729 36.1014 36.0853 36.1133 36.1012C36.1252 36.1171 36.1325 36.1359 36.1347 36.1556C36.1368 36.1753 36.1335 36.1953 36.1253 36.2133L34.3444 43.926C33.8024 46.2456 33.6476 46.439 32.68 46.439C31.6539 46.439 31.5375 46.2456 30.9571 43.926L29.3697 37.5279L27.8016 43.926C27.2209 46.2456 27.1051 46.439 26.0791 46.439C25.1111 46.439 24.9564 46.2456 24.4143 43.926L22.6334 36.2133C22.6253 36.1953 22.6221 36.1754 22.6243 36.1557C22.6264 36.136 22.6338 36.1172 22.6457 36.1013C22.6575 36.0855 22.6734 36.0731 22.6917 36.0654C22.71 36.0577 22.7299 36.0551 22.7496 36.0578H23.2538C23.2863 36.0586 23.3175 36.0706 23.3422 36.0918C23.3669 36.1129 23.3835 36.1419 23.3893 36.1739L25.1313 43.7897C25.5378 45.4713 25.6734 45.7033 26.0604 45.7033C26.5444 45.7033 26.6219 45.5874 27.0864 43.7897L28.7898 36.8889C28.8478 36.6377 28.9059 36.5796 29.0415 36.5796H29.7188C29.8544 36.5796 29.9125 36.6377 29.9705 36.8889L31.6739 43.7897C32.1384 45.5874 32.2159 45.7033 32.6999 45.7033C33.0869 45.7033 33.2225 45.47 33.629 43.7897L35.3712 36.1739C35.3786 36.139 35.3985 36.1079 35.4271 36.0865C35.4557 36.0652 35.4911 36.0549 35.5268 36.0578H36.0107H36.0092ZM56.7598 40.0589V46.2059C56.7603 46.2238 56.7571 46.2416 56.7504 46.2583C56.7437 46.2749 56.7338 46.29 56.7211 46.3027C56.7084 46.3153 56.6933 46.3252 56.6766 46.3319C56.66 46.3385 56.6422 46.3417 56.6243 46.3412H56.1416C56.1247 46.3412 56.1079 46.3376 56.0925 46.3305C56.0771 46.3235 56.0634 46.3131 56.0523 46.3003C56.0413 46.2874 56.0331 46.2724 56.0285 46.2561C56.0238 46.2398 56.0227 46.2227 56.0252 46.2059V40.0397C56.0252 37.0242 55.0381 36.618 52.9863 36.618C51.9264 36.6064 50.8685 36.7102 49.831 36.9275C50.2181 37.5071 50.4117 38.3771 50.4117 39.7689V46.2057C50.4159 46.2226 50.416 46.2403 50.412 46.2573C50.4079 46.2743 50.3999 46.29 50.3885 46.3033C50.3772 46.3165 50.3628 46.3269 50.3466 46.3334C50.3305 46.34 50.3129 46.3426 50.2956 46.341H49.7924C49.7755 46.341 49.7587 46.3373 49.7433 46.3303C49.7279 46.3232 49.7142 46.3129 49.7032 46.3C49.6921 46.2872 49.684 46.2721 49.6793 46.2558C49.6746 46.2395 49.6735 46.2224 49.676 46.2057V39.7497C49.676 36.7344 48.6889 36.6182 46.6371 36.6182H43.8116V46.2059C43.812 46.2238 43.8088 46.2416 43.8021 46.2583C43.7955 46.2749 43.7855 46.29 43.7728 46.3027C43.7601 46.3153 43.745 46.3252 43.7284 46.3319C43.7117 46.3385 43.6939 46.3417 43.676 46.3412H43.192C43.1737 46.3434 43.1552 46.3414 43.1378 46.3354C43.1203 46.3293 43.1045 46.3194 43.0915 46.3064C43.0784 46.2934 43.0685 46.2776 43.0625 46.2602C43.0564 46.2428 43.0543 46.2242 43.0565 46.2059V36.2317C43.0582 36.191 43.0751 36.1525 43.1039 36.1237C43.1327 36.0949 43.1713 36.0779 43.212 36.0762C44.3313 35.9737 45.4552 35.9291 46.5791 35.9424C47.7212 35.9424 48.6694 36.0391 49.3084 36.4259C50.4882 36.1048 51.7055 35.9422 52.9282 35.9424C55.5412 35.9424 56.7609 36.4637 56.7609 40.0589H56.7598ZM67.2898 40.7163V41.2962C67.2898 41.4701 67.2704 41.5474 66.9992 41.5474H60.2641C60.3029 44.8722 60.845 45.7614 63.458 45.7614H66.2648C66.2806 45.7593 66.2966 45.7609 66.3116 45.766C66.3266 45.7712 66.3402 45.7796 66.3515 45.7909C66.3627 45.8021 66.3712 45.8157 66.3763 45.8307C66.3814 45.8458 66.383 45.8618 66.381 45.8775V46.2254C66.3844 46.2396 66.3844 46.2545 66.3811 46.2688C66.3777 46.2831 66.3711 46.2964 66.3616 46.3077C66.3522 46.3189 66.3403 46.3278 66.3268 46.3337C66.3133 46.3395 66.2987 46.3421 66.284 46.3412C65.5486 46.4379 63.9806 46.4379 63.4585 46.4379C60.1484 46.4379 59.5097 45.3554 59.5097 41.1609C59.5097 36.9664 60.1479 35.9424 63.4569 35.9424C66.5158 35.9424 67.252 36.8889 67.2909 40.7163H67.2898ZM60.263 40.8516H66.5541C66.5155 37.3334 65.9349 36.6182 63.4569 36.6182C60.8255 36.6182 60.2835 37.469 60.2641 40.8516H60.263ZM77.2974 40.7163V41.2962C77.2974 41.4701 77.278 41.5474 77.0069 41.5474H70.2717C70.3103 44.8722 70.8523 45.7614 73.4656 45.7614H76.2725C76.2882 45.7593 76.3042 45.7609 76.3192 45.766C76.3342 45.7712 76.3479 45.7796 76.3591 45.7909C76.3703 45.8021 76.3788 45.8157 76.3839 45.8307C76.389 45.8458 76.3906 45.8618 76.3886 45.8775V46.2254C76.392 46.2396 76.3921 46.2545 76.3887 46.2688C76.3853 46.2831 76.3787 46.2964 76.3693 46.3077C76.3598 46.3189 76.3479 46.3278 76.3344 46.3337C76.321 46.3395 76.3063 46.3421 76.2917 46.3412C75.5562 46.4379 73.9882 46.4379 73.4661 46.4379C70.1561 46.4379 69.5173 45.3554 69.5173 41.1609C69.5173 36.9664 70.1555 35.9424 73.4656 35.9424C76.5242 35.9424 77.2596 36.8889 77.2995 40.7163H77.2974ZM70.2706 40.8516H76.5618C76.5231 37.3334 75.9422 36.6182 73.4645 36.6182C70.8329 36.6182 70.2911 37.469 70.2717 40.8516H70.2706ZM80.8211 33.1008C80.8988 33.0816 80.9567 33.1008 80.9567 33.2167V36.0583H83.2601C83.278 36.0579 83.2959 36.061 83.3125 36.0677C83.3291 36.0743 83.3443 36.0842 83.3569 36.0969C83.3696 36.1096 83.3796 36.1247 83.3863 36.1413C83.3929 36.1579 83.3961 36.1757 83.3957 36.1936V36.5801C83.3961 36.598 83.3929 36.6158 83.3863 36.6325C83.3796 36.6491 83.3696 36.6642 83.3569 36.6769C83.3443 36.6895 83.3291 36.6995 83.3125 36.7061C83.2959 36.7127 83.278 36.7159 83.2601 36.7154H80.9567V44.6218C80.9567 45.5112 81.2275 45.7624 82.1955 45.7624H83.4538C83.4705 45.7598 83.4876 45.7609 83.5039 45.7655C83.5202 45.7702 83.5353 45.7783 83.5481 45.7893C83.561 45.8004 83.5713 45.8141 83.5784 45.8294C83.5854 45.8448 83.5891 45.8616 83.5891 45.8785V46.2264C83.5919 46.2432 83.5911 46.2604 83.5865 46.2768C83.582 46.2932 83.5739 46.3084 83.5628 46.3213C83.5517 46.3342 83.5379 46.3446 83.5224 46.3515C83.5069 46.3585 83.49 46.362 83.473 46.3617C83.0617 46.4102 82.6482 46.4361 82.2341 46.4395C80.8211 46.4395 80.2015 46.1108 80.2015 44.6998V36.7157H79.061C79.044 36.7157 79.0273 36.7121 79.0118 36.705C78.9964 36.6979 78.9827 36.6876 78.9717 36.6748C78.9606 36.6619 78.9525 36.6468 78.9478 36.6305C78.9431 36.6143 78.942 36.5971 78.9446 36.5804V36.1939C78.942 36.1771 78.9431 36.16 78.9478 36.1437C78.9525 36.1274 78.9606 36.1124 78.9717 36.0995C78.9827 36.0867 78.9964 36.0764 79.0118 36.0693C79.0273 36.0622 79.044 36.0586 79.061 36.0586H80.2015V33.3523C80.1995 33.319 80.2105 33.2863 80.2323 33.261C80.254 33.2357 80.2847 33.2199 80.3179 33.2169L80.8211 33.1008ZM91.3316 36.0197C91.4286 36.0389 91.4286 36.0778 91.4286 36.155V36.4837C91.4327 36.5006 91.4328 36.5183 91.4287 36.5352C91.4247 36.5522 91.4166 36.5679 91.4053 36.5811C91.3939 36.5943 91.3796 36.6047 91.3634 36.6112C91.3473 36.6177 91.3298 36.6203 91.3124 36.6188H87.9638C87.2086 36.6188 85.7762 36.7349 85.7762 38.0492V38.4745C85.7762 39.3251 85.9698 39.8083 87.112 40.2915L90.2283 41.606C91.5641 42.1859 91.8545 42.9202 91.8545 43.9255V44.2348C91.8545 45.9552 90.964 46.4382 88.2346 46.4382C87.6151 46.4382 85.6795 46.4187 85.0794 46.3415C85.0639 46.3425 85.0484 46.3402 85.0339 46.3347C85.0193 46.3292 85.0061 46.3207 84.9952 46.3098C84.9842 46.2988 84.9756 46.2856 84.9701 46.2711C84.9646 46.2566 84.9623 46.2411 84.9632 46.2256V45.8777C84.9633 45.8608 84.9669 45.844 84.9741 45.8287C84.9811 45.8133 84.9915 45.7996 85.0044 45.7886C85.0172 45.7775 85.0323 45.7694 85.0486 45.7648C85.0649 45.7601 85.0821 45.759 85.0988 45.7616H88.2541C90.4025 45.7616 91.1188 45.3943 91.1188 44.2345V43.9058C91.1188 43.1712 90.8671 42.6299 89.9004 42.224L86.7638 40.9094C85.3122 40.2909 85.041 39.5565 85.041 38.4546V38.0295C85.041 36.0578 87.0347 35.9417 88.0999 35.9417C88.5636 35.9424 90.5768 35.9424 91.3316 36.0202V36.0197ZM107.127 40.0594V46.2064C107.127 46.2243 107.124 46.2422 107.117 46.2588C107.111 46.2754 107.101 46.2905 107.088 46.3032C107.075 46.3158 107.06 46.3258 107.044 46.3324C107.027 46.339 107.009 46.3422 106.991 46.3418H106.507C106.49 46.3422 106.472 46.339 106.455 46.3324C106.438 46.3258 106.423 46.3158 106.411 46.3032C106.398 46.2905 106.388 46.2754 106.381 46.2588C106.375 46.2421 106.372 46.2243 106.372 46.2064V40.0397C106.372 37.0242 105.404 36.618 103.352 36.618H99.9648V46.2057C99.9653 46.2236 99.962 46.2414 99.9554 46.258C99.9487 46.2746 99.9387 46.2897 99.9261 46.3024C99.9134 46.315 99.8983 46.325 99.8816 46.3316C99.865 46.3383 99.8472 46.3414 99.8293 46.341H99.3453C99.327 46.3431 99.3085 46.341 99.2911 46.335C99.2737 46.3289 99.2579 46.319 99.2449 46.306C99.2319 46.293 99.222 46.2772 99.216 46.2598C99.2099 46.2425 99.2079 46.2239 99.21 46.2057V36.2317C99.2116 36.191 99.2285 36.1524 99.2574 36.1236C99.2862 36.0948 99.3248 36.0779 99.3655 36.0762C100.665 35.966 101.97 35.9213 103.274 35.9424C105.907 35.9424 107.127 36.4637 107.127 40.0589V40.0594ZM117.657 40.7168V41.2967C117.657 41.4707 117.637 41.5479 117.367 41.5479H110.63C110.669 44.8727 111.211 45.7619 113.824 45.7619H116.631C116.647 45.7598 116.663 45.7614 116.678 45.7666C116.693 45.7717 116.707 45.7802 116.718 45.7914C116.729 45.8026 116.737 45.8162 116.743 45.8313C116.748 45.8463 116.749 45.8623 116.747 45.878V46.2259C116.751 46.2401 116.751 46.255 116.747 46.2693C116.744 46.2835 116.737 46.2968 116.728 46.3081C116.719 46.3193 116.707 46.3283 116.693 46.3341C116.68 46.3399 116.665 46.3426 116.651 46.3418C115.915 46.4384 114.347 46.4384 113.825 46.4384C110.515 46.4384 109.876 45.3559 109.876 41.1614C109.876 36.9669 110.514 35.9424 113.824 35.9424C116.883 35.9424 117.618 36.8889 117.657 40.7163V40.7168ZM110.63 40.8522H116.921C116.883 37.334 116.302 36.6188 113.824 36.6188C111.192 36.6182 110.65 37.469 110.63 40.8516V40.8522ZM126.793 36.0583C126.813 36.0543 126.833 36.0568 126.851 36.0654C126.869 36.0741 126.883 36.0884 126.892 36.1062C126.901 36.1239 126.904 36.1441 126.9 36.1636C126.896 36.183 126.886 36.2007 126.871 36.2138L123.522 40.8724L127.356 46.1867C127.395 46.2645 127.375 46.3423 127.278 46.3423H126.62C126.592 46.3459 126.564 46.3402 126.539 46.3262C126.515 46.3122 126.495 46.2905 126.484 46.2645L123.077 41.4898L119.67 46.264C119.654 46.2908 119.631 46.3126 119.604 46.3264C119.576 46.3402 119.545 46.3456 119.514 46.3418H118.875C118.856 46.3458 118.836 46.3433 118.818 46.3346C118.8 46.326 118.785 46.3117 118.777 46.2939C118.768 46.2762 118.765 46.256 118.769 46.2365C118.772 46.217 118.783 46.1993 118.798 46.1862L122.63 40.8703L119.281 36.2118C119.223 36.134 119.243 36.0562 119.34 36.0562H119.998C120.028 36.0567 120.057 36.064 120.084 36.0774C120.111 36.0909 120.135 36.1102 120.153 36.134L123.076 40.2321L125.999 36.134C126.018 36.1102 126.041 36.0909 126.068 36.0774C126.095 36.064 126.125 36.0567 126.155 36.0562H126.793V36.0583ZM130.316 33.1008C130.394 33.0816 130.452 33.1008 130.452 33.2167V36.0583H132.755C132.773 36.0578 132.791 36.061 132.808 36.0677C132.824 36.0743 132.84 36.0843 132.852 36.0969C132.865 36.1096 132.875 36.1247 132.881 36.1413C132.888 36.1579 132.891 36.1757 132.891 36.1936V36.5801C132.891 36.598 132.888 36.6158 132.881 36.6324C132.875 36.649 132.865 36.6641 132.852 36.6768C132.839 36.6894 132.824 36.6994 132.808 36.706C132.791 36.7127 132.773 36.7159 132.755 36.7154H130.452V44.6218C130.452 45.5112 130.723 45.7624 131.691 45.7624H132.949C132.966 45.7598 132.983 45.7609 132.999 45.7655C133.016 45.7702 133.031 45.7783 133.043 45.7893C133.056 45.8004 133.067 45.8141 133.074 45.8294C133.081 45.8448 133.084 45.8616 133.084 45.8785V46.2264C133.087 46.2432 133.086 46.2604 133.082 46.2768C133.077 46.2932 133.069 46.3084 133.058 46.3213C133.047 46.3342 133.033 46.3446 133.018 46.3515C133.002 46.3585 132.986 46.362 132.969 46.3617C132.557 46.4102 132.144 46.4361 131.729 46.4395C130.316 46.4395 129.697 46.1108 129.697 44.6998V36.7157H128.555C128.538 36.7157 128.521 36.712 128.506 36.7049C128.49 36.6978 128.477 36.6875 128.466 36.6747C128.455 36.6618 128.447 36.6467 128.442 36.6305C128.437 36.6142 128.436 36.5971 128.439 36.5804V36.1939C128.436 36.1772 128.437 36.1601 128.442 36.1438C128.447 36.1275 128.455 36.1124 128.466 36.0995C128.477 36.0867 128.49 36.0764 128.506 36.0693C128.521 36.0622 128.538 36.0586 128.555 36.0586H129.697V33.3523C129.695 33.3191 129.706 33.2864 129.728 33.2611C129.749 33.2358 129.78 33.22 129.813 33.2169L130.316 33.1008Z" fill="black"/>
</g>
<defs>
<clipPath id="clip0_84_1056">
<rect width="173.64" height="46.3608" fill="white" transform="translate(0.180176 0.0795898)"/>
</clipPath>
</defs>
</svg>
