<svg width="147" height="146" viewBox="0 0 147 146" fill="none" xmlns="http://www.w3.org/2000/svg">
<path d="M69.2046 0.158917C67.6606 0.146544 66.3301 1.24595 66.0561 2.75542L64.3129 12.2294C62.8187 12.7119 61.3761 13.2935 59.9566 13.9863L52.1263 8.37088C50.8687 7.46767 49.1273 7.5914 48.0315 8.69257L41.2223 15.3473C40.1265 16.4361 39.9646 18.1418 40.8487 19.4038L46.3506 27.3206C45.6284 28.7187 45.0182 30.1522 44.5326 31.6246L34.9858 33.1588C33.4542 33.3939 32.3229 34.7054 32.3105 36.2626L32.2482 45.7631C32.2358 47.2955 33.3422 48.6194 34.8613 48.8916L44.4348 50.6238C44.9062 52.0961 45.5038 53.5172 46.2011 54.9154L40.5125 62.7332C39.6036 63.981 39.7281 65.7132 40.8238 66.8144L47.5459 73.5681C48.6292 74.6569 50.3457 74.8178 51.6158 73.9393L59.6827 68.4228C61.0773 69.1281 62.5074 69.7078 63.9767 70.1904L65.6203 79.7899C65.8818 81.3099 67.1892 82.4235 68.7439 82.4359L78.2925 82.4853C79.8596 82.4977 81.192 81.3718 81.4534 79.8517L83.0846 70.2646C84.5414 69.7944 85.9591 69.2271 87.3413 68.5342L95.3459 74.1868C96.6142 75.0758 98.3325 74.9291 99.4282 73.8527L106.237 67.1856C107.346 66.0968 107.495 64.3646 106.586 63.092L100.91 55.1752C101.62 53.8018 102.216 52.4037 102.701 50.9702L112.399 49.337C113.917 49.0772 115.037 47.7657 115.05 46.2209L115.099 36.7327C115.112 35.1861 113.991 33.864 112.449 33.6042L102.838 31.9834C102.365 30.5234 101.782 29.1023 101.097 27.7042L106.748 19.775C107.657 18.5254 107.52 16.8197 106.424 15.7185L99.7022 8.96477C98.6064 7.87597 96.8632 7.71512 95.5949 8.61833L87.7024 14.1843C86.3078 13.4791 84.8883 12.8852 83.4332 12.4026L81.8892 2.87915C81.6402 1.34493 80.3203 0.220781 78.7532 0.208408L69.2046 0.158917ZM71.8443 6.5026L76.0263 6.52734L77.4084 15.0875C77.6077 16.3372 78.5415 17.3393 79.76 17.6487C82.1009 18.2408 84.3547 19.1935 86.4697 20.4679C87.553 21.136 88.9351 21.0865 89.9686 20.3565L97.0749 15.3473L100.013 18.2903L94.8976 25.4152C94.1754 26.4421 94.1132 27.7908 94.7607 28.8672C96.0183 30.9812 96.9379 33.233 97.4858 35.5449C97.7846 36.7822 98.7932 37.7225 100.063 37.9453L108.714 39.3929L108.689 43.536L99.9512 44.9959C98.706 45.2063 97.6975 46.1342 97.3862 47.345C96.8009 49.6463 95.8689 51.8734 94.5863 53.9503C93.9264 55.0391 93.9762 56.4125 94.7233 57.4394L99.8142 64.5749L96.8632 67.4825L89.6324 62.3867C88.5989 61.6567 87.2417 61.6072 86.1584 62.2506C84.0434 63.5003 81.8021 64.3893 79.4736 64.9585C78.2302 65.2554 77.2964 66.2576 77.0847 67.5073L75.6154 76.1399L71.4583 76.1028L69.9891 67.4454C69.7774 66.2081 68.8435 65.2059 67.5983 64.909C65.2966 64.3398 63.0304 63.4013 60.9154 62.1393C59.8445 61.4959 58.4873 61.533 57.4538 62.2506L50.1981 67.2227L47.2595 64.2656L52.3754 57.2414C53.1225 56.2145 53.1847 54.8411 52.5248 53.7523C51.2672 51.6383 50.3457 49.3865 49.7747 47.0604C49.4759 45.8497 48.4922 44.9217 47.2471 44.6866L38.6341 43.14L38.6715 38.9846L47.2471 37.6112C48.5047 37.4132 49.5257 36.4853 49.837 35.2604C50.4329 32.9237 51.3668 30.6719 52.6617 28.5703C53.3217 27.5062 53.2843 26.1452 52.5621 25.1183L47.6206 17.9933L50.5823 15.0751L57.6282 20.1214C58.6492 20.8638 60.0189 20.9257 61.1146 20.2947C63.2545 19.0203 65.5332 18.1171 67.8847 17.5497C69.1174 17.2651 70.0513 16.2753 70.2754 15.0504L71.8443 6.5026ZM73.6356 25.6008C69.5408 25.5761 65.4335 27.0979 62.3082 30.1769C56.0593 36.3121 56.0094 46.417 62.1837 52.6388C68.3579 58.8481 78.5415 58.8976 84.7887 52.7625C91.0376 46.6274 91.0874 36.51 84.9132 30.3007C81.827 27.1969 77.7322 25.6255 73.6356 25.6008ZM73.6107 31.8968C76.0637 31.9091 78.5042 32.8618 80.3826 34.7549C84.143 38.5268 84.1056 44.5258 80.3079 48.2482C76.5119 51.9848 70.4747 51.96 66.7161 48.1863C62.9557 44.4021 62.993 38.403 66.7908 34.6806C68.6941 32.8123 71.1471 31.8844 73.6107 31.8968ZM39.9646 82.4853C31.6505 82.4853 27.8154 84.465 23.6833 86.0487C23.6833 86.0611 23.6833 86.0611 23.6833 86.0611C15.7534 89.1277 2.18644 95.4856 2.18644 95.4856C0.592634 96.2279 -0.0922044 98.1192 0.654893 99.7029C1.41444 101.287 3.31954 101.967 4.91157 101.225C4.91157 101.225 18.5674 94.8298 25.9868 91.9611C30.5672 90.1918 32.5595 88.8184 39.9646 88.8184C56.3083 88.8184 55.6501 95.8691 62.5448 99.9009C62.6444 99.9627 62.7564 100.025 62.8685 100.062C71.421 103.871 80.6067 104.65 88.0137 104.65C91.2867 104.65 93.3536 105.405 94.4743 106.246C95.5825 107.1 95.9809 107.978 95.9809 109.4C95.9809 111.07 95.5576 111.862 94.4494 112.666C93.3536 113.458 91.2369 114.151 88.0137 114.151H71.284C64.2631 114.151 52.1761 111.082 52.1761 111.082C51.0804 110.785 49.8993 111.107 49.0899 111.911C48.2806 112.715 47.9693 113.891 48.2681 114.98C48.5794 116.079 49.451 116.933 50.5574 117.217C50.5574 117.217 62.5448 120.484 71.284 120.484H88.0137C91.2618 120.484 94.0883 119.952 96.4523 118.789C96.7636 118.702 97.0624 118.566 97.3239 118.38L127.548 98.676C132.091 96.0671 135.191 95.3371 137.007 95.3618C138.825 95.3989 139.448 95.9434 139.996 96.6362C140.805 97.6755 140.855 98.0697 140.332 99.2699C139.796 100.482 138.24 102.351 135.44 104.279C135.44 104.279 135.44 104.279 135.428 104.279C131.966 106.679 93.2665 131.739 88.7981 134.262C85.4237 136.167 82.7484 138.17 79.6978 139.023C76.6489 139.865 73.0522 139.865 67.1021 137.046C63.13 135.153 46.226 126.545 40.7491 123.786C37.7002 122.251 35.0978 121.385 32.4474 121.534C29.7828 121.682 27.529 122.808 25.2024 124.268C25.1899 124.268 25.1775 124.28 25.1775 124.293L17.2849 129.302C16.2888 129.896 15.7036 130.985 15.7409 132.135C15.7783 133.284 16.4507 134.324 17.4841 134.843C18.5301 135.363 19.7628 135.289 20.7216 134.633L28.575 129.636C30.6046 128.374 31.7501 127.916 32.7961 127.854C33.8402 127.793 35.2722 128.127 37.8746 129.438C43.3017 132.173 59.9442 140.657 64.3627 142.748C71.2965 146.049 76.9104 146.359 81.4036 145.121C85.8969 143.872 89.097 141.374 91.9466 139.766C98.0959 136.291 134.631 112.542 139.074 109.474C142.447 107.137 144.925 104.7 146.182 101.782C147.44 98.8615 147.029 95.3 145.024 92.7512C145.024 92.7512 145.024 92.7512 145.024 92.7388C143.443 90.7362 140.643 89.103 137.119 89.0288C135.116 88.9916 132.888 89.4494 130.411 90.3526C129.951 89.7464 129.253 88.9545 128.295 88.2617C126.439 86.8883 123.49 85.6528 119.481 85.6528C117.428 85.6528 115.747 86.1229 114.402 86.6779C112.486 84.8609 109.087 82.5472 104.146 82.5472C100.138 82.5472 96.3776 83.8835 93.7645 85.4177C93.2789 85.7023 92.1085 86.4323 90.118 87.6678C88.1257 88.905 85.5233 90.5011 82.9601 92.0972C78.8653 94.6318 76.3251 96.2156 74.8559 97.1311C71.7323 96.5125 68.6069 95.634 65.6577 94.3473C63.1424 92.7388 58.3005 82.4853 39.9646 82.4853ZM104.146 88.8803C106.163 88.8803 107.607 89.3876 108.626 89.9815L93.889 99.0595C92.1334 98.5646 90.1678 98.3171 88.0137 98.3171C87.0922 98.3171 86.0837 98.2553 85.1249 98.2182C85.7226 97.8487 85.7226 97.8487 86.3327 97.4776C88.8977 95.8815 91.4859 94.273 93.4906 93.0358C95.4829 91.8126 97.1122 90.8104 97.0002 90.8723C98.5068 89.9815 101.782 88.8803 104.146 88.8803ZM119.481 91.9858C122.071 91.9858 123.465 92.6398 124.312 93.2213C124.262 93.2461 124.225 93.2708 124.175 93.308L102.153 107.657C101.856 105.887 101.122 104.192 99.9512 102.784L115.349 93.2956L115.361 93.2708C115.485 93.209 118.15 91.9858 119.481 91.9858Z" fill="#B18B8A"/>
</svg>
