<svg width="141" height="134" viewBox="0 0 141 134" fill="none" xmlns="http://www.w3.org/2000/svg">
<g clip-path="url(#clip0_66_1394)">
<path d="M31.2874 77.0306H33.6915V88.5782C33.6915 88.879 33.7088 89.1798 33.74 89.4807C33.7712 89.7815 33.8196 90.0791 33.882 90.3751C33.9461 90.6694 34.024 90.9621 34.1176 91.2516C34.2111 91.5394 34.3185 91.8224 34.4414 92.1021C34.5644 92.3802 34.703 92.6517 34.8537 92.9184C35.0061 93.1835 35.1706 93.4421 35.349 93.6925C35.5274 93.9446 35.7197 94.1852 35.924 94.4194C36.1267 94.652 36.3432 94.8747 36.5701 95.0878C36.797 95.3024 37.036 95.5041 37.2837 95.696C37.5314 95.8862 37.7894 96.0667 38.0562 96.2342C38.3246 96.4017 38.6 96.5562 38.8823 96.6993C39.1664 96.8408 39.4556 96.9693 39.7535 97.0847C40.0497 97.2018 40.3511 97.3026 40.6594 97.3904C40.9659 97.4783 41.2777 97.5514 41.5929 97.6116C41.9082 97.6701 42.2251 97.7141 42.5455 97.745C42.866 97.7742 43.1864 97.7889 43.5068 97.7905H43.7406V97.997C43.7406 98.2995 43.758 98.6003 43.7891 98.9012C43.822 99.2004 43.8688 99.498 43.9312 99.7939C43.9952 100.09 44.0732 100.383 44.1667 100.67C44.2602 100.96 44.3694 101.243 44.4923 101.523C44.6153 101.801 44.7521 102.074 44.9046 102.339C45.0552 102.606 45.2215 102.864 45.3999 103.115C45.5783 103.365 45.7688 103.607 45.9732 103.84C46.1776 104.074 46.3924 104.297 46.621 104.51C46.8479 104.723 47.0852 104.926 47.3346 105.116C47.5823 105.308 47.8403 105.489 48.1071 105.656C48.3755 105.824 48.6509 105.978 48.9332 106.121C49.2173 106.263 49.5065 106.391 49.8044 106.508C50.1006 106.624 50.4037 106.725 50.7103 106.813C51.0186 106.9 51.3303 106.974 51.6456 107.034C51.9608 107.092 52.2777 107.136 52.5982 107.167C52.9169 107.196 53.239 107.213 53.5594 107.213H77.6483V115.209C76.8499 115.444 76.0947 115.766 75.3794 116.173C74.6641 116.579 74.0111 117.061 73.4205 117.615C72.8299 118.17 72.3172 118.783 71.8824 119.453C71.4494 120.124 71.1065 120.833 70.8554 121.582H23.8415C23.6371 121.582 23.4345 121.601 23.2336 121.638C23.0327 121.676 22.8369 121.731 22.6481 121.804C22.4594 121.878 22.2792 121.969 22.1095 122.074C21.938 122.182 21.7804 122.304 21.6366 122.439C21.4912 122.575 21.363 122.723 21.2487 122.882C21.1344 123.042 21.0391 123.211 20.9594 123.388C20.8815 123.565 20.8226 123.749 20.7828 123.938C20.7429 124.127 20.7221 124.317 20.7221 124.509C20.7221 124.701 20.7429 124.891 20.7828 125.079C20.8226 125.268 20.8815 125.452 20.9594 125.629C21.0391 125.806 21.1344 125.975 21.2487 126.135C21.363 126.294 21.4912 126.442 21.6366 126.579C21.7804 126.714 21.938 126.836 22.1095 126.943C22.2792 127.049 22.4594 127.14 22.6481 127.213C22.8369 127.286 23.0327 127.341 23.2336 127.379C23.4345 127.416 23.6371 127.436 23.8415 127.436H70.8484C71.0095 127.93 71.2122 128.41 71.4564 128.875C71.6988 129.34 71.9794 129.784 72.2981 130.205C72.6168 130.628 72.9684 131.025 73.3547 131.394C73.7409 131.765 74.1548 132.103 74.5982 132.41C75.0434 132.719 75.5093 132.991 75.9994 133.23C76.4896 133.467 76.9954 133.667 77.5202 133.83C78.0432 133.991 78.5784 134.113 79.1223 134.196C79.6679 134.277 80.2152 134.318 80.7677 134.318C81.3185 134.318 81.8658 134.277 82.4114 134.196C82.9552 134.113 83.4904 133.991 84.0135 133.83C84.5383 133.667 85.044 133.467 85.5342 133.23C86.0244 132.991 86.4903 132.719 86.9354 132.41C87.3788 132.103 87.7927 131.765 88.179 131.394C88.5652 131.025 88.9168 130.628 89.2355 130.205C89.5542 129.784 89.8348 129.34 90.0773 128.875C90.3215 128.41 90.5241 127.93 90.6852 127.436H137.692C137.897 127.436 138.099 127.416 138.3 127.379C138.501 127.341 138.697 127.286 138.885 127.213C139.074 127.14 139.254 127.049 139.424 126.943C139.596 126.836 139.753 126.714 139.897 126.579C140.042 126.442 140.171 126.294 140.285 126.135C140.399 125.975 140.495 125.806 140.574 125.629C140.652 125.452 140.711 125.268 140.751 125.079C140.791 124.891 140.812 124.701 140.812 124.509C140.812 124.317 140.791 124.127 140.751 123.938C140.711 123.749 140.652 123.565 140.574 123.388C140.495 123.211 140.399 123.042 140.285 122.882C140.171 122.723 140.042 122.575 139.897 122.439C139.753 122.304 139.596 122.182 139.424 122.074C139.254 121.969 139.074 121.878 138.885 121.804C138.697 121.731 138.501 121.676 138.3 121.638C138.099 121.601 137.897 121.582 137.692 121.582H90.6817C90.4306 120.833 90.0877 120.124 89.6529 119.453C89.2182 118.783 88.7055 118.17 88.1132 117.615C87.5226 117.061 86.8696 116.581 86.1543 116.173C85.4389 115.766 84.6838 115.444 83.8853 115.209V107.198H105.463C105.785 107.198 106.105 107.183 106.426 107.152C106.746 107.123 107.063 107.079 107.378 107.021C107.694 106.961 108.005 106.887 108.314 106.8C108.622 106.713 108.923 106.611 109.221 106.495C109.517 106.38 109.808 106.252 110.092 106.108C110.377 105.967 110.652 105.812 110.919 105.643C111.187 105.476 111.445 105.297 111.693 105.105C111.942 104.915 112.18 104.712 112.406 104.498C112.635 104.285 112.85 104.061 113.054 103.828C113.259 103.594 113.451 103.354 113.629 103.102C113.808 102.851 113.974 102.593 114.125 102.326C114.277 102.061 114.414 101.788 114.537 101.51C114.662 101.23 114.769 100.947 114.862 100.657C114.956 100.37 115.034 100.077 115.098 99.7809C115.16 99.485 115.209 99.1874 115.24 98.8865C115.271 98.5857 115.289 98.2848 115.289 97.9824V76.1346C116.2 75.9183 117.097 75.6646 117.984 75.3736C118.87 75.0825 119.742 74.754 120.597 74.3881C121.451 74.0238 122.288 73.6238 123.105 73.188C123.921 72.7521 124.716 72.2838 125.487 71.7813C126.259 71.2772 127.006 70.7438 127.726 70.1779C128.447 69.6136 129.139 69.0184 129.803 68.394C130.466 67.7712 131.098 67.1207 131.701 66.4426C132.302 65.7661 132.87 65.0636 133.404 64.3383C133.939 63.6146 134.438 62.8682 134.9 62.1007C135.363 61.3331 135.787 60.5476 136.175 59.7459C136.563 58.9426 136.911 58.1246 137.221 57.292C137.531 56.4594 137.8 55.6154 138.028 54.7601C138.257 53.9047 138.444 53.0428 138.589 52.1712C138.735 51.3012 138.839 50.4247 138.901 49.5449C138.963 48.6651 138.982 47.7854 138.962 46.904C138.939 46.0226 138.875 45.1444 138.768 44.2679C138.662 43.3914 138.513 42.523 138.324 41.6595C138.134 40.796 137.903 39.9423 137.632 39.0983C137.361 38.2543 137.05 37.4233 136.698 36.6054C136.348 35.7874 135.958 34.9857 135.531 34.2002C135.103 33.4164 134.639 32.6505 134.138 31.9057C133.636 31.1593 133.101 30.4356 132.531 29.7347C131.961 29.0355 131.358 28.359 130.723 27.7101C130.087 27.0597 129.423 26.4385 128.729 25.8449C128.034 25.2514 127.312 24.6871 126.564 24.1553C125.816 23.6219 125.043 23.1211 124.246 22.6543C123.45 22.186 122.634 21.7534 121.796 21.355C120.957 20.955 120.104 20.5923 119.231 20.2671C118.358 19.9402 117.471 19.6508 116.57 19.3987C115.671 19.1467 114.76 18.9336 113.839 18.758C112.919 18.5824 111.991 18.4474 111.057 18.3498C110.124 18.2539 109.188 18.1953 108.248 18.1775C107.884 17.4831 107.494 16.8001 107.079 16.1317C106.665 15.4617 106.225 14.8064 105.762 14.1673C105.298 13.5266 104.812 12.9005 104.302 12.2923C103.791 11.6841 103.26 11.0922 102.705 10.5181C102.153 9.94409 101.578 9.38794 100.984 8.8513C100.388 8.31466 99.7748 7.79916 99.1409 7.30155C98.507 6.80556 97.8558 6.33072 97.1872 5.87701C96.5204 5.42331 95.8345 4.99074 95.1348 4.58257C94.4333 4.17277 93.7197 3.78737 92.9905 3.42473C92.2613 3.06209 91.5183 2.72384 90.7649 2.40999C90.0097 2.09614 89.2459 1.80668 88.47 1.54323C87.694 1.27817 86.9094 1.04074 86.1162 0.827714C85.3229 0.614684 84.5227 0.427673 83.7156 0.266681C82.9085 0.107315 82.0961 -0.027658 81.2786 -0.134986C80.4611 -0.242314 79.6419 -0.321997 78.8174 -0.377287C77.9947 -0.430951 77.1703 -0.45697 76.3458 -0.45697C75.5197 -0.45697 74.697 -0.430951 73.8725 -0.377287C73.0498 -0.321997 72.2306 -0.242314 71.4131 -0.134986C70.5956 -0.027658 69.7832 0.107315 68.9761 0.266681C68.169 0.427673 67.3688 0.614684 66.5755 0.827714C65.7823 1.04074 64.9977 1.27817 64.2217 1.54323C63.4458 1.80668 62.6802 2.09614 61.9268 2.40999C61.1717 2.72384 60.4303 3.06209 59.7012 3.42473C58.972 3.78737 58.2567 4.17277 57.5569 4.58257C56.8555 4.99074 56.1713 5.42331 55.5028 5.87701C54.8342 6.33072 54.183 6.80556 53.5508 7.30155C52.9169 7.79916 52.3037 8.31466 51.7079 8.8513C51.1138 9.38794 50.5388 9.94409 49.9846 10.5181C49.432 11.0922 48.9003 11.6841 48.3894 12.2923C47.8802 12.9005 47.3935 13.5266 46.9293 14.1673C46.4651 14.8064 46.0269 15.4617 45.6112 16.1317C45.1973 16.8001 44.8076 17.4831 44.4421 18.1775H31.2874C30.773 18.1775 30.2604 18.1888 29.7477 18.2132C29.235 18.2376 28.7241 18.2718 28.2131 18.3189C27.7022 18.3661 27.193 18.4263 26.6855 18.4962C26.178 18.5677 25.6722 18.6491 25.1682 18.7434C24.6642 18.8377 24.1637 18.9434 23.6666 19.0605C23.1695 19.1776 22.6741 19.306 22.1822 19.4459C21.6921 19.5857 21.2054 19.7353 20.7221 19.898C20.2389 20.0606 19.7591 20.2346 19.2846 20.4183C18.8117 20.6021 18.3424 20.7972 17.8782 21.0038C17.414 21.2103 16.955 21.4266 16.5029 21.6526C16.0509 21.8803 15.604 22.1177 15.1641 22.3649C14.7242 22.6121 14.2894 22.8706 13.8634 23.1373C13.4373 23.4056 13.0164 23.6821 12.6042 23.9699C12.192 24.2561 11.7884 24.5537 11.3918 24.8578C10.9951 25.1635 10.6054 25.479 10.2261 25.8026C9.84508 26.1262 9.47443 26.458 9.1107 26.7979C8.74698 27.1394 8.39365 27.4874 8.04898 27.8451C7.70431 28.2012 7.37003 28.5655 7.04441 28.9379C6.71879 29.3103 6.40183 29.6908 6.09699 30.0779C5.79043 30.4649 5.49598 30.8584 5.2102 31.2585C4.92615 31.6585 4.65076 32.0651 4.38749 32.4781C4.1225 32.8928 3.86962 33.3107 3.62887 33.7351C3.38639 34.1612 3.15603 34.5905 2.93606 35.0263C2.7161 35.4622 2.50826 35.9012 2.31254 36.3468C2.11682 36.7924 1.93149 37.2412 1.75829 37.6949C1.58509 38.1486 1.42401 38.6056 1.27506 39.0658C1.12611 39.5276 0.989278 39.9911 0.864573 40.4578C0.739867 40.9261 0.627286 41.3961 0.528561 41.8677C0.428104 42.3409 0.339771 42.8158 0.265295 43.2922C0.189086 43.7687 0.126733 44.2452 0.0765049 44.7249C0.0262765 45.2046 -0.0118279 45.6843 -0.0378081 46.1657C-0.0620564 46.647 -0.0741806 47.1284 -0.0741806 47.6097C-0.0741806 48.0911 -0.0620564 48.5724 -0.0378081 49.0538C-0.0118279 49.5351 0.0262765 50.0149 0.0765049 50.4946C0.126733 50.9743 0.189086 51.4524 0.265295 51.9289C0.339771 52.4054 0.428104 52.8802 0.528561 53.3518C0.627286 53.825 0.739867 54.295 0.864573 54.7617C0.989278 55.2284 1.12611 55.6935 1.27506 56.1537C1.42401 56.6155 1.58509 57.0725 1.75829 57.5262C1.93149 57.9783 2.11682 58.4287 2.31254 58.8727C2.50826 59.3183 2.7161 59.7589 2.93606 60.1948C3.15603 60.629 3.38639 61.0599 3.62887 61.4843C3.86962 61.9088 4.1225 62.3283 4.38749 62.7414C4.65076 63.1544 4.92615 63.561 5.2102 63.961C5.49598 64.3627 5.79043 64.7562 6.09699 65.1432C6.40183 65.5303 6.71879 65.9092 7.04441 66.2816C7.37003 66.654 7.70431 67.0182 8.04898 67.376C8.39365 67.7321 8.74698 68.0818 9.1107 68.4216C9.47443 68.7631 9.84508 69.0949 10.2261 69.4185C10.6054 69.7421 10.9951 70.0559 11.3918 70.3617C11.7884 70.6674 12.192 70.9633 12.6042 71.2496C13.0164 71.5374 13.4373 71.8138 13.8634 72.0822C14.2894 72.3505 14.7242 72.6074 15.1641 72.8546C15.604 73.1018 16.0509 73.3392 16.5029 73.5669C16.955 73.7945 17.414 74.0108 17.8782 74.2157C18.3424 74.4222 18.8117 74.6174 19.2846 74.8011C19.7591 74.9865 20.2389 75.1589 20.7221 75.3215C21.2054 75.4841 21.6921 75.6354 22.1822 75.7752C22.6741 75.9151 23.1695 76.0435 23.6666 76.1606C24.1637 76.2777 24.6642 76.3834 25.1682 76.4761C25.6722 76.5704 26.178 76.6534 26.6855 76.7233C27.193 76.7948 27.7022 76.8534 28.2131 76.9005C28.7241 76.9477 29.235 76.9835 29.7477 77.0062C30.2604 77.0306 30.773 77.042 31.2874 77.042V77.0306ZM80.7677 128.449C80.4923 128.449 80.2186 128.423 79.9484 128.372C79.68 128.322 79.4167 128.247 79.1621 128.148C78.9092 128.049 78.6668 127.929 78.4381 127.785C78.2095 127.641 77.9965 127.478 77.8025 127.296C77.6068 127.114 77.4336 126.915 77.2794 126.701C77.127 126.486 76.9971 126.26 76.8897 126.021C76.784 125.784 76.7044 125.538 76.649 125.284C76.5953 125.031 76.5675 124.775 76.5658 124.517V124.476C76.5658 124.218 76.5918 123.961 76.6455 123.707C76.7009 123.453 76.7806 123.206 76.8845 122.967C76.9902 122.728 77.1201 122.502 77.2742 122.286C77.4266 122.071 77.6016 121.871 77.7955 121.689C77.9913 121.505 78.2026 121.342 78.4329 121.198C78.6616 121.055 78.904 120.933 79.1586 120.833C79.4132 120.734 79.6765 120.659 79.9467 120.609C80.2169 120.559 80.4906 120.534 80.7677 120.534C81.0431 120.534 81.3167 120.559 81.5869 120.609C81.8571 120.659 82.1204 120.734 82.375 120.833C82.6296 120.933 82.8721 121.055 83.1007 121.198C83.3311 121.342 83.5424 121.505 83.7381 121.689C83.9321 121.871 84.107 122.071 84.2594 122.286C84.4136 122.502 84.5435 122.728 84.6491 122.967C84.7531 123.206 84.8327 123.453 84.8882 123.707C84.9418 123.961 84.9678 124.218 84.9678 124.476V124.517C84.9661 124.775 84.9384 125.031 84.8847 125.284C84.8293 125.538 84.7496 125.784 84.6439 126.021C84.5366 126.26 84.4067 126.486 84.2542 126.701C84.1001 126.915 83.9269 127.114 83.7312 127.296C83.5372 127.478 83.3241 127.641 83.0955 127.785C82.8669 127.929 82.6244 128.049 82.3715 128.148C82.1169 128.247 81.8537 128.322 81.5852 128.372C81.315 128.423 81.0413 128.449 80.7677 128.449ZM43.5068 91.9216C43.273 91.92 43.0409 91.8988 42.8105 91.8565C42.5819 91.8126 42.3585 91.7492 42.142 91.6663C41.9255 91.5817 41.7194 91.4793 41.5254 91.3573C41.3297 91.2353 41.1495 91.0971 40.9833 90.9426C40.8187 90.7865 40.6698 90.6174 40.5381 90.4353C40.4082 90.2531 40.2974 90.0612 40.2073 89.858C40.1173 89.6547 40.048 89.4465 40.0012 89.2303C39.9545 89.0156 39.9302 88.7977 39.9302 88.5782V44.5655C39.9302 44.346 39.9527 44.1265 39.9978 43.9102C40.0445 43.6939 40.1121 43.4841 40.2021 43.2808C40.2922 43.0776 40.4013 42.8841 40.5329 42.7003C40.6628 42.5165 40.8118 42.3474 40.9781 42.1913C41.1426 42.0352 41.3245 41.8953 41.5185 41.7734C41.7142 41.6498 41.9203 41.5473 42.1385 41.4628C42.355 41.3782 42.5785 41.3132 42.8088 41.2709C43.0392 41.227 43.2713 41.2058 43.5068 41.2058H95.4102C95.6457 41.2058 95.8778 41.227 96.1082 41.2709C96.3385 41.3132 96.5637 41.3782 96.7802 41.4628C96.9967 41.5473 97.2028 41.6498 97.3985 41.7734C97.5942 41.8953 97.7744 42.0352 97.9406 42.1913C98.1069 42.3474 98.2541 42.5165 98.3858 42.7003C98.5157 42.8824 98.6265 43.0776 98.7166 43.2808C98.8049 43.4841 98.8742 43.6939 98.9192 43.9102C98.966 44.1265 98.9885 44.346 98.9885 44.5655V44.7769H53.5594C53.239 44.7769 52.9169 44.7916 52.5982 44.8225C52.2777 44.8517 51.9608 44.8956 51.6456 44.9558C51.3303 45.0144 51.0186 45.0875 50.7103 45.1753C50.4037 45.2632 50.1006 45.364 49.8044 45.4794C49.5083 45.5949 49.2173 45.725 48.9332 45.8665C48.6509 46.0096 48.3755 46.1641 48.1071 46.3316C47.8403 46.4991 47.5823 46.6779 47.3346 46.8698C47.0852 47.0617 46.8479 47.2634 46.621 47.4764C46.3941 47.691 46.1776 47.9138 45.9732 48.1464C45.7706 48.3789 45.5783 48.6212 45.3999 48.8717C45.2215 49.1237 45.0552 49.3823 44.9046 49.6473C44.7521 49.914 44.6153 50.1856 44.4923 50.4637C44.3694 50.7434 44.2602 51.0263 44.1667 51.3158C44.0732 51.6036 43.9952 51.8964 43.9312 52.1923C43.8688 52.4867 43.822 52.7859 43.7891 53.0851C43.758 53.3859 43.7406 53.6868 43.7406 53.9876V91.9216H43.5068ZM49.9794 69.49H109.05V83.9858H49.9794V69.49ZM109.041 63.6358H49.9794V53.9762C49.9794 53.7567 50.0019 53.5372 50.0486 53.3209C50.0937 53.1046 50.163 52.8948 50.253 52.6916C50.3431 52.4883 50.4522 52.2948 50.5838 52.111C50.7137 51.9273 50.8627 51.7581 51.029 51.602C51.1952 51.4459 51.3754 51.3077 51.5711 51.1841C51.7668 51.0621 51.9729 50.9597 52.1894 50.8751C52.4076 50.7906 52.6311 50.7271 52.8614 50.6832C53.0918 50.6409 53.3239 50.6198 53.5594 50.6198H105.463C105.698 50.6182 105.932 50.6393 106.164 50.6832C106.395 50.7255 106.62 50.7889 106.838 50.8735C107.056 50.958 107.262 51.0621 107.458 51.1857C107.654 51.3077 107.836 51.4475 108.002 51.6036C108.168 51.7614 108.317 51.9305 108.449 52.1159C108.579 52.2996 108.69 52.4932 108.78 52.6981C108.87 52.903 108.937 53.1144 108.982 53.3306C109.029 53.5486 109.052 53.7665 109.05 53.9876L109.041 63.6358ZM105.463 101.344H53.5594C53.3239 101.344 53.0918 101.321 52.8614 101.279C52.6311 101.235 52.4076 101.171 52.1894 101.087C51.9729 101.002 51.7668 100.898 51.5711 100.776C51.3754 100.654 51.1952 100.514 51.029 100.358C50.8627 100.202 50.7137 100.033 50.5838 99.8492C50.4522 99.6655 50.3431 99.472 50.253 99.2687C50.163 99.0654 50.0937 98.854 50.0486 98.6377C50.0019 98.4214 49.9794 98.2035 49.9794 97.9824V89.8401H109.05V97.9824C109.05 98.2035 109.027 98.4231 108.981 98.6394C108.934 98.8556 108.866 99.0654 108.776 99.2703C108.686 99.4736 108.575 99.6671 108.444 99.8509C108.314 100.035 108.165 100.204 107.998 100.36C107.832 100.516 107.65 100.656 107.455 100.778C107.259 100.901 107.053 101.004 106.835 101.088C106.618 101.173 106.393 101.236 106.163 101.279C105.932 101.323 105.698 101.344 105.463 101.344ZM31.2874 24.0203H46.4357C46.7422 24.0203 47.0436 23.9797 47.338 23.8951C47.6307 23.8122 47.9061 23.6918 48.1625 23.5325C48.4171 23.3731 48.644 23.1812 48.8397 22.9601C49.0354 22.7389 49.193 22.495 49.3108 22.2283C49.5897 21.6087 49.891 21.0005 50.2166 20.4004C50.5423 19.802 50.8904 19.215 51.2628 18.6393C51.6334 18.0653 52.0266 17.5026 52.4423 16.9562C52.858 16.4082 53.2927 15.8748 53.75 15.356C54.2072 14.8389 54.6835 14.3364 55.1789 13.8518C55.676 13.3672 56.1904 12.8989 56.7221 12.45C57.2556 11.9996 57.8046 11.5687 58.371 11.1572C58.9374 10.7442 59.5176 10.3523 60.1151 9.9815C60.7127 9.6091 61.3223 9.25785 61.9459 8.92773C62.5711 8.59761 63.2068 8.29027 63.8563 8.00406C64.5041 7.71785 65.1622 7.45441 65.8308 7.21373C66.5011 6.97306 67.1783 6.75515 67.8642 6.56001C68.55 6.36649 69.2428 6.19574 69.9409 6.04939C70.6406 5.90303 71.3438 5.77944 72.0539 5.68187C72.7623 5.5843 73.4742 5.50949 74.1878 5.46071C74.9031 5.41192 75.6184 5.38753 76.3355 5.38753C77.0508 5.38753 77.7661 5.41192 78.4814 5.46071C79.195 5.50949 79.9069 5.5843 80.617 5.68187C81.3254 5.77944 82.0286 5.90303 82.7283 6.04939C83.4281 6.19574 84.1191 6.36649 84.805 6.56001C85.4909 6.75515 86.1698 6.97306 86.8384 7.21373C87.507 7.45441 88.1651 7.71785 88.8146 8.00406C89.4624 8.29027 90.0981 8.59761 90.7233 8.92773C91.3468 9.25785 91.9582 9.6091 92.5541 9.9815C93.1516 10.3523 93.7336 10.7442 94.2982 11.1572C94.8646 11.5687 95.4154 11.9996 95.9471 12.45C96.4788 12.8989 96.9932 13.3672 97.4903 13.8518C97.9857 14.3364 98.462 14.8389 98.9192 15.356C99.3765 15.8748 99.8129 16.4082 100.227 16.9562C100.643 17.5026 101.036 18.0653 101.408 18.6393C101.779 19.215 102.127 19.802 102.453 20.4004C102.778 21.0005 103.08 21.6087 103.358 22.2283C103.476 22.495 103.634 22.7373 103.829 22.9601C104.025 23.1812 104.25 23.3715 104.507 23.5309C104.761 23.6902 105.037 23.8122 105.329 23.8951C105.624 23.9781 105.923 24.0203 106.23 24.0203H107.624C108.366 24.0203 109.107 24.0496 109.845 24.1114C110.583 24.1716 111.317 24.2626 112.048 24.3846C112.777 24.5066 113.501 24.6594 114.216 24.8416C114.932 25.0237 115.637 25.2351 116.333 25.4758C117.029 25.7164 117.712 25.9864 118.382 26.284C119.052 26.5816 119.707 26.9052 120.346 27.2581C120.987 27.6093 121.609 27.9882 122.211 28.3915C122.816 28.7948 123.4 29.2225 123.962 29.6746C124.527 30.1266 125.067 30.6015 125.587 31.0991C126.105 31.5967 126.599 32.1138 127.07 32.6521C127.539 33.1904 127.982 33.7482 128.4 34.3222C128.817 34.8979 129.207 35.4898 129.567 36.0964C129.929 36.7046 130.262 37.3258 130.565 37.9616C130.868 38.5958 131.14 39.243 131.381 39.9C131.623 40.5586 131.833 41.2253 132.013 41.9002C132.191 42.5751 132.338 43.2564 132.453 43.9443C132.567 44.6322 132.649 45.3233 132.697 46.0177C132.747 46.7121 132.763 47.4065 132.747 48.1025C132.732 48.7985 132.681 49.4912 132.6 50.1824C132.519 50.8751 132.404 51.5614 132.257 52.2444C132.112 52.9257 131.933 53.6006 131.722 54.2673C131.512 54.9357 131.27 55.5927 130.998 56.2399C130.726 56.8871 130.423 57.5213 130.09 58.1441C129.76 58.7654 129.398 59.3719 129.008 59.9638C128.618 60.5574 128.202 61.1314 127.757 61.6892C127.314 62.2454 126.845 62.7836 126.351 63.3024C125.856 63.8212 125.338 64.3171 124.796 64.7936C124.255 65.2685 123.692 65.7205 123.107 66.1482C122.523 66.5775 121.92 66.9808 121.299 67.3597C120.675 67.737 120.038 68.0899 119.381 68.4151C118.727 68.7404 118.056 69.0379 117.372 69.3063C116.69 69.5762 115.995 69.8169 115.289 70.0283V53.9876C115.289 53.6868 115.271 53.3859 115.24 53.0851C115.209 52.7859 115.16 52.4883 115.098 52.1923C115.036 51.8964 114.956 51.6036 114.864 51.3158C114.771 51.0263 114.662 50.7434 114.539 50.4637C114.416 50.1856 114.279 49.914 114.126 49.6473C113.974 49.3823 113.809 49.1237 113.631 48.8733C113.453 48.6212 113.26 48.3805 113.058 48.1464C112.853 47.9138 112.639 47.691 112.41 47.4764C112.183 47.2634 111.946 47.0617 111.696 46.8698C111.449 46.6796 111.191 46.4991 110.924 46.3316C110.657 46.1641 110.382 46.0096 110.098 45.8665C109.814 45.725 109.524 45.5949 109.228 45.4794C108.93 45.364 108.629 45.2632 108.321 45.1753C108.014 45.0875 107.702 45.0144 107.387 44.9558C107.072 44.8956 106.755 44.8517 106.434 44.8225C106.114 44.7916 105.794 44.7769 105.473 44.7769H105.236V44.5655C105.236 44.2647 105.219 43.9638 105.187 43.663C105.156 43.3621 105.109 43.0646 105.045 42.7686C104.983 42.4726 104.905 42.1815 104.812 41.8921C104.718 41.6042 104.611 41.3197 104.486 41.0416C104.363 40.7619 104.226 40.4903 104.075 40.2236C103.923 39.9585 103.758 39.7 103.58 39.4496C103.402 39.1975 103.209 38.9552 103.005 38.7226C102.802 38.4901 102.586 38.2657 102.359 38.0527C102.132 37.8396 101.893 37.6364 101.645 37.4461C101.398 37.2542 101.14 37.0753 100.871 36.9062C100.604 36.7387 100.329 36.5842 100.047 36.4427C99.7627 36.2996 99.4717 36.1712 99.1756 36.0557C98.8777 35.9403 98.5763 35.8378 98.268 35.75C97.9614 35.6622 97.6497 35.589 97.3344 35.5305C97.0192 35.4703 96.7022 35.4264 96.3818 35.3971C96.0614 35.3662 95.741 35.3516 95.4205 35.3516H43.5068C43.1864 35.3516 42.8642 35.3662 42.5455 35.3971C42.2251 35.4264 41.9082 35.4719 41.5929 35.5305C41.2777 35.589 40.9659 35.6622 40.6594 35.75C40.3511 35.8378 40.0497 35.9403 39.7518 36.0557C39.4556 36.1712 39.1647 36.3013 38.8823 36.4427C38.5983 36.5858 38.3229 36.7403 38.0562 36.9078C37.7894 37.0753 37.5314 37.2558 37.282 37.4461C37.0343 37.638 36.797 37.8396 36.5684 38.0543C36.3415 38.2673 36.1267 38.4901 35.9223 38.7243C35.7179 38.9568 35.5274 39.1991 35.349 39.4496C35.1706 39.7 35.0043 39.9585 34.8537 40.2252C34.7012 40.4903 34.5644 40.7635 34.4414 41.0416C34.3185 41.3197 34.2094 41.6042 34.1158 41.8921C34.0223 42.1815 33.9444 42.4726 33.882 42.7686C33.8179 43.0646 33.7712 43.3621 33.74 43.663C33.7071 43.9638 33.6915 44.2647 33.6915 44.5655V71.1764H31.2874C30.4647 71.1764 29.6438 71.139 28.8245 71.0625C28.0053 70.9877 27.193 70.8739 26.3858 70.7227C25.5787 70.5731 24.782 70.3861 23.9939 70.1616C23.2059 69.9372 22.4334 69.677 21.673 69.3811C20.9127 69.0867 20.1696 68.7566 19.4439 68.3924C18.7182 68.0281 18.0133 67.6313 17.3291 67.202C16.645 66.7743 15.9851 66.3141 15.3477 65.8246C14.712 65.3351 14.1041 64.8164 13.5221 64.27C12.9402 63.7252 12.3877 63.1528 11.8663 62.556C11.3433 61.9592 10.8548 61.3396 10.3976 60.6973C9.94034 60.0549 9.51773 59.3947 9.12975 58.7133C8.74178 58.0319 8.39018 57.3343 8.07496 56.622C7.76146 55.9081 7.48434 55.1812 7.24532 54.443C7.0063 53.703 6.80712 52.955 6.64604 52.1988C6.48497 51.441 6.36546 50.6783 6.28405 49.9092C6.20265 49.1416 6.16281 48.3708 6.16281 47.5984C6.16281 46.8259 6.20265 46.0551 6.28405 45.2875C6.36546 44.5184 6.48497 43.7557 6.64604 42.9979C6.80712 42.2417 7.0063 41.4937 7.24532 40.7538C7.48434 40.0155 7.76146 39.2886 8.07496 38.5747C8.39018 37.8624 8.74178 37.1648 9.12975 36.4834C9.51773 35.802 9.94034 35.1418 10.3976 34.4995C10.8548 33.8571 11.3433 33.2375 11.8663 32.6407C12.3877 32.0439 12.9402 31.4715 13.5221 30.9267C14.1041 30.3803 14.712 29.8616 15.3477 29.3721C15.9851 28.8826 16.645 28.4224 17.3291 27.9947C18.0133 27.5654 18.7182 27.1686 19.4439 26.8044C20.1696 26.4401 20.9127 26.11 21.673 25.8156C22.4334 25.5197 23.2059 25.2595 23.9939 25.0351C24.782 24.8107 25.5787 24.6236 26.3858 24.474C27.193 24.3228 28.0053 24.209 28.8245 24.1342C29.6438 24.0577 30.4647 24.0203 31.2874 24.0203Z" fill="#AAAF97"/>
<path d="M89.0573 56.4345C88.9828 56.2589 88.8892 56.093 88.7767 55.9369C88.6589 55.7775 88.5221 55.6312 88.3714 55.4978C88.0821 55.223 87.7496 55.0084 87.3737 54.8539C86.9927 54.7075 86.5978 54.6343 86.1873 54.6343C85.7768 54.6343 85.3819 54.7075 85.0026 54.8539C84.6112 55.0002 84.2682 55.2149 83.9738 55.4978C83.8214 55.6247 83.6967 55.771 83.5997 55.9369C83.4767 56.093 83.3728 56.2589 83.2879 56.4345C83.2204 56.6167 83.1684 56.802 83.132 56.9907C83.0801 57.1728 83.0593 57.3582 83.0679 57.5468C83.0593 57.9404 83.132 58.3209 83.2879 58.6884C83.4507 59.0429 83.6793 59.3551 83.9738 59.6251C84.2596 59.9178 84.6042 60.1325 85.0026 60.2691C85.3802 60.4252 85.7751 60.5032 86.1873 60.5032C86.5995 60.5032 86.9962 60.4252 87.3737 60.2691C87.7478 60.1129 88.0804 59.8983 88.3714 59.6251C88.6624 59.3519 88.891 59.0397 89.0573 58.6884C89.2218 58.3241 89.3049 57.9436 89.3067 57.5468C89.3015 57.3598 89.2807 57.1744 89.2443 56.9907C89.2097 56.7972 89.1473 56.6118 89.0573 56.4345Z" fill="#AAAF97"/>
<path d="M94.047 54.7079C93.846 54.7436 93.6486 54.7924 93.4546 54.8542C93.2675 54.942 93.1117 55.0298 92.9246 55.1176C92.7618 55.2364 92.6042 55.3632 92.457 55.4982C92.1642 55.7681 91.9391 56.0803 91.7815 56.4365C91.6256 56.791 91.5477 57.1618 91.5528 57.5472C91.5425 57.9407 91.6152 58.3212 91.7711 58.6887C91.946 59.0351 92.1746 59.3473 92.457 59.6254C92.6042 59.7604 92.7618 59.8872 92.9246 60.006C93.1117 60.0938 93.2675 60.1816 93.4546 60.2694C93.6417 60.3572 93.8599 60.3865 94.047 60.445C94.2531 60.4792 94.4626 60.4987 94.6705 60.5036C95.0879 60.4987 95.488 60.4206 95.8708 60.2694C96.2535 60.1165 96.593 59.9019 96.8857 59.6254C97.1698 59.3539 97.388 59.0416 97.5404 58.6887C97.705 58.3245 97.7881 57.944 97.7898 57.5472C97.7898 57.3309 97.7639 57.1162 97.7136 56.9064C97.6617 56.695 97.5872 56.4918 97.4867 56.2966C97.388 56.1015 97.2668 55.9194 97.123 55.7486C96.981 55.5795 96.8199 55.4266 96.6398 55.29C96.4614 55.1534 96.2674 55.038 96.0613 54.942C95.8534 54.8477 95.6387 54.7745 95.4135 54.7241C95.1901 54.6737 94.9615 54.6477 94.7311 54.6444C94.5007 54.6412 94.2738 54.6623 94.047 54.7079Z" fill="#AAAF97"/>
<path d="M106.024 56.435C105.931 56.2593 105.837 56.0837 105.744 55.9373C105.626 55.778 105.491 55.6316 105.338 55.4983C105.203 55.3487 105.047 55.2218 104.871 55.1177C104.715 55.0299 104.528 54.9421 104.341 54.8543C104.148 54.7876 103.951 54.7388 103.748 54.7079C103.343 54.6185 102.938 54.6185 102.531 54.7079C102.33 54.7437 102.132 54.7925 101.938 54.8543C101.751 54.9421 101.595 55.0299 101.408 55.1177C101.246 55.2365 101.09 55.3633 100.941 55.4983C100.79 55.6251 100.665 55.7715 100.567 55.9373C100.444 56.0935 100.34 56.2593 100.255 56.435C100.187 56.6171 100.135 56.8025 100.099 56.9911C100.045 57.183 100.024 57.3781 100.037 57.5765C100.026 57.7652 100.047 57.9506 100.099 58.1327C100.135 58.3213 100.187 58.5067 100.255 58.6888C100.34 58.8645 100.444 59.0303 100.567 59.1865C100.657 59.3588 100.781 59.5052 100.941 59.6255C101.09 59.7605 101.246 59.8873 101.408 60.0061C101.595 60.0939 101.751 60.1817 101.938 60.2695C102.125 60.3573 102.344 60.3866 102.531 60.4451C102.739 60.4695 102.946 60.4793 103.156 60.4744C103.353 60.4793 103.551 60.4695 103.748 60.4451C103.967 60.3866 104.154 60.328 104.341 60.2695C104.528 60.211 104.715 60.0939 104.871 60.0061C105.203 59.7719 105.494 59.4987 105.744 59.1865C105.837 59.0401 105.931 58.8645 106.024 58.6888C106.118 58.5132 106.149 58.3083 106.211 58.1327C106.296 57.7522 106.296 57.3716 106.211 56.9911C106.149 56.8155 106.087 56.6106 106.024 56.435Z" fill="#AAAF97"/>
<path d="M89.0575 75.4032C88.9951 75.2129 88.9016 75.0373 88.7769 74.8763C88.6505 74.7235 88.5154 74.5771 88.3716 74.4373C88.0824 74.1706 87.7498 73.9657 87.374 73.8226C86.9964 73.6616 86.6015 73.5803 86.1875 73.5803C85.7736 73.5803 85.3787 73.6616 85.0028 73.8226C84.6131 73.9592 84.2702 74.1641 83.974 74.4373C83.7593 74.6438 83.5809 74.8763 83.4388 75.1316C83.2951 75.387 83.1929 75.6553 83.1323 75.9382C83.0716 76.2212 83.0543 76.5058 83.0803 76.7936C83.1063 77.0814 83.1756 77.3595 83.2881 77.6278C83.4579 77.9856 83.6865 78.3076 83.974 78.5938C84.2702 78.867 84.6131 79.0719 85.0028 79.2085C85.1206 79.2524 85.2401 79.2898 85.3631 79.3207C85.4861 79.3516 85.6108 79.3743 85.7355 79.3906C85.8619 79.4085 85.9866 79.4166 86.1148 79.4199C86.2412 79.4215 86.3677 79.4166 86.4941 79.4036C86.6205 79.3922 86.7452 79.3727 86.8682 79.3451C86.9929 79.3191 87.1142 79.2865 87.2337 79.2459C87.3532 79.2052 87.4692 79.1581 87.5818 79.1044C87.6944 79.0507 87.8052 78.9906 87.9109 78.9255C88.0148 78.8588 88.117 78.7873 88.2123 78.7092C88.3093 78.6328 88.3993 78.5499 88.4859 78.4621C88.5708 78.3742 88.6505 78.2816 88.7249 78.184C88.7977 78.088 88.8652 77.9872 88.9259 77.8815C88.9865 77.7774 89.0402 77.6701 89.0869 77.5595C89.1337 77.4489 89.1735 77.3351 89.2047 77.2213C89.2376 77.1058 89.2619 76.9887 89.2792 76.8717C89.2965 76.7529 89.3052 76.6342 89.3069 76.5155C89.3017 76.3188 89.2809 76.1236 89.2445 75.9301C89.2099 75.7463 89.1476 75.5707 89.0575 75.4032Z" fill="#AAAF97"/>
<path d="M94.0473 73.6472C93.8464 73.683 93.6489 73.7318 93.4549 73.7936C93.2713 73.8798 93.0947 73.9773 92.9249 74.0863C92.7621 74.1936 92.6062 74.3107 92.4573 74.4376C92.2425 74.6441 92.0641 74.8766 91.9221 75.1319C91.7783 75.3872 91.6761 75.6556 91.6155 75.9385C91.5549 76.2215 91.5376 76.5061 91.5636 76.7939C91.5913 77.0817 91.6588 77.3598 91.7714 77.6281C91.9533 77.9794 92.1819 78.3014 92.4573 78.5941L92.9249 78.9453C93.2713 79.1567 93.6454 79.3031 94.0473 79.3844C94.2534 79.4186 94.463 79.4381 94.6708 79.4429C95.0848 79.4381 95.4814 79.3616 95.8642 79.2153C96.2469 79.0689 96.5864 78.8608 96.8861 78.5941C97.1632 78.3079 97.3814 77.9859 97.5408 77.6281C97.7018 77.272 97.785 76.9012 97.7902 76.5158C97.785 76.1288 97.7036 75.7548 97.5477 75.397C97.3918 75.0376 97.1701 74.7189 96.8861 74.4376C96.5119 74.0944 96.0737 73.8521 95.5714 73.7123C95.0692 73.5724 94.5617 73.5513 94.0473 73.6472Z" fill="#AAAF97"/>
<path d="M105.338 74.4369C105.21 74.2873 105.054 74.1702 104.87 74.0856C104.711 73.9685 104.533 73.8807 104.34 73.8222C104.153 73.7327 103.956 73.6742 103.748 73.6465C103.343 73.5571 102.937 73.5571 102.53 73.6465C102.129 73.7279 101.754 73.8742 101.408 74.0856C101.237 74.1848 101.081 74.3019 100.94 74.4369C100.648 74.7117 100.423 75.0304 100.265 75.3898C100.109 75.7508 100.031 76.1265 100.036 76.5151C100.035 76.9038 100.113 77.2778 100.268 77.6388C100.426 77.9982 100.649 78.3169 100.94 78.5934L101.408 78.9447C101.754 79.1561 102.129 79.3024 102.53 79.3837C102.738 79.4179 102.946 79.4374 103.156 79.4423C103.355 79.4374 103.552 79.4179 103.748 79.3837C103.956 79.3561 104.153 79.2975 104.34 79.2081C104.533 79.1496 104.711 79.0617 104.87 78.9447C105.038 78.8422 105.194 78.7251 105.338 78.5934C105.634 78.3186 105.863 77.9998 106.024 77.6405C106.187 77.2811 106.27 76.9054 106.273 76.5151C106.272 76.1232 106.19 75.7476 106.027 75.3882C105.866 75.0272 105.636 74.7101 105.338 74.4369Z" fill="#AAAF97"/>
<path d="M85.0025 92.7608C84.6128 92.8974 84.2698 93.1023 83.9736 93.3755C83.8299 93.5121 83.7017 93.6617 83.5891 93.8227C83.4766 93.9837 83.3813 94.1528 83.3034 94.3317C83.2254 94.509 83.1665 94.6927 83.1284 94.8814C83.0886 95.07 83.0678 95.2619 83.0678 95.4538C83.0678 95.6457 83.0886 95.8376 83.1284 96.0262C83.1665 96.2148 83.2254 96.3986 83.3034 96.5758C83.3813 96.7547 83.4766 96.9239 83.5891 97.0848C83.7017 97.2458 83.8299 97.3938 83.9736 97.532C84.2716 97.7987 84.6128 98.0069 84.9955 98.1532C85.3766 98.2996 85.7749 98.3744 86.1872 98.3809C86.4193 98.3842 86.6496 98.3614 86.8765 98.3159C87.1034 98.2703 87.3216 98.202 87.5329 98.111C87.7425 98.0199 87.94 97.9077 88.1236 97.776C88.3089 97.6426 88.4752 97.493 88.6224 97.3255C88.7713 97.158 88.8978 96.9775 89.0034 96.7824C89.1091 96.5889 89.1905 96.3872 89.2476 96.1758C89.3048 95.9644 89.336 95.7497 89.3429 95.5318C89.3481 95.3156 89.329 95.0993 89.284 94.8862C89.239 94.6716 89.1697 94.4651 89.0744 94.2667C88.9809 94.0683 88.8649 93.8813 88.7263 93.7056C88.5877 93.5316 88.4301 93.3739 88.2535 93.2324C88.0785 93.0893 87.888 92.9673 87.6819 92.8665C87.4775 92.7641 87.2627 92.686 87.0393 92.6291C86.8142 92.5722 86.5873 92.538 86.3552 92.5299C86.1231 92.5201 85.8927 92.5348 85.6658 92.5738C85.4372 92.6128 85.2155 92.6763 85.0025 92.7608Z" fill="#AAAF97"/>
<path d="M97.5414 94.3413C97.4669 94.1657 97.3734 93.9998 97.2608 93.8437C97.1361 93.6681 97.0114 93.5217 96.8867 93.3754C96.5125 93.0322 96.0743 92.7899 95.5721 92.6501C95.0698 92.5102 94.5623 92.4891 94.0479 92.585C93.6461 92.6663 93.2719 92.8127 92.9255 93.0241L92.4579 93.3754C92.3055 93.512 92.1808 93.6681 92.0838 93.8437C91.9608 93.9998 91.8569 94.1657 91.772 94.3413C91.7045 94.5137 91.6525 94.6893 91.6161 94.8682C91.5659 95.0601 91.5451 95.2552 91.5538 95.4536C91.5521 95.8423 91.63 96.2163 91.7859 96.5773C91.9435 96.9367 92.1669 97.2554 92.4579 97.5319C92.6068 97.6571 92.7627 97.7742 92.9255 97.8831C93.2719 98.0945 93.6461 98.2409 94.0479 98.3222C94.254 98.3564 94.4636 98.3759 94.6714 98.3808C94.8706 98.3759 95.0698 98.3564 95.2655 98.3222C95.4733 98.2946 95.6708 98.236 95.8578 98.1466C96.0501 98.088 96.2268 98.0002 96.3878 97.8831C96.568 97.7823 96.7342 97.6652 96.8867 97.5319L97.2608 97.0928C97.3664 96.9237 97.46 96.7481 97.5414 96.5659C97.6332 96.3984 97.6955 96.2228 97.7284 96.0391C97.7648 95.8455 97.7856 95.6504 97.7908 95.4536C97.7838 95.2569 97.7631 95.0617 97.7284 94.8682C97.6955 94.6844 97.6332 94.5088 97.5414 94.3413Z" fill="#AAAF97"/>
<path d="M105.338 93.3755C105.203 93.2356 105.047 93.1185 104.871 93.0242C104.711 92.9071 104.533 92.8193 104.341 92.7608C104.154 92.6713 103.956 92.6128 103.748 92.5851C103.343 92.4957 102.938 92.4957 102.531 92.5851C102.129 92.6665 101.755 92.8128 101.408 93.0242C101.245 93.1315 101.09 93.2503 100.941 93.3755C100.646 93.6568 100.418 93.9788 100.255 94.3414C100.102 94.6992 100.03 95.07 100.037 95.4537C100.035 95.8424 100.113 96.2164 100.269 96.5774C100.426 96.9368 100.65 97.2555 100.941 97.532C101.09 97.6572 101.245 97.7743 101.408 97.8832C101.755 98.0947 102.129 98.241 102.531 98.3223C102.738 98.3565 102.946 98.376 103.156 98.3809C103.355 98.376 103.553 98.3565 103.748 98.3223C103.956 98.2947 104.154 98.2361 104.341 98.1467C104.533 98.0881 104.711 98.0003 104.871 97.8832C105.047 97.7889 105.203 97.6718 105.338 97.532C105.634 97.2572 105.863 96.9384 106.024 96.5791C106.187 96.2197 106.27 95.844 106.274 95.4537C106.27 95.0667 106.187 94.6959 106.024 94.3414C105.872 93.9723 105.643 93.6503 105.338 93.3755Z" fill="#AAAF97"/>
</g>
<defs>
<clipPath id="clip0_66_1394">
<rect width="141" height="134" fill="white"/>
</clipPath>
</defs>
</svg>
