<svg width="150" height="59" viewBox="0 0 150 59" fill="none" xmlns="http://www.w3.org/2000/svg">
<mask id="mask0_224_309" style="mask-type:luminance" maskUnits="userSpaceOnUse" x="0" y="0" width="150" height="59">
<path d="M149.18 0.94043H0.180176V58.9404H149.18V0.94043Z" fill="white"/>
</mask>
<g mask="url(#mask0_224_309)">
<path d="M85.5942 40.2889C85.5942 45.0169 83.3382 47.3849 78.8182 47.3849C74.2982 47.3849 72.2422 45.0729 72.2422 40.4569V31.3689H75.8902V40.5049C75.8902 43.0489 76.9142 44.3289 78.9542 44.3289C80.9942 44.3289 81.9622 43.0969 81.9622 40.6409V31.3769H85.6022V40.3049L85.5942 40.2889Z" fill="black"/>
<path d="M100.042 46.5527C98.8662 47.1127 97.3222 47.3847 95.4262 47.3847C92.9462 47.3847 91.0022 46.6727 89.5782 45.2567C88.1622 43.8407 87.4502 41.9447 87.4502 39.5767C87.4502 37.0567 88.2502 35.0167 89.8422 33.4487C91.4342 31.8807 93.5062 31.0967 96.0502 31.0967C97.6262 31.0967 98.9542 31.2887 100.034 31.6807V35.0967C98.9542 34.4647 97.7222 34.1527 96.3382 34.1527C94.8182 34.1527 93.5942 34.6167 92.6662 35.5447C91.7382 36.4727 91.2662 37.7367 91.2662 39.3207C91.2662 40.9047 91.7062 42.0567 92.5862 42.9607C93.4662 43.8647 94.6502 44.3207 96.1302 44.3207C97.6102 44.3207 98.8502 43.9847 100.026 43.3127V46.5527H100.042Z" fill="black"/>
<path d="M131.666 40.2891C131.666 45.0171 129.41 47.3851 124.89 47.3851C120.37 47.3851 118.314 45.0731 118.314 40.4571V31.3691H121.962V40.5051C121.962 43.0491 122.986 44.3291 125.026 44.3291C127.066 44.3291 128.034 43.0971 128.034 40.6411V31.3771H131.674V40.3051L131.666 40.2891Z" fill="black"/>
<path d="M133.722 46.5049V42.9929C134.378 43.5289 135.082 43.9289 135.85 44.1929C136.618 44.4569 137.386 44.5929 138.17 44.5929C138.626 44.5929 139.026 44.5529 139.37 44.4729C139.714 44.3929 139.994 44.2809 140.226 44.1369C140.458 43.9929 140.626 43.8249 140.738 43.6329C140.85 43.4409 140.906 43.2249 140.906 43.0009C140.906 42.6969 140.818 42.4169 140.634 42.1769C140.45 41.9369 140.21 41.7129 139.898 41.5049C139.586 41.2969 139.218 41.1049 138.786 40.9129C138.362 40.7209 137.898 40.5289 137.402 40.3289C136.138 39.8169 135.202 39.1929 134.578 38.4489C133.962 37.7129 133.65 36.8169 133.65 35.7689C133.65 34.9529 133.818 34.2409 134.154 33.6569C134.49 33.0649 134.954 32.5849 135.53 32.2009C136.114 31.8169 136.786 31.5369 137.554 31.3609C138.322 31.1849 139.13 31.0889 139.986 31.0889C140.842 31.0889 141.57 31.1369 142.218 31.2409C142.866 31.3369 143.466 31.4889 144.018 31.6969V34.9769C143.746 34.7929 143.45 34.6329 143.138 34.4969C142.818 34.3609 142.49 34.2409 142.154 34.1529C141.818 34.0649 141.482 33.9929 141.146 33.9529C140.81 33.9129 140.498 33.8889 140.194 33.8889C139.778 33.8889 139.402 33.9289 139.066 34.0009C138.73 34.0809 138.442 34.1849 138.21 34.3289C137.978 34.4649 137.794 34.6329 137.666 34.8249C137.538 35.0169 137.474 35.2329 137.474 35.4809C137.474 35.7449 137.546 35.9769 137.69 36.1929C137.834 36.4009 138.034 36.6009 138.298 36.7849C138.562 36.9689 138.882 37.1529 139.258 37.3369C139.634 37.5129 140.058 37.7049 140.53 37.8889C141.178 38.1529 141.754 38.4329 142.266 38.7289C142.778 39.0249 143.218 39.3609 143.586 39.7369C143.954 40.1129 144.234 40.5369 144.434 41.0169C144.626 41.4969 144.73 42.0569 144.73 42.6889C144.73 43.5689 144.562 44.3049 144.218 44.9049C143.874 45.5049 143.41 45.9849 142.826 46.3529C142.242 46.7209 141.562 46.9849 140.786 47.1529C140.01 47.3209 139.186 47.3929 138.322 47.3929C137.458 47.3929 136.594 47.3209 135.794 47.1769C134.994 47.0329 134.298 46.8089 133.714 46.5209L133.722 46.5049Z" fill="black"/>
<path d="M106.226 47.1129H102.586V31.3689H106.226V47.1129Z" fill="black"/>
<path d="M107.658 40.2729L113.29 47.1129H117.882L110.842 38.8729L116.474 31.3689H112.138L107.682 37.9289L107.658 40.2729Z" fill="black"/>
<path d="M66.9861 40.9848C67.4261 40.7768 67.8341 40.5208 68.1941 40.2168C69.3621 39.2408 69.9461 37.9608 69.9461 36.3768C69.9461 33.0328 67.9141 31.3608 63.8421 31.3608H56.3301V47.1048H59.9701V34.0808H63.2181C65.1541 34.0808 66.1221 34.8888 66.1221 36.5048C66.1221 38.1208 65.1541 38.9848 63.2181 38.9848V39.0008H61.1621L67.6261 47.0968H72.2181L66.9861 40.9688V40.9848Z" fill="black"/>
<path d="M52.426 17.4894L51.434 16.2334L46.058 18.5294L43.794 16.9934L40.162 17.7774L36.178 19.5534L35.146 21.8494L37.058 24.1054L38.522 24.5374L42.386 20.5214L38.97 26.0974L36.338 25.2494L35.73 24.3694L31.314 29.8414L17.57 33.4574C17.09 33.4574 16.386 33.4734 16.386 33.4734C3.64996 28.0174 10.97 20.7054 11.042 20.6254C10.954 20.6734 0.593964 25.9054 12.306 35.5454L10.114 38.0334L8.56196 45.0654L4.62596 48.1934L0.313965 57.5614H4.40996L5.08196 55.9774L3.49796 55.5854L6.08196 51.0894C7.42596 50.3694 12.242 48.4334 13.186 47.7774L19.586 39.7374L26.746 41.9934L27.754 37.5454L28.106 38.2894L28.658 44.6334L25.634 58.1934H29.914V56.8094L28.314 56.1374L33.522 44.4494C33.522 44.4494 41.442 39.4094 41.434 39.3614C41.41 39.2334 45.274 27.3374 45.274 27.3374L50.058 26.9294L51.458 25.0014L45.786 25.0174L52.362 20.1694L52.426 17.5214V17.4894Z" fill="black"/>
<path d="M34.8262 45.1692L40.0342 41.8652L34.4022 54.9932L36.0102 55.6092V56.9212L32.2422 56.9292L34.8262 45.1692Z" fill="black"/>
<path d="M21.6902 48.129L15.7382 51.153L13.5462 55.025L15.2102 55.489L14.5382 56.913H10.8662L13.7222 49.321C13.9942 49.153 17.0182 46.457 17.0182 46.457L17.2742 44.745L20.0582 41.249L24.1942 42.561L21.6902 48.129Z" fill="black"/>
<path d="M44.2419 32.6733L32.2979 28.1853L33.4898 26.6973L44.7458 30.7373L44.2419 32.6733Z" fill="#F47920"/>
<path d="M148.714 32.3451C148.714 33.2571 147.978 33.9691 147.026 33.9691C146.074 33.9691 145.33 33.2571 145.33 32.3451C145.33 31.4331 146.082 30.7371 147.026 30.7371C147.97 30.7371 148.714 31.4491 148.714 32.3451ZM145.754 32.3451C145.754 33.0571 146.298 33.6251 147.042 33.6251C147.786 33.6251 148.298 33.0571 148.298 32.3531C148.298 31.6491 147.762 31.0571 147.034 31.0571C146.306 31.0571 145.762 31.6331 145.762 32.3371L145.754 32.3451ZM146.77 33.1851H146.386V31.5771C146.538 31.5451 146.746 31.5291 147.018 31.5291C147.33 31.5291 147.474 31.5771 147.594 31.6491C147.682 31.7211 147.754 31.8491 147.754 32.0011C147.754 32.1771 147.61 32.3131 147.41 32.3771V32.3931C147.57 32.4491 147.658 32.5691 147.714 32.7851C147.762 33.0331 147.794 33.1291 147.834 33.1851H147.426C147.378 33.1291 147.346 32.9771 147.298 32.7931C147.266 32.6171 147.17 32.5371 146.954 32.5371H146.77V33.1851ZM146.778 32.2731H146.962C147.17 32.2731 147.346 32.2011 147.346 32.0411C147.346 31.8971 147.234 31.7931 146.994 31.7931C146.89 31.7931 146.826 31.8011 146.786 31.8091V32.2731H146.778Z" fill="#231F20"/>
<path d="M56.394 17.3537V24.9937H60.05V14.7217L56.394 17.3537Z" fill="#F47920"/>
<path d="M64.2178 11.7214V24.9934H67.8738V9.08936L64.2178 11.7214Z" fill="#F47920"/>
<path d="M72.2422 5.94548V24.9935H75.8982V3.31348L72.2422 5.94548Z" fill="#F47920"/>
<path d="M60.5544 58.7212C60.1224 58.9292 59.5544 59.0332 58.8584 59.0332C57.9464 59.0332 57.2344 58.7692 56.7064 58.2332C56.1784 57.6972 55.9224 56.9852 55.9224 56.0892C55.9224 55.1372 56.2184 54.3692 56.8024 53.7772C57.3864 53.1852 58.1464 52.8892 59.0904 52.8892C59.6664 52.8892 60.1624 52.9612 60.5544 53.1052V54.3932C60.1544 54.1532 59.7064 54.0332 59.1944 54.0332C58.6344 54.0332 58.1864 54.2092 57.8424 54.5612C57.4984 54.9132 57.3304 55.3852 57.3304 55.9852C57.3304 56.5852 57.4904 57.0172 57.8184 57.3612C58.1464 57.7052 58.5784 57.8732 59.1224 57.8732C59.6664 57.8732 60.1224 57.7452 60.5544 57.4892V58.7132V58.7212Z" fill="#F47920"/>
<path d="M64.9303 59.0412C64.0823 59.0412 63.3863 58.7612 62.8503 58.2092C62.3143 57.6572 62.0503 56.9372 62.0503 56.0412C62.0503 55.1052 62.3223 54.3452 62.8663 53.7612C63.4103 53.1772 64.1303 52.8892 65.0263 52.8892C65.8743 52.8892 66.5623 53.1692 67.0823 53.7212C67.6023 54.2732 67.8663 55.0092 67.8663 55.9132C67.8663 56.8172 67.5943 57.6012 67.0503 58.1692C66.5063 58.7372 65.8023 59.0252 64.9303 59.0252V59.0412ZM64.9863 54.0492C64.5143 54.0492 64.1463 54.2252 63.8663 54.5772C63.5863 54.9292 63.4503 55.3932 63.4503 55.9772C63.4503 56.5612 63.5863 57.0332 63.8663 57.3692C64.1463 57.7052 64.5063 57.8812 64.9543 57.8812C65.4023 57.8812 65.7783 57.7132 66.0503 57.3852C66.3223 57.0572 66.4583 56.5932 66.4583 56.0012C66.4583 55.4092 66.3303 54.9052 66.0663 54.5612C65.8023 54.2172 65.4423 54.0492 64.9863 54.0492Z" fill="#F47920"/>
<path d="M76.5541 58.937H75.2341V55.385C75.2341 55.001 75.2501 54.577 75.2821 54.113H75.2501C75.1781 54.481 75.1221 54.737 75.0661 54.897L73.6741 58.937H72.5781L71.1621 54.937C71.1221 54.833 71.0581 54.553 70.9781 54.105H70.9381C70.9781 54.689 70.9941 55.201 70.9941 55.649V58.937H69.7861V53.001H71.7461L72.9621 56.521C73.0581 56.801 73.1301 57.089 73.1701 57.369H73.1941C73.2661 57.041 73.3461 56.753 73.4341 56.513L74.6501 53.001H76.5621V58.937H76.5541Z" fill="#F47920"/>
<path d="M85.6025 58.937H84.2825V55.385C84.2825 55.001 84.2985 54.577 84.3305 54.113H84.2985C84.2265 54.481 84.1705 54.737 84.1145 54.897L82.7225 58.937H81.6265L80.2105 54.937C80.1705 54.833 80.1065 54.553 80.0265 54.105H79.9865C80.0265 54.689 80.0425 55.201 80.0425 55.649V58.937H78.8345V53.001H80.7945L82.0105 56.521C82.1065 56.801 82.1785 57.089 82.2185 57.369H82.2425C82.3145 57.041 82.3945 56.753 82.4825 56.513L83.6985 53.001H85.6105V58.937H85.6025Z" fill="#F47920"/>
<path d="M87.6182 58.705V57.377C87.8582 57.577 88.1222 57.729 88.4022 57.833C88.6822 57.937 88.9702 57.985 89.2582 57.985C89.4262 57.985 89.5702 57.969 89.6982 57.937C89.8262 57.905 89.9302 57.865 90.0102 57.809C90.0982 57.753 90.1542 57.689 90.2022 57.617C90.2502 57.545 90.2662 57.465 90.2662 57.377C90.2662 57.265 90.2342 57.161 90.1702 57.065C90.1062 56.969 90.0102 56.889 89.8982 56.809C89.7862 56.729 89.6502 56.657 89.4902 56.585C89.3302 56.513 89.1622 56.441 88.9782 56.369C88.5142 56.177 88.1702 55.937 87.9382 55.657C87.7062 55.377 87.5942 55.041 87.5942 54.649C87.5942 54.337 87.6582 54.073 87.7782 53.849C87.8982 53.625 88.0742 53.441 88.2822 53.297C88.4982 53.153 88.7462 53.049 89.0262 52.977C89.3062 52.905 89.6022 52.873 89.9222 52.873C90.2422 52.873 90.5062 52.889 90.7462 52.929C90.9862 52.969 91.2022 53.025 91.4102 53.097V54.337C91.3142 54.265 91.2022 54.209 91.0822 54.153C90.9622 54.097 90.8422 54.057 90.7222 54.025C90.6022 53.993 90.4742 53.961 90.3542 53.945C90.2342 53.929 90.1142 53.921 90.0022 53.921C89.8502 53.921 89.7142 53.937 89.5862 53.961C89.4582 53.985 89.3542 54.033 89.2742 54.081C89.1942 54.129 89.1222 54.193 89.0742 54.273C89.0262 54.353 89.0022 54.425 89.0022 54.521C89.0022 54.617 89.0262 54.713 89.0822 54.785C89.1382 54.857 89.2102 54.937 89.3062 55.009C89.4022 55.081 89.5222 55.145 89.6582 55.217C89.7942 55.289 89.9542 55.353 90.1302 55.425C90.3702 55.521 90.5782 55.633 90.7702 55.745C90.9622 55.857 91.1222 55.985 91.2582 56.121C91.3942 56.257 91.4982 56.425 91.5702 56.601C91.6422 56.777 91.6742 56.993 91.6742 57.233C91.6742 57.561 91.6102 57.841 91.4822 58.065C91.3542 58.289 91.1862 58.473 90.9702 58.609C90.7542 58.745 90.5062 58.849 90.2182 58.913C89.9302 58.977 89.6342 59.001 89.3142 59.001C88.9942 59.001 88.6742 58.977 88.3862 58.921C88.0902 58.865 87.8342 58.785 87.6182 58.673V58.705Z" fill="#F47920"/>
<path d="M97.8341 58.7212C97.4021 58.9292 96.8341 59.0332 96.1381 59.0332C95.2261 59.0332 94.5141 58.7692 93.9861 58.2332C93.4581 57.6972 93.2021 56.9852 93.2021 56.0892C93.2021 55.1372 93.4981 54.3692 94.0821 53.7772C94.6661 53.1852 95.4261 52.8892 96.3701 52.8892C96.9461 52.8892 97.4421 52.9612 97.8341 53.1052V54.3932C97.4341 54.1532 96.9861 54.0332 96.4741 54.0332C95.9141 54.0332 95.4661 54.2092 95.1221 54.5612C94.7781 54.9132 94.6101 55.3852 94.6101 55.9852C94.6101 56.5852 94.7701 57.0172 95.0981 57.3612C95.4261 57.7052 95.8581 57.8732 96.4021 57.8732C96.9461 57.8732 97.4021 57.7452 97.8341 57.4892V58.7132V58.7212Z" fill="#F47920"/>
<path d="M102.21 59.0412C101.362 59.0412 100.666 58.7612 100.13 58.2092C99.5941 57.6572 99.3301 56.9372 99.3301 56.0412C99.3301 55.1052 99.6021 54.3452 100.146 53.7612C100.69 53.1772 101.41 52.8892 102.306 52.8892C103.154 52.8892 103.842 53.1692 104.362 53.7212C104.882 54.2732 105.146 55.0092 105.146 55.9132C105.146 56.8172 104.874 57.6012 104.33 58.1692C103.786 58.7372 103.082 59.0252 102.21 59.0252V59.0412ZM102.266 54.0492C101.794 54.0492 101.426 54.2252 101.146 54.5772C100.866 54.9292 100.73 55.3932 100.73 55.9772C100.73 56.5612 100.866 57.0332 101.146 57.3692C101.426 57.7052 101.786 57.8812 102.234 57.8812C102.682 57.8812 103.058 57.7132 103.33 57.3852C103.602 57.0572 103.738 56.5932 103.738 56.0012C103.738 55.4092 103.61 54.9052 103.346 54.5612C103.082 54.2172 102.722 54.0492 102.266 54.0492Z" fill="#F47920"/>
<path d="M108.402 56.889V58.937H107.066V53.001H109.162C110.658 53.001 111.41 53.633 111.41 54.897C111.41 55.497 111.194 55.977 110.77 56.345C110.338 56.713 109.77 56.897 109.05 56.897H108.41L108.402 56.889ZM108.402 54.025V55.873H108.93C109.642 55.873 110.002 55.561 110.002 54.937C110.002 54.313 109.642 54.025 108.93 54.025H108.402Z" fill="#F47920"/>
<path d="M116.77 58.937H113.21V53.001H116.634V54.089H114.546V55.409H116.49V56.497H114.546V57.857H116.77V58.945V58.937Z" fill="#F47920"/>
</g>
</svg>
