<svg width="99" height="154" viewBox="0 0 99 154" fill="none" xmlns="http://www.w3.org/2000/svg">
<path d="M68.1819 94.3407C86.2497 87.0803 98.9868 69.6192 98.9868 49.2216C98.9868 22.3143 76.8276 0.5 49.4925 0.5C22.1592 0.5 0 22.3143 0 49.2235C0 69.9909 13.2037 87.7151 31.7942 94.7252L12.5262 144.065C12.0278 145.636 12.9163 147.307 14.5103 147.8C16.1061 148.291 17.8047 147.416 18.3049 145.846L24.0724 131.075L46.6628 136.404C46.7095 136.416 46.7562 136.422 46.8028 136.431V150.137C46.8028 151.782 48.1579 153.116 49.8284 153.116C51.5008 153.116 52.8559 151.782 52.8559 150.137V136.273L76.2788 130.584L82.3151 145.574C82.8284 147.14 84.5344 148.001 86.1247 147.497C87.7149 146.991 88.5885 145.313 88.0752 143.745L68.1819 94.3407ZM68.9135 112.289L52.8559 115.196V104.263L65.0013 102.576L68.9135 112.289ZM49.5261 36.458C42.5005 36.458 36.8058 42.0661 36.8058 48.9806C36.8058 54.3569 40.2458 58.9384 45.0763 60.7158L43.0922 65.7977C36.2999 63.2549 31.4675 56.8022 31.4675 49.2235C31.4675 39.4221 39.5365 31.4773 49.4925 31.4773C59.4484 31.4773 67.5211 39.4221 67.5211 49.2235C67.5211 56.5465 63.0154 62.828 56.5852 65.5401L54.5507 60.4876C59.077 58.5704 62.2482 54.1417 62.2482 48.9806C62.2463 42.0643 56.5516 36.458 49.5261 36.458ZM40.7758 71.7278L37.4777 80.1731C24.8246 75.4114 15.8374 63.3542 15.8374 49.2235C15.8374 30.9253 30.9057 16.0917 49.4925 16.0917C68.0811 16.0917 83.1494 30.9253 83.1494 49.2235C83.1494 63.0396 74.556 74.876 62.3471 79.8475L58.9594 71.4371C67.7712 67.7959 73.9587 59.2217 73.9587 49.2235C73.9587 35.9226 63.006 25.1405 49.4943 25.1405C35.9845 25.1405 25.0299 35.9226 25.0299 49.2235C25.0281 59.5014 31.5702 68.2706 40.7758 71.7278ZM56.561 81.6193C55.3477 81.8733 54.1121 82.0683 52.8559 82.1916V73.0747C52.9399 73.0636 53.0239 73.0563 53.1079 73.0434L56.561 81.6193ZM58.4032 86.1953L61.3523 93.5164C58.6123 94.2266 55.7696 94.6866 52.8559 94.8927V87.0748C54.7467 86.9128 56.5983 86.6148 58.4032 86.1953ZM62.4535 96.2487L63.5492 98.97L52.8559 100.457V97.8219C56.1541 97.6048 59.3626 97.0712 62.4535 96.2487ZM2.96962 49.2235C2.96962 23.9298 23.798 3.42367 49.4925 3.42367C75.1869 3.42367 96.0172 23.9298 96.0172 49.2235C96.0172 68.3865 84.0566 84.7932 67.0881 91.6249L64.167 84.3682C78.1976 78.6718 88.0994 65.0691 88.0994 49.2235C88.0994 28.2666 70.7819 11.2195 49.4925 11.2195C28.2067 11.2195 10.8892 28.2684 10.8892 49.2235C10.8892 65.3966 21.2092 79.2366 35.7045 84.7123L32.86 91.9985C15.3819 85.4059 2.96962 68.7471 2.96962 49.2235ZM46.8028 130.159L26.3178 125.327L29.5637 117.011L46.8028 120.131V130.159ZM46.8028 115.32L31.3201 112.517L35.1371 102.736L46.8028 104.357V115.32ZM46.8028 100.552L36.5482 99.1282L37.5692 96.5155C40.55 97.2404 43.6353 97.7078 46.8028 97.8734V100.552ZM46.8028 94.9424C44.0086 94.7841 41.2854 94.3793 38.6443 93.7574L41.5169 86.405C43.2396 86.7638 45.0035 87.0012 46.8028 87.1226V94.9424ZM46.8028 82.2412C45.6232 82.1492 44.4622 81.9984 43.3199 81.7905L46.6964 73.1464C46.7319 73.1501 46.7674 73.1574 46.8047 73.1611V82.2412H46.8028ZM49.4925 52.9531C46.9745 52.9531 44.9344 50.9438 44.9344 48.4636C44.9344 45.9852 46.9745 43.976 49.4925 43.976C52.0123 43.976 54.0524 45.9852 54.0524 48.4636C54.0524 50.9438 52.0123 52.9531 49.4925 52.9531ZM52.8559 129.982V120.008L70.6326 116.788C70.6606 116.784 70.6886 116.775 70.7185 116.768L73.9737 124.854L52.8559 129.982Z" fill="#90A4B1"/>
</svg>
