<svg width="127" height="129" viewBox="0 0 127 129" fill="none" xmlns="http://www.w3.org/2000/svg">
<g clip-path="url(#clip0_145_1125)">
<path d="M61.6559 129.148C61.0661 129.148 60.4698 129.139 59.8826 129.123C59.5309 129.113 59.2543 128.82 59.2646 128.469C59.2742 128.118 59.5668 127.84 59.9192 127.851C60.4936 127.867 61.0783 127.876 61.6559 127.876C63.3772 127.876 65.1152 127.802 66.821 127.657C67.1715 127.627 67.4795 127.886 67.5091 128.236C67.5392 128.587 67.2793 128.895 66.9289 128.924C65.1877 129.073 63.4131 129.148 61.6559 129.148ZM52.9512 128.529C52.921 128.529 52.8902 128.526 52.8601 128.522C50.5374 128.189 48.2128 127.717 45.9492 127.119C45.6091 127.03 45.4063 126.681 45.4961 126.342C45.586 126.002 45.9345 125.799 46.2746 125.889C48.4907 126.474 50.7672 126.936 53.0411 127.263C53.3889 127.312 53.6309 127.635 53.5808 127.983C53.5352 128.3 53.2625 128.529 52.9512 128.529ZM73.78 127.937C73.4835 127.937 73.2178 127.729 73.1568 127.428C73.0869 127.083 73.3096 126.747 73.6542 126.677C75.9037 126.222 78.1494 125.63 80.3289 124.918C80.6626 124.808 81.0227 124.991 81.1318 125.325C81.2409 125.659 81.0586 126.018 80.7243 126.127C78.4979 126.854 76.2047 127.459 73.9071 127.924C73.8647 127.933 73.8217 127.937 73.78 127.937ZM39.4799 124.972C39.4029 124.972 39.324 124.958 39.2476 124.928C37.0681 124.072 34.9136 123.079 32.8451 121.977C32.5344 121.812 32.417 121.427 32.5826 121.117C32.7481 120.806 33.1339 120.689 33.4439 120.854C35.47 121.934 37.5789 122.906 39.7129 123.743C40.0402 123.871 40.2013 124.241 40.073 124.568C39.9741 124.819 39.7341 124.972 39.4799 124.972ZM27.1864 118.423C27.0612 118.423 26.9354 118.387 26.825 118.31C24.899 116.98 23.0282 115.523 21.2651 113.979C21.0001 113.748 20.9738 113.346 21.2055 113.082C21.4372 112.817 21.8396 112.791 22.104 113.023C23.831 114.534 25.6627 115.961 27.549 117.263C27.8378 117.464 27.9103 117.86 27.7107 118.149C27.5868 118.328 27.3885 118.423 27.1864 118.423ZM16.7078 109.251C16.5345 109.251 16.3618 109.181 16.236 109.043C14.6611 107.309 13.1702 105.465 11.8044 103.565C11.5991 103.279 11.6645 102.881 11.9501 102.677C12.2357 102.472 12.6336 102.537 12.839 102.822C14.1759 104.684 15.6366 106.489 17.1788 108.187C17.4157 108.447 17.3958 108.85 17.1358 109.086C17.0139 109.197 16.8605 109.251 16.7078 109.251Z" fill="#B18B8A"/>
<path d="M118.326 90.2497C118.251 90.2497 118.174 90.2356 118.099 90.2067C117.77 90.0809 117.606 89.7125 117.733 89.3845C118.555 87.2448 119.261 85.0338 119.831 82.8132C119.919 82.4724 120.266 82.2677 120.606 82.355C120.947 82.4422 121.152 82.7888 121.065 83.129C120.483 85.3977 119.761 87.6556 118.921 89.8415C118.824 90.0944 118.582 90.2497 118.326 90.2497ZM121.788 76.7649C121.759 76.7649 121.73 76.763 121.701 76.7585C121.353 76.7117 121.109 76.3908 121.156 76.0423C121.465 73.7774 121.646 71.4631 121.696 69.1635C121.703 68.8169 121.987 68.541 122.332 68.541C122.336 68.541 122.341 68.541 122.346 68.541C122.697 68.5487 122.976 68.8394 122.968 69.1905C122.919 71.5382 122.734 73.9012 122.418 76.2143C122.375 76.5332 122.101 76.7649 121.788 76.7649Z" fill="#B18B8A"/>
<path d="M16.0576 28.4763C15.9081 28.4763 15.7586 28.4237 15.6373 28.3178C15.3735 28.0854 15.3472 27.6837 15.5795 27.4199C17.1262 25.6614 18.791 23.9741 20.5284 22.4036C20.7896 22.1674 21.192 22.188 21.4275 22.4485C21.6637 22.7091 21.6438 23.1115 21.3826 23.3471C19.6812 24.8854 18.0504 26.5381 16.5358 28.26C16.41 28.4031 16.2341 28.4763 16.0576 28.4763ZM26.3886 19.1382C26.1903 19.1382 25.9945 19.0457 25.8707 18.8718C25.6659 18.5862 25.732 18.1883 26.0176 17.9842C27.9244 16.621 29.9294 15.3554 31.9774 14.222C32.2848 14.0513 32.6724 14.1623 32.8425 14.4697C33.0132 14.7772 32.9022 15.1648 32.5941 15.3349C30.5892 16.4452 28.6259 17.6845 26.7589 19.0194C26.6466 19.0997 26.517 19.1382 26.3886 19.1382ZM38.5724 12.3935C38.3215 12.3935 38.084 12.2453 37.9833 11.9995C37.8491 11.6747 38.0044 11.3025 38.3298 11.169C40.4959 10.2782 42.7377 9.50418 44.9917 8.86944C45.3305 8.77446 45.6822 8.97149 45.7772 9.30971C45.8729 9.64794 45.6758 9.999 45.337 10.0946C43.1298 10.7159 40.9355 11.4732 38.8144 12.346C38.7348 12.3781 38.6527 12.3935 38.5724 12.3935ZM51.975 8.61978C51.6676 8.61978 51.3974 8.39708 51.3474 8.08389C51.2915 7.73732 51.5277 7.41064 51.8749 7.35545C54.1828 6.98577 56.5421 6.7451 58.8878 6.64113C59.2408 6.62509 59.5367 6.89785 59.5521 7.24891C59.5681 7.59997 59.296 7.89712 58.9443 7.91253C56.6467 8.01457 54.3362 8.24947 52.0764 8.61144C52.0424 8.61722 52.0084 8.61978 51.975 8.61978Z" fill="#B18B8A"/>
<path d="M106.216 67.8639C106.216 68.5923 106.198 69.3207 106.162 70.0485C106.126 70.7763 106.073 71.5035 106.001 72.2287C105.929 72.9539 105.84 73.6766 105.733 74.3973C105.627 75.1181 105.501 75.8363 105.36 76.5512C105.217 77.2655 105.057 77.9766 104.88 78.6833C104.703 79.3905 104.509 80.0926 104.297 80.7896C104.085 81.4873 103.856 82.1791 103.611 82.8652C103.365 83.5513 103.103 84.2309 102.824 84.9042C102.545 85.5774 102.249 86.2436 101.938 86.9021C101.626 87.5612 101.298 88.212 100.954 88.8544C100.61 89.4969 100.251 90.131 99.8761 90.7561C99.5013 91.3812 99.111 91.9966 98.7061 92.6025C98.3011 93.2084 97.8807 93.8039 97.4469 94.3893C97.0124 94.9746 96.5638 95.549 96.101 96.1125C95.6383 96.676 95.1621 97.2273 94.6724 97.7677C94.1827 98.3074 93.6802 98.835 93.1642 99.3503C92.6488 99.8657 92.1206 100.368 91.5802 100.857C91.0398 101.347 90.4879 101.823 89.9244 102.285C89.3609 102.747 88.7858 103.195 88.1999 103.629C87.6146 104.064 87.0183 104.483 86.4118 104.888C85.8053 105.293 85.1899 105.682 84.5641 106.057C83.939 106.432 83.3043 106.791 82.6612 107.135C82.0181 107.478 81.3667 107.805 80.7076 108.117C80.0484 108.429 79.3823 108.724 78.7084 109.003C78.0345 109.281 77.3542 109.544 76.6675 109.789C75.9814 110.035 75.2889 110.263 74.5913 110.475C73.893 110.686 73.1902 110.881 72.483 111.058C71.7757 111.235 71.0646 111.394 70.349 111.537C69.634 111.679 68.9159 111.804 68.1945 111.91C67.4731 112.017 66.7492 112.107 66.0239 112.178C65.2981 112.249 64.5709 112.303 63.8425 112.339C63.114 112.374 62.3856 112.392 61.6559 112.392C60.9268 112.392 60.1977 112.374 59.4699 112.339C58.7415 112.303 58.0143 112.249 57.2885 112.178C56.5626 112.107 55.8393 112.017 55.1179 111.91C54.3965 111.804 53.6784 111.679 52.9628 111.537C52.2478 111.394 51.5361 111.235 50.8288 111.058C50.1215 110.881 49.4188 110.686 48.7211 110.475C48.0235 110.263 47.331 110.035 46.6443 109.789C45.9576 109.544 45.2779 109.281 44.604 109.003C43.9301 108.724 43.2633 108.429 42.6042 108.117C41.9451 107.805 41.2943 107.478 40.6506 107.135C40.0075 106.791 39.3734 106.432 38.7476 106.057C38.1225 105.682 37.5064 105.293 36.8999 104.888C36.2941 104.483 35.6978 104.064 35.1119 103.629C34.5259 103.195 33.9515 102.747 33.388 102.285C32.8239 101.823 32.2719 101.347 31.7315 100.857C31.1912 100.368 30.6636 99.8657 30.1476 99.3503C29.6322 98.835 29.1291 98.3074 28.6394 97.7677C28.1497 97.2273 27.6735 96.676 27.2114 96.1125C26.7486 95.549 26.3 94.9746 25.8655 94.3893C25.431 93.8039 25.0113 93.2084 24.6063 92.6025C24.2007 91.9966 23.8112 91.3812 23.4363 90.7561C23.0609 90.131 22.7021 89.4969 22.3581 88.8544C22.0141 88.212 21.6868 87.5612 21.3749 86.9021C21.063 86.2436 20.7678 85.5774 20.4886 84.9042C20.2094 84.2309 19.9469 83.5513 19.7011 82.8652C19.4559 82.1791 19.2268 81.4873 19.015 80.7896C18.8039 80.0926 18.6094 79.3905 18.4316 78.6833C18.2545 77.9766 18.0953 77.2655 17.9528 76.5512C17.8104 75.8363 17.6859 75.1181 17.5787 74.3973C17.4721 73.6766 17.3823 72.9539 17.3111 72.2287C17.2398 71.5035 17.1859 70.7763 17.15 70.0485C17.1147 69.3207 17.0967 68.5923 17.0967 67.8639C17.0967 67.1354 17.1147 66.407 17.15 65.6792C17.1859 64.9514 17.2398 64.2243 17.3111 63.499C17.3823 62.7738 17.4721 62.0511 17.5787 61.3304C17.6859 60.609 17.8104 59.8915 17.9528 59.1765C18.0953 58.4622 18.2545 57.7511 18.4316 57.0445C18.6094 56.3372 18.8039 55.6351 19.015 54.9381C19.2268 54.2405 19.4559 53.5486 19.7011 52.8626C19.9469 52.1765 20.2094 51.4968 20.4886 50.8236C20.7678 50.1503 21.063 49.4841 21.3749 48.8257C21.6868 48.1665 22.0141 47.5158 22.3581 46.8733C22.7021 46.2309 23.0609 45.5968 23.4363 44.9717C23.8112 44.3466 24.2007 43.7311 24.6063 43.1252C25.0113 42.5194 25.431 41.9238 25.8655 41.3385C26.3 40.7532 26.7486 40.1788 27.2114 39.6153C27.6735 39.0518 28.1497 38.5005 28.6394 37.9601C29.1291 37.4203 29.6322 36.8928 30.1476 36.3774C30.6636 35.862 31.1912 35.3595 31.7315 34.8705C32.2719 34.3808 32.8239 33.9052 33.388 33.4431C33.9515 32.9804 34.5259 32.5324 35.1119 32.0986C35.6978 31.6641 36.2941 31.2443 36.8999 30.84C37.5064 30.435 38.1225 30.0455 38.7476 29.6707C39.3734 29.2958 40.0075 28.9371 40.6506 28.5931C41.2943 28.2497 41.9451 27.9224 42.6042 27.6105C43.2633 27.2992 43.9301 27.004 44.604 26.7248C45.2779 26.4463 45.9576 26.1838 46.6443 25.9386C47.331 25.6928 48.0235 25.4643 48.7211 25.2525C49.4188 25.0414 50.1215 24.8469 50.8288 24.6698C51.5361 24.4927 52.2478 24.3328 52.9628 24.191C53.6784 24.0485 54.3965 23.924 55.1179 23.8175C55.8393 23.7103 56.5626 23.6211 57.2885 23.5499C58.0143 23.4786 58.7415 23.4247 59.4699 23.3888C60.1977 23.3535 60.9268 23.3355 61.6559 23.3355C62.3856 23.3355 63.114 23.3535 63.8425 23.3888C64.5709 23.4247 65.2981 23.4786 66.0239 23.5499C66.7492 23.6211 67.4731 23.7103 68.1945 23.8175C68.9159 23.924 69.634 24.0485 70.349 24.191C71.0646 24.3328 71.7757 24.4927 72.483 24.6698C73.1902 24.8469 73.893 25.0414 74.5913 25.2525C75.2889 25.4643 75.9814 25.6928 76.6675 25.9386C77.3542 26.1838 78.0345 26.4463 78.7084 26.7248C79.3823 27.004 80.0484 27.2992 80.7076 27.6105C81.3667 27.9224 82.0181 28.2497 82.6612 28.5931C83.3043 28.9371 83.939 29.2958 84.5641 29.6707C85.1899 30.0455 85.8053 30.435 86.4118 30.84C87.0183 31.2443 87.6146 31.6641 88.1999 32.0986C88.7858 32.5324 89.3609 32.9804 89.9244 33.4431C90.4879 33.9052 91.0398 34.3808 91.5802 34.8705C92.1206 35.3595 92.6488 35.862 93.1642 36.3774C93.6802 36.8928 94.1827 37.4203 94.6724 37.9601C95.1621 38.5005 95.6383 39.0518 96.101 39.6153C96.5638 40.1788 97.0124 40.7532 97.4469 41.3385C97.8807 41.9238 98.3011 42.5194 98.7061 43.1252C99.111 43.7311 99.5013 44.3466 99.8761 44.9717C100.251 45.5968 100.61 46.2309 100.954 46.8733C101.298 47.5158 101.626 48.1665 101.938 48.8257C102.249 49.4841 102.545 50.1503 102.824 50.8236C103.103 51.4968 103.365 52.1765 103.611 52.8626C103.856 53.5486 104.085 54.2405 104.297 54.9381C104.509 55.6351 104.703 56.3372 104.88 57.0445C105.057 57.7511 105.217 58.4622 105.36 59.1765C105.501 59.8915 105.627 60.609 105.733 61.3304C105.84 62.0511 105.929 62.7738 106.001 63.499C106.073 64.2243 106.126 64.9514 106.162 65.6792C106.198 66.407 106.216 67.1354 106.216 67.8639Z" fill="#B18B8A"/>
<path d="M0.966461 47.184V34.7254C0.966461 33.7364 1.7687 32.9348 2.75835 32.9348H53.4377C54.428 32.9348 55.2302 33.7364 55.2302 34.7261V47.184H0.966461Z" fill="white"/>
<path d="M55.2302 47.82C54.8785 47.82 54.5936 47.5357 54.5936 47.184V34.7261C54.5936 34.0894 54.075 33.5708 53.4377 33.5708H2.75835C2.12105 33.5708 1.60312 34.0888 1.60312 34.7254V47.184C1.60312 47.5357 1.31752 47.82 0.966457 47.82C0.614754 47.82 0.329155 47.535 0.329155 47.184V34.7254C0.329155 33.3873 1.41892 32.2982 2.75835 32.2982H53.4377C54.7771 32.2982 55.8669 33.3873 55.8669 34.7261V47.184C55.8669 47.5357 55.5819 47.82 55.2302 47.82Z" fill="#B18B8A"/>
<path d="M55.2302 47.184V97.0707C55.2302 98.0597 54.428 98.8613 53.4383 98.8613H2.75771C1.7687 98.8613 0.966461 98.0597 0.966461 97.0707V47.184H55.2302Z" fill="white"/>
<path d="M53.4383 99.498H2.75771C1.41892 99.498 0.329155 98.4088 0.329155 97.0707V47.184C0.329155 46.8323 0.614754 46.5479 0.965816 46.5479C1.31752 46.5479 1.60248 46.8323 1.60248 47.184V97.0707C1.60248 97.7073 2.12105 98.2253 2.75771 98.2253H53.4383C54.0756 98.2253 54.5936 97.7073 54.5936 97.0707V47.184C54.5936 46.8323 54.8785 46.5479 55.2302 46.5479C55.5819 46.5479 55.8669 46.8323 55.8669 47.184V97.0707C55.8669 98.4088 54.7778 99.498 53.4383 99.498Z" fill="#B18B8A"/>
<path d="M42.6639 75.2657H13.4391C12.126 75.2657 11.0613 74.2016 11.0613 72.8898V55.3059C11.0613 53.9934 12.126 52.9293 13.4391 52.9293H42.6639C43.977 52.9293 45.0411 53.9934 45.0411 55.3059V72.8898C45.0411 74.2016 43.977 75.2657 42.6639 75.2657Z" fill="white"/>
<path d="M42.6639 75.9017H13.4385C11.7769 75.9017 10.4246 74.5507 10.4246 72.8898V55.3059C10.4246 53.6449 11.7769 52.2933 13.4385 52.2933H42.6639C44.3261 52.2933 45.6777 53.6449 45.6777 55.3059V72.8898C45.6777 74.5501 44.3255 75.9017 42.6639 75.9017ZM13.4385 53.566C12.479 53.566 11.6979 54.3464 11.6979 55.3059V72.8898C11.6979 73.8486 12.479 74.629 13.4385 74.629H42.6639C43.624 74.629 44.4044 73.8486 44.4044 72.8898V55.3059C44.4044 54.3464 43.6234 53.566 42.6639 53.566H13.4385Z" fill="#B18B8A"/>
<path d="M55.2302 47.82H0.965816C0.614754 47.82 0.329155 47.5357 0.329155 47.184C0.329155 46.8329 0.614754 46.5479 0.965816 46.5479H55.2302C55.5819 46.5479 55.8669 46.8329 55.8669 47.184C55.8669 47.5357 55.5819 47.82 55.2302 47.82Z" fill="#B18B8A"/>
<path d="M40.3784 61.0467C40.3784 63.0292 38.7701 64.6356 36.787 64.6356C34.8032 64.6356 33.1955 63.0286 33.1955 61.0467C33.1955 59.0649 34.8032 57.4578 36.787 57.4578C38.7701 57.4578 40.3784 59.0649 40.3784 61.0467Z" fill="white"/>
<path d="M36.787 65.2717C34.456 65.2717 32.5588 63.3764 32.5588 61.0467C32.5588 58.717 34.4553 56.8218 36.787 56.8218C39.1186 56.8218 41.0151 58.717 41.0151 61.0467C41.0151 63.3764 39.118 65.2717 36.787 65.2717ZM36.787 58.0945C35.1581 58.0945 33.8321 59.4185 33.8321 61.0467C33.8321 62.675 35.1581 63.999 36.787 63.999C38.4158 63.999 39.7418 62.675 39.7418 61.0467C39.7418 59.4185 38.4158 58.0945 36.787 58.0945Z" fill="#B18B8A"/>
<path d="M39.4048 75.9024C39.2425 75.9024 39.0801 75.8407 38.9556 75.7169L26.4438 63.2699C25.7109 62.5415 24.5197 62.5415 23.7874 63.2699L21.4051 65.6452C21.156 65.8936 20.753 65.8929 20.5046 65.6439C20.2563 65.3955 20.2569 64.9925 20.5059 64.7441L22.8883 62.3688C24.1166 61.1462 26.1146 61.1462 27.3423 62.3682L39.8541 74.8152C40.1031 75.0629 40.1044 75.4659 39.856 75.715C39.7315 75.8401 39.5685 75.9024 39.4048 75.9024Z" fill="#B18B8A"/>
<path d="M30.9787 75.9017C30.8157 75.9017 30.6533 75.8401 30.5288 75.7156L10.6107 55.8116C10.3623 55.5632 10.3623 55.1602 10.6107 54.9118C10.8597 54.6634 11.2628 54.6634 11.5112 54.9118L31.4293 74.8158C31.6776 75.0642 31.6776 75.4672 31.4293 75.7156C31.3048 75.8401 31.1417 75.9017 30.9787 75.9017Z" fill="#B18B8A"/>
<path d="M44.5289 87.8519H11.6678C11.316 87.8519 11.0311 87.567 11.0311 87.2153C11.0311 86.8642 11.316 86.5793 11.6678 86.5793H44.5289C44.8806 86.5793 45.1656 86.8642 45.1656 87.2153C45.1656 87.567 44.8806 87.8519 44.5289 87.8519Z" fill="#B18B8A"/>
<path d="M44.5289 82.0687H11.6678C11.316 82.0687 11.0311 81.7838 11.0311 81.4327C11.0311 81.081 11.316 80.7967 11.6678 80.7967H44.5289C44.8806 80.7967 45.1656 81.081 45.1656 81.4327C45.1656 81.7838 44.8806 82.0687 44.5289 82.0687Z" fill="#B18B8A"/>
<path d="M44.5289 93.6352H11.6678C11.316 93.6352 11.0311 93.3502 11.0311 92.9985C11.0311 92.6474 11.316 92.3625 11.6678 92.3625H44.5289C44.8806 92.3625 45.1656 92.6474 45.1656 92.9985C45.1656 93.3502 44.8806 93.6352 44.5289 93.6352Z" fill="#B18B8A"/>
<path d="M17.7218 44.973C17.4388 44.973 17.1885 44.7862 17.1102 44.5135L15.5147 38.9947L13.9198 44.5135C13.8396 44.7907 13.5835 44.9813 13.2934 44.973C13.0046 44.9666 12.7562 44.7663 12.6888 44.4852L10.8559 36.8498C10.7737 36.5083 10.9849 36.165 11.327 36.0828C11.6684 36.0013 12.0124 36.2112 12.0945 36.5533L13.3653 41.8468L14.903 36.525C14.9813 36.2529 15.231 36.0655 15.5147 36.0655C15.7983 36.0655 16.0474 36.2529 16.1263 36.525L17.6647 41.8468L18.9354 36.5533C19.0176 36.2118 19.3616 36.0013 19.703 36.0828C20.0451 36.165 20.2556 36.5083 20.1735 36.8504L18.3405 44.4852C18.2731 44.7663 18.0247 44.9666 17.7359 44.973C17.7314 44.973 17.7263 44.973 17.7218 44.973Z" fill="#B18B8A"/>
<path d="M29.7561 44.973C29.4731 44.973 29.2234 44.7862 29.1445 44.5134L27.5496 38.9947L25.9541 44.5134C25.8745 44.7907 25.6178 44.98 25.3284 44.973C25.0389 44.9666 24.7912 44.7657 24.7238 44.4852L22.8908 36.8498C22.8093 36.5083 23.0198 36.165 23.3619 36.0828C23.7033 36.0013 24.0473 36.2118 24.1295 36.5533L25.3996 41.8468L26.938 36.525C27.0169 36.2529 27.2659 36.0655 27.5496 36.0655C27.8333 36.0655 28.0829 36.2529 28.1612 36.525L29.699 41.8468L30.9697 36.5533C31.0519 36.2118 31.3959 36.0007 31.738 36.0828C32.0794 36.165 32.2905 36.5083 32.2084 36.8504L30.3754 44.4852C30.308 44.7663 30.0597 44.9666 29.7709 44.973C29.7657 44.973 29.7606 44.973 29.7561 44.973Z" fill="#B18B8A"/>
<path d="M41.7904 44.973C41.508 44.973 41.2577 44.7862 41.1794 44.5134L39.5845 38.9947L37.989 44.5134C37.9088 44.7907 37.6527 44.98 37.3627 44.973C37.0738 44.9666 36.8255 44.7657 36.7581 44.4852L34.9258 36.8498C34.8436 36.5083 35.0548 36.165 35.3968 36.0828C35.7383 36.0013 36.0823 36.2118 36.1644 36.5533L37.4345 41.8468L38.9729 36.525C39.0512 36.2529 39.3009 36.0655 39.5845 36.0655C39.8682 36.0655 40.1172 36.2529 40.1962 36.525L41.7339 41.8468L43.0047 36.5533C43.0868 36.2118 43.4302 36.0007 43.7723 36.0828C44.1143 36.165 44.3248 36.5083 44.2427 36.8504L42.4097 44.4852C42.3423 44.7663 42.094 44.9666 41.8052 44.973C41.8007 44.973 41.7955 44.973 41.7904 44.973Z" fill="#B18B8A"/>
<path d="M46.6064 44.973C46.5647 44.973 46.523 44.9691 46.4819 44.9608C46.4408 44.9524 46.4011 44.9402 46.3625 44.9242C46.324 44.9082 46.2875 44.8883 46.2528 44.8658C46.2181 44.8427 46.1854 44.8164 46.1565 44.7869C46.1264 44.7573 46.1 44.7246 46.0769 44.6899C46.0538 44.6553 46.0339 44.6187 46.0185 44.5802C46.0025 44.5417 45.9897 44.5013 45.982 44.4608C45.9736 44.4198 45.9698 44.378 45.9698 44.337C45.9698 44.2952 45.9736 44.2535 45.982 44.2125C45.9897 44.172 46.0025 44.1316 46.0185 44.0937C46.0339 44.0552 46.0538 44.018 46.0769 43.9833C46.1 43.9487 46.1264 43.9166 46.1565 43.8871C46.1854 43.8575 46.2181 43.8306 46.2528 43.8081C46.2875 43.785 46.324 43.7651 46.3625 43.7491C46.4011 43.7337 46.4408 43.7208 46.4819 43.7131C46.5634 43.6965 46.6481 43.6965 46.7303 43.7131C46.7714 43.7208 46.8112 43.7337 46.8497 43.7491C46.8882 43.7651 46.9254 43.785 46.9594 43.8081C46.9941 43.8306 47.0268 43.8575 47.0563 43.8871C47.0711 43.9012 47.0852 43.9166 47.098 43.9333C47.1115 43.9493 47.1244 43.966 47.1359 43.9833C47.1584 44.018 47.1783 44.0552 47.1937 44.0937C47.2097 44.1316 47.2225 44.172 47.2303 44.2125C47.2386 44.2535 47.2424 44.2952 47.2424 44.337C47.2424 44.378 47.2386 44.4198 47.2303 44.4608C47.2225 44.5013 47.2097 44.5417 47.1937 44.5802C47.1783 44.6187 47.1584 44.6553 47.1359 44.6899C47.1244 44.7073 47.1115 44.7246 47.098 44.7407C47.0852 44.7567 47.0711 44.7721 47.0563 44.7869C47.0268 44.8164 46.9941 44.8427 46.9594 44.8658C46.9254 44.8883 46.8882 44.9082 46.8497 44.9242C46.8112 44.9402 46.7714 44.9524 46.7303 44.9608C46.6892 44.9691 46.6475 44.973 46.6064 44.973Z" fill="#B18B8A"/>
<path d="M65.4052 14.7701V2.31222C65.4052 1.32322 66.2075 0.520973 67.1971 0.520973H117.876C118.867 0.520973 119.67 1.32322 119.67 2.31286V14.7701H65.4052Z" fill="white"/>
<path d="M119.67 15.4068C119.318 15.4068 119.033 15.1218 119.033 14.7707V2.31286C119.033 1.67556 118.514 1.15763 117.876 1.15763H67.1971C66.5605 1.15763 66.0419 1.67556 66.0419 2.31222V14.7701C66.0419 15.1218 65.7569 15.4068 65.4052 15.4068C65.0535 15.4068 64.7686 15.1218 64.7686 14.7701V2.31222C64.7686 0.973433 65.8584 -0.115051 67.1971 -0.115051H117.876C119.217 -0.115051 120.306 0.974075 120.306 2.31286V14.7707C120.306 15.1218 120.021 15.4068 119.67 15.4068Z" fill="#B18B8A"/>
<path d="M119.67 14.7701V57.4578C119.67 58.4468 118.867 59.2491 117.878 59.2491H67.1971C66.2075 59.2491 65.4052 58.4468 65.4052 57.4585V14.7707L119.67 14.7701Z" fill="white"/>
<path d="M117.878 59.8851H67.1971C65.8577 59.8851 64.7686 58.7959 64.7686 57.4578V14.7701C64.7686 14.419 65.0535 14.1341 65.4052 14.1341C65.7569 14.1341 66.0419 14.419 66.0419 14.7701V57.4584C66.0419 58.0945 66.5598 58.6124 67.1971 58.6124H117.878C118.514 58.6124 119.033 58.0945 119.033 57.4584V14.7707C119.033 14.419 119.318 14.1341 119.67 14.1341C120.021 14.1341 120.306 14.419 120.306 14.7707V57.4584C120.306 58.7959 119.217 59.8851 117.878 59.8851Z" fill="#B18B8A"/>
<path d="M119.67 15.4068H65.4052C65.0535 15.4068 64.7686 15.1218 64.7686 14.7707C64.7686 14.419 65.0535 14.1341 65.4052 14.1341H119.67C120.021 14.1341 120.306 14.419 120.306 14.7707C120.306 15.1218 120.021 15.4068 119.67 15.4068Z" fill="#B18B8A"/>
<path d="M89.2377 33.567H70.8945C70.0705 33.567 69.4023 32.8989 69.4023 32.0755V21.0392C69.4023 20.2157 70.0705 19.5476 70.8945 19.5476H89.2377C90.0617 19.5476 90.7298 20.2157 90.7298 21.0392V32.0755C90.7298 32.8989 90.0617 33.567 89.2377 33.567Z" fill="white"/>
<path d="M89.2377 34.203H70.8945C69.7207 34.203 68.7657 33.2487 68.7657 32.0755V21.0392C68.7657 19.866 69.7207 18.9116 70.8945 18.9116H89.2377C90.4115 18.9116 91.3665 19.866 91.3665 21.0392V32.0755C91.3665 33.2487 90.4115 34.203 89.2377 34.203ZM70.8945 20.1836C70.4228 20.1836 70.039 20.5674 70.039 21.0392V32.0755C70.039 32.5472 70.4228 32.9303 70.8945 32.9303H89.2377C89.7094 32.9303 90.0932 32.5472 90.0932 32.0755V21.0392C90.0932 20.5674 89.7094 20.1836 89.2377 20.1836H70.8945Z" fill="#B18B8A"/>
<path d="M87.8033 24.6422C87.8033 25.8866 86.7937 26.8949 85.5493 26.8949C84.3042 26.8949 83.2953 25.8866 83.2953 24.6422C83.2953 23.3984 84.3042 22.3901 85.5493 22.3901C86.7937 22.3901 87.8033 23.3984 87.8033 24.6422Z" fill="white"/>
<path d="M85.5493 27.5309C83.955 27.5309 82.6586 26.2351 82.6586 24.6422C82.6586 23.0493 83.955 21.7535 85.5493 21.7535C87.1428 21.7535 88.4399 23.0493 88.4399 24.6422C88.4399 26.2351 87.1428 27.5309 85.5493 27.5309ZM85.5493 23.0262C84.6572 23.0262 83.9319 23.7514 83.9319 24.6422C83.9319 25.5337 84.6572 26.2589 85.5493 26.2589C86.4407 26.2589 87.1666 25.5337 87.1666 24.6422C87.1666 23.7514 86.4407 23.0262 85.5493 23.0262Z" fill="#B18B8A"/>
<path d="M87.1923 34.2037C87.0299 34.2037 86.8675 34.1414 86.743 34.0182L78.89 26.2056C78.5223 25.8398 77.9247 25.8398 77.557 26.2056L76.0623 27.6965C75.8132 27.9442 75.4102 27.9442 75.1618 27.6952C74.9134 27.4468 74.9141 27.0438 75.1631 26.7954L76.6585 25.3045C77.5217 24.4452 78.9253 24.4452 79.7885 25.3039L87.6415 33.1165C87.8905 33.3642 87.8918 33.7672 87.6434 34.0163C87.5189 34.1408 87.3559 34.2037 87.1923 34.2037Z" fill="#B18B8A"/>
<path d="M81.9039 34.203C81.7409 34.203 81.5778 34.1408 81.4533 34.0169L68.9524 21.5244C68.7034 21.2753 68.7034 20.8729 68.9524 20.6246C69.2008 20.3755 69.6039 20.3762 69.8529 20.6246L82.3538 33.1171C82.6028 33.3655 82.6028 33.7685 82.3538 34.0169C82.2299 34.1408 82.0669 34.203 81.9039 34.203Z" fill="#B18B8A"/>
<path d="M90.7298 41.463H69.4023C69.0506 41.463 68.7657 41.178 68.7657 40.8263C68.7657 40.4753 69.0506 40.1903 69.4023 40.1903H90.7298C91.0815 40.1903 91.3665 40.4753 91.3665 40.8263C91.3665 41.178 91.0815 41.463 90.7298 41.463Z" fill="#B18B8A"/>
<path d="M90.7298 37.8272H69.4023C69.0506 37.8272 68.7657 37.5423 68.7657 37.1906C68.7657 36.8395 69.0506 36.5546 69.4023 36.5546H90.7298C91.0815 36.5546 91.3665 36.8395 91.3665 37.1906C91.3665 37.5423 91.0815 37.8272 90.7298 37.8272Z" fill="#B18B8A"/>
<path d="M90.7298 45.0988H69.4023C69.0506 45.0988 68.7657 44.8138 68.7657 44.4621C68.7657 44.111 69.0506 43.8261 69.4023 43.8261H90.7298C91.0815 43.8261 91.3665 44.111 91.3665 44.4621C91.3665 44.8138 91.0815 45.0988 90.7298 45.0988Z" fill="#B18B8A"/>
<path d="M90.7298 52.3697H69.4023C69.0506 52.3697 68.7657 52.0853 68.7657 51.7336C68.7657 51.3826 69.0506 51.0976 69.4023 51.0976H90.7298C91.0815 51.0976 91.3665 51.3826 91.3665 51.7336C91.3665 52.0853 91.0815 52.3697 90.7298 52.3697Z" fill="#B18B8A"/>
<path d="M90.7298 48.7345H69.4023C69.0506 48.7345 68.7657 48.4496 68.7657 48.0979C68.7657 47.7468 69.0506 47.4619 69.4023 47.4619H90.7298C91.0815 47.4619 91.3665 47.7468 91.3665 48.0979C91.3665 48.4496 91.0815 48.7345 90.7298 48.7345Z" fill="#B18B8A"/>
<path d="M90.7298 56.0061H69.4023C69.0506 56.0061 68.7657 55.7211 68.7657 55.3694C68.7657 55.0184 69.0506 54.7334 69.4023 54.7334H90.7298C91.0815 54.7334 91.3665 55.0184 91.3665 55.3694C91.3665 55.7211 91.0815 56.0061 90.7298 56.0061Z" fill="#B18B8A"/>
<path d="M114.18 33.567H95.8372C95.0125 33.567 94.3444 32.8989 94.3444 32.0755V21.0392C94.3444 20.2157 95.0125 19.5476 95.8372 19.5476H114.18C115.004 19.5476 115.672 20.2157 115.672 21.0392V32.0755C115.672 32.8989 115.004 33.567 114.18 33.567Z" fill="white"/>
<path d="M114.18 34.203H95.8372C94.6627 34.203 93.7078 33.2487 93.7078 32.0755V21.0392C93.7078 19.866 94.6627 18.9116 95.8372 18.9116H114.18C115.354 18.9116 116.309 19.866 116.309 21.0392V32.0755C116.309 33.2487 115.354 34.203 114.18 34.203ZM95.8372 20.1836C95.3649 20.1836 94.9811 20.5674 94.9811 21.0392V32.0755C94.9811 32.5472 95.3649 32.9303 95.8372 32.9303H114.18C114.651 32.9303 115.035 32.5472 115.035 32.0755V21.0392C115.035 20.5674 114.651 20.1836 114.18 20.1836H95.8372Z" fill="#B18B8A"/>
<path d="M112.745 24.6422C112.745 25.8866 111.736 26.8949 110.491 26.8949C109.246 26.8949 108.237 25.8866 108.237 24.6422C108.237 23.3984 109.246 22.3901 110.491 22.3901C111.736 22.3901 112.745 23.3984 112.745 24.6422Z" fill="white"/>
<path d="M110.491 27.5309C108.897 27.5309 107.601 26.2351 107.601 24.6422C107.601 23.0493 108.897 21.7535 110.491 21.7535C112.086 21.7535 113.382 23.0493 113.382 24.6422C113.382 26.2351 112.086 27.5309 110.491 27.5309ZM110.491 23.0262C109.6 23.0262 108.874 23.7514 108.874 24.6422C108.874 25.5337 109.6 26.2589 110.491 26.2589C111.383 26.2589 112.109 25.5337 112.109 24.6422C112.109 23.7514 111.383 23.0262 110.491 23.0262Z" fill="#B18B8A"/>
<path d="M112.134 34.2037C111.972 34.2037 111.81 34.1414 111.685 34.0182L103.832 26.2056C103.464 25.8398 102.867 25.8398 102.499 26.2056L101.004 27.6965C100.755 27.9442 100.352 27.9442 100.104 27.6952C99.8555 27.4468 99.8562 27.0438 100.105 26.7954L101.601 25.3045C102.464 24.4452 103.868 24.4452 104.731 25.3039L112.584 33.1165C112.833 33.3642 112.834 33.7672 112.586 34.0163C112.462 34.1408 112.298 34.2037 112.134 34.2037Z" fill="#B18B8A"/>
<path d="M106.846 34.203C106.683 34.203 106.52 34.1408 106.396 34.0169L93.8945 21.5244C93.6462 21.2753 93.6462 20.8729 93.8945 20.6246C94.1429 20.3755 94.5466 20.3762 94.795 20.6246L107.296 33.1171C107.545 33.3655 107.545 33.7685 107.296 34.0169C107.172 34.1408 107.009 34.203 106.846 34.203Z" fill="#B18B8A"/>
<path d="M115.672 41.463H94.3444C93.9934 41.463 93.7078 41.178 93.7078 40.8263C93.7078 40.4753 93.9934 40.1903 94.3444 40.1903H115.672C116.024 40.1903 116.309 40.4753 116.309 40.8263C116.309 41.178 116.024 41.463 115.672 41.463Z" fill="#B18B8A"/>
<path d="M115.672 37.8272H94.3444C93.9934 37.8272 93.7078 37.5423 93.7078 37.1906C93.7078 36.8395 93.9934 36.5546 94.3444 36.5546H115.672C116.024 36.5546 116.309 36.8395 116.309 37.1906C116.309 37.5423 116.024 37.8272 115.672 37.8272Z" fill="#B18B8A"/>
<path d="M115.672 45.0988H94.3444C93.9934 45.0988 93.7078 44.8138 93.7078 44.4621C93.7078 44.111 93.9934 43.8261 94.3444 43.8261H115.672C116.024 43.8261 116.309 44.111 116.309 44.4621C116.309 44.8138 116.024 45.0988 115.672 45.0988Z" fill="#B18B8A"/>
<path d="M115.672 52.3697H94.3444C93.9934 52.3697 93.7078 52.0853 93.7078 51.7336C93.7078 51.3826 93.9934 51.0976 94.3444 51.0976H115.672C116.024 51.0976 116.309 51.3826 116.309 51.7336C116.309 52.0853 116.024 52.3697 115.672 52.3697Z" fill="#B18B8A"/>
<path d="M115.672 48.7345H94.3444C93.9934 48.7345 93.7078 48.4496 93.7078 48.0979C93.7078 47.7468 93.9934 47.4619 94.3444 47.4619H115.672C116.024 47.4619 116.309 47.7468 116.309 48.0979C116.309 48.4496 116.024 48.7345 115.672 48.7345Z" fill="#B18B8A"/>
<path d="M115.672 56.0061H94.3444C93.9934 56.0061 93.7078 55.7211 93.7078 55.3694C93.7078 55.0184 93.9934 54.7334 94.3444 54.7334H115.672C116.024 54.7334 116.309 55.0184 116.309 55.3694C116.309 55.7211 116.024 56.0061 115.672 56.0061Z" fill="#B18B8A"/>
<path d="M77.7476 12.5598C77.7425 12.5598 77.738 12.5598 77.7328 12.5591C77.444 12.5527 77.1957 12.3525 77.1283 12.072L75.2953 4.43656C75.2132 4.09513 75.4237 3.75177 75.7657 3.66962C76.1078 3.58747 76.4512 3.79797 76.5333 4.14005L77.8041 9.43294L79.3418 4.11181C79.4208 3.83969 79.6698 3.65229 79.9535 3.65229C80.2371 3.65229 80.4868 3.83969 80.5651 4.11181L82.1035 9.43358L83.3749 4.14005C83.4564 3.79797 83.7997 3.58747 84.1424 3.66962C84.4839 3.75177 84.695 4.09513 84.6129 4.43656L82.7799 12.072C82.7125 12.3525 82.4642 12.5527 82.1753 12.5598C81.8865 12.5668 81.6292 12.3775 81.549 12.1002L79.9535 6.58144L78.3592 12.0996C78.2803 12.3724 78.03 12.5598 77.7476 12.5598Z" fill="#B18B8A"/>
<path d="M94.1949 12.5598C93.9118 12.5598 93.6622 12.3724 93.5832 12.0996L91.989 6.58144L90.3935 12.0996C90.3146 12.3724 90.0649 12.5598 89.7819 12.5598C89.7768 12.5598 89.7723 12.5598 89.7671 12.5591C89.4783 12.5527 89.23 12.3525 89.1626 12.072L87.3302 4.43656C87.2481 4.09513 87.4592 3.75177 87.8007 3.66962C88.1428 3.58747 88.4868 3.79797 88.5683 4.14005L89.839 9.43293L91.3774 4.11181C91.4557 3.83969 91.7054 3.65229 91.989 3.65229C92.2727 3.65229 92.5217 3.83969 92.6007 4.11181L94.1384 9.43293L95.4092 4.14005C95.4907 3.79797 95.8347 3.58747 96.1767 3.66962C96.5188 3.75177 96.7293 4.09513 96.6472 4.43656L94.8142 12.072C94.7468 12.3525 94.4984 12.5527 94.2096 12.5598C94.2045 12.5598 94.2 12.5598 94.1949 12.5598Z" fill="#B18B8A"/>
<path d="M106.23 12.5598C105.947 12.5598 105.697 12.3724 105.618 12.0996L104.023 6.58144L102.428 12.0996C102.35 12.3724 102.1 12.5598 101.817 12.5598C101.812 12.5598 101.807 12.5598 101.802 12.5591C101.513 12.5527 101.265 12.3525 101.198 12.072L99.3652 4.43656C99.283 4.09513 99.4935 3.75177 99.8356 3.66962C100.178 3.58747 100.521 3.79797 100.603 4.14005L101.873 9.43293L103.412 4.11181C103.491 3.83969 103.74 3.65229 104.023 3.65229C104.307 3.65229 104.557 3.83969 104.635 4.11181L106.173 9.43293L107.444 4.14005C107.526 3.79797 107.87 3.58747 108.212 3.66962C108.553 3.75177 108.764 4.09513 108.682 4.43656L106.849 12.072C106.782 12.3525 106.533 12.5527 106.245 12.5598C106.239 12.5598 106.235 12.5598 106.23 12.5598Z" fill="#B18B8A"/>
<path d="M111.045 12.5591C111.003 12.5591 110.962 12.5553 110.921 12.5469C110.88 12.5392 110.84 12.5264 110.802 12.511C110.763 12.4949 110.726 12.475 110.692 12.4526C110.657 12.4288 110.624 12.4025 110.595 12.3736C110.566 12.3441 110.539 12.3114 110.516 12.2761C110.493 12.2421 110.473 12.2055 110.457 12.167C110.441 12.1285 110.429 12.0887 110.421 12.0476C110.417 12.0271 110.414 12.0065 110.412 11.986C110.41 11.9655 110.409 11.9443 110.409 11.9231C110.409 11.882 110.413 11.8403 110.421 11.7992C110.429 11.7588 110.441 11.7184 110.457 11.6799C110.473 11.642 110.493 11.6048 110.516 11.5701C110.539 11.5355 110.565 11.5027 110.595 11.4738C110.624 11.4443 110.657 11.4174 110.692 11.3943C110.726 11.3712 110.763 11.3513 110.802 11.3359C110.84 11.3198 110.88 11.3083 110.921 11.2999C110.941 11.2954 110.962 11.2922 110.983 11.2903C111.024 11.2864 111.066 11.2864 111.108 11.2903C111.129 11.2922 111.149 11.2954 111.17 11.2999C111.21 11.3083 111.25 11.3198 111.288 11.3359C111.327 11.3513 111.364 11.3712 111.398 11.3943C111.433 11.4174 111.466 11.4443 111.496 11.4738C111.51 11.488 111.524 11.504 111.537 11.52C111.55 11.5361 111.563 11.5528 111.575 11.5701C111.597 11.6048 111.617 11.642 111.633 11.6799C111.648 11.7184 111.661 11.7588 111.67 11.7992C111.677 11.8403 111.681 11.882 111.681 11.9231C111.681 11.9443 111.681 11.9655 111.678 11.986C111.676 12.0065 111.673 12.0271 111.67 12.0476C111.661 12.0887 111.648 12.1285 111.633 12.167C111.617 12.2055 111.597 12.2421 111.575 12.2761C111.563 12.2941 111.55 12.3107 111.537 12.3268C111.524 12.3428 111.51 12.3582 111.495 12.3736C111.466 12.4025 111.433 12.4288 111.398 12.4526C111.364 12.475 111.327 12.4949 111.288 12.511C111.25 12.5264 111.21 12.5392 111.17 12.5469C111.149 12.5508 111.129 12.554 111.108 12.5565C111.087 12.5585 111.066 12.5591 111.045 12.5591Z" fill="#B18B8A"/>
<path d="M121.896 47.0909C122.042 47.2366 122.184 47.3855 122.322 47.5376C122.46 47.6903 122.595 47.8463 122.725 48.0048C122.856 48.164 122.983 48.3264 123.105 48.4913C123.228 48.6569 123.347 48.825 123.461 48.9964C123.576 49.1671 123.685 49.341 123.791 49.5175C123.897 49.694 123.999 49.8731 124.095 50.0541C124.193 50.2357 124.285 50.4192 124.373 50.6054C124.461 50.7915 124.545 50.9795 124.624 51.1695C124.703 51.3595 124.776 51.5514 124.846 51.7452C124.915 51.939 124.98 52.1341 125.04 52.3312C125.099 52.5282 125.154 52.7265 125.205 52.9261C125.255 53.1257 125.299 53.3266 125.34 53.5281C125.38 53.7303 125.415 53.9324 125.445 54.1359C125.475 54.34 125.5 54.5441 125.521 54.7488C125.541 54.9535 125.556 55.1583 125.566 55.3643C125.576 55.5697 125.581 55.775 125.581 55.981C125.581 56.1864 125.576 56.3924 125.566 56.5978C125.556 56.8032 125.541 57.0086 125.521 57.2133C125.5 57.418 125.475 57.6221 125.445 57.8256C125.415 58.029 125.38 58.2318 125.34 58.434C125.299 58.6355 125.255 58.8364 125.205 59.036C125.154 59.2356 125.099 59.4339 125.04 59.6303C124.98 59.8273 124.916 60.0231 124.846 60.2162C124.776 60.4101 124.703 60.602 124.624 60.7919C124.545 60.9826 124.461 61.1706 124.373 61.3561C124.285 61.5422 124.193 61.7264 124.096 61.9074C123.999 62.089 123.897 62.2681 123.792 62.4446C123.686 62.6211 123.576 62.795 123.461 62.9657C123.347 63.1371 123.228 63.3052 123.106 63.4701C122.983 63.6357 122.856 63.7981 122.726 63.9566C122.595 64.1158 122.461 64.2718 122.322 64.4239C122.184 64.5766 122.042 64.7255 121.897 64.8712C121.751 65.0162 121.602 65.1581 121.449 65.2967C121.297 65.4347 121.141 65.5688 120.982 65.6997C120.823 65.83 120.661 65.9565 120.495 66.079C120.329 66.2016 120.161 66.3204 119.99 66.4346C119.819 66.5488 119.645 66.6592 119.468 66.7645C119.292 66.8704 119.113 66.9718 118.931 67.0687C118.749 67.1662 118.566 67.2587 118.38 67.3466C118.194 67.4345 118.005 67.5179 117.815 67.5962C117.625 67.6752 117.433 67.749 117.239 67.8183C117.045 67.8876 116.85 67.9524 116.653 68.0121C116.456 68.0718 116.257 68.127 116.058 68.1771C115.857 68.2265 115.657 68.2721 115.455 68.3118C115.253 68.3523 115.05 68.3876 114.847 68.4177C114.642 68.4479 114.438 68.4729 114.234 68.4928C114.029 68.5134 113.824 68.5281 113.618 68.5384C113.412 68.5487 113.206 68.5538 113 68.5538C112.795 68.5538 112.589 68.5487 112.383 68.5384C112.177 68.5281 111.972 68.5134 111.767 68.4928C111.563 68.4729 111.358 68.4479 111.154 68.4177C110.951 68.3876 110.748 68.3523 110.546 68.3118C110.344 68.2721 110.143 68.2271 109.943 68.1771C109.744 68.127 109.545 68.0718 109.348 68.0121C109.151 67.9524 108.956 67.8883 108.762 67.819C108.568 67.7496 108.376 67.6752 108.186 67.5969C107.995 67.5179 107.807 67.4345 107.621 67.3466C107.435 67.2587 107.251 67.1662 107.07 67.0693C106.888 66.9724 106.709 66.871 106.532 66.7651C106.356 66.6592 106.182 66.5495 106.01 66.4346C105.84 66.3204 105.671 66.2023 105.506 66.0797C105.34 65.9571 105.178 65.8307 105.019 65.6997C104.86 65.5695 104.704 65.4353 104.552 65.2967C104.399 65.1587 104.25 65.0169 104.104 64.8712C103.959 64.7261 103.817 64.5766 103.678 64.4245C103.54 64.2718 103.405 64.1164 103.275 63.9573C103.144 63.7981 103.018 63.6357 102.895 63.4708C102.772 63.3052 102.654 63.1371 102.54 62.9663C102.425 62.795 102.315 62.6211 102.209 62.4446C102.103 62.2681 102.002 62.0896 101.905 61.908C101.808 61.7264 101.715 61.5428 101.627 61.3567C101.539 61.1706 101.456 60.9826 101.377 60.7926C101.298 60.6026 101.224 60.4107 101.155 60.2169C101.085 60.0231 101.02 59.828 100.961 59.6309C100.901 59.4339 100.846 59.2356 100.796 59.036C100.746 58.8364 100.701 58.6361 100.661 58.434C100.621 58.2325 100.585 58.0297 100.555 57.8262C100.525 57.6228 100.5 57.4187 100.479 57.2139C100.459 57.0092 100.444 56.8038 100.434 56.5984C100.424 56.3924 100.419 56.1871 100.419 55.981C100.419 55.7757 100.424 55.5697 100.434 55.3643C100.444 55.1589 100.459 54.9535 100.479 54.7488C100.5 54.5441 100.525 54.34 100.555 54.1365C100.585 53.9331 100.621 53.7303 100.661 53.5287C100.701 53.3266 100.746 53.1263 100.796 52.9267C100.846 52.7271 100.901 52.5288 100.961 52.3318C101.02 52.1348 101.085 51.9397 101.155 51.7458C101.224 51.552 101.298 51.3601 101.377 51.1701C101.456 50.9802 101.539 50.7921 101.627 50.606C101.715 50.4199 101.807 50.2363 101.905 50.0547C102.002 49.8731 102.103 49.694 102.209 49.5175C102.315 49.341 102.425 49.1677 102.539 48.9964C102.654 48.8257 102.772 48.6569 102.895 48.4919C103.018 48.3264 103.144 48.1646 103.274 48.0055C103.405 47.8463 103.539 47.6903 103.678 47.5382C103.816 47.3855 103.959 47.2366 104.104 47.0915C104.249 46.9459 104.398 46.804 104.551 46.666C104.704 46.5274 104.86 46.3933 105.019 46.2623C105.178 46.1321 105.34 46.0056 105.505 45.883C105.671 45.7605 105.839 45.6417 106.01 45.5275C106.182 45.4132 106.356 45.3035 106.532 45.1976C106.709 45.0917 106.888 44.9903 107.069 44.8934C107.251 44.7965 107.434 44.7041 107.621 44.6161C107.807 44.5282 107.995 44.4448 108.185 44.3658C108.375 44.2869 108.568 44.2131 108.762 44.1438C108.956 44.0745 109.151 44.0096 109.348 43.95C109.545 43.8903 109.743 43.8357 109.943 43.7857C110.143 43.7356 110.344 43.6907 110.545 43.6502C110.747 43.6104 110.95 43.5751 111.154 43.545C111.358 43.5148 111.562 43.4891 111.767 43.4692C111.972 43.4494 112.177 43.434 112.383 43.4237C112.588 43.4141 112.794 43.4089 113 43.4089C113.206 43.4089 113.412 43.4141 113.618 43.4237C113.823 43.434 114.028 43.4494 114.233 43.4692C114.438 43.4891 114.642 43.5148 114.846 43.545C115.05 43.5751 115.253 43.6098 115.454 43.6502C115.657 43.6907 115.857 43.7356 116.057 43.7857C116.257 43.8357 116.455 43.8903 116.652 43.95C116.849 44.0096 117.045 44.0745 117.239 44.1438C117.432 44.2131 117.624 44.2869 117.815 44.3658C118.005 44.4441 118.193 44.5276 118.379 44.6155C118.565 44.7034 118.749 44.7958 118.931 44.8934C119.113 44.9903 119.292 45.0917 119.468 45.197C119.645 45.3029 119.819 45.4132 119.99 45.5275C120.161 45.6417 120.329 45.7605 120.494 45.883C120.66 46.005 120.822 46.1321 120.981 46.2623C121.141 46.3926 121.297 46.5274 121.449 46.6654C121.601 46.8034 121.751 46.9452 121.896 47.0909Z" fill="white"/>
<path d="M113.003 69.1892C109.473 69.1892 106.153 67.8151 103.657 65.3204C101.16 62.8251 99.7856 59.5084 99.7856 55.9804C99.7856 52.4518 101.16 49.135 103.657 46.6404C106.153 44.1457 109.473 42.7716 113.003 42.7716C116.534 42.7716 119.853 44.1451 122.35 46.6404C124.846 49.135 126.222 52.4518 126.222 55.9804C126.222 59.5084 124.846 62.8258 122.35 65.3204C119.853 67.8151 116.534 69.1892 113.003 69.1892ZM113.003 44.0443C106.417 44.0443 101.059 49.3988 101.059 55.9804C101.059 62.562 106.417 67.9165 113.003 67.9165C119.59 67.9165 124.948 62.562 124.948 55.9804C124.948 49.3988 119.589 44.0443 113.003 44.0443Z" fill="#B18B8A"/>
<path d="M118.84 62.7244C118.677 62.7244 118.514 62.6628 118.39 62.5383L106.166 50.3223C105.917 50.074 105.917 49.6709 106.166 49.4225C106.414 49.1742 106.817 49.1742 107.066 49.4225L119.29 61.6385C119.539 61.8868 119.539 62.2899 119.29 62.5383C119.166 62.6628 119.003 62.7244 118.84 62.7244Z" fill="#B18B8A"/>
<path d="M106.616 62.7244C106.453 62.7244 106.29 62.6628 106.166 62.5383C105.917 62.2899 105.917 61.8868 106.166 61.6385L118.39 49.4225C118.639 49.1742 119.042 49.1742 119.29 49.4225C119.539 49.6709 119.539 50.074 119.29 50.3223L107.066 62.5383C106.942 62.6628 106.779 62.7244 106.616 62.7244Z" fill="#B18B8A"/>
<path d="M116.212 103.841H112.155C111.693 103.841 111.296 104.146 111.156 104.585C110.787 105.749 110.32 106.869 109.766 107.937C109.554 108.346 109.619 108.843 109.946 109.169L112.815 112.037C113.582 112.803 113.582 114.047 112.815 114.814L107.461 120.164C106.693 120.931 105.449 120.931 104.682 120.164L101.813 117.296C101.486 116.97 100.989 116.905 100.579 117.117C99.5109 117.67 98.3897 118.137 97.2254 118.506C96.7858 118.646 96.4803 119.043 96.4803 119.504V123.558C96.4803 124.643 95.6011 125.522 94.5158 125.522H86.9439C85.8586 125.522 84.9794 124.643 84.9794 123.558V119.504C84.9794 119.043 84.6739 118.646 84.2342 118.506C83.07 118.136 81.9488 117.67 80.8802 117.117C80.4707 116.905 79.9734 116.97 79.6467 117.296L76.7779 120.164C76.0103 120.931 74.7665 120.931 73.9989 120.164L68.645 114.814C67.8774 114.047 67.8774 112.803 68.645 112.037L71.5145 109.169C71.8405 108.843 71.906 108.346 71.6936 107.937C71.1397 106.869 70.6737 105.749 70.3034 104.585C70.1642 104.146 69.7662 103.841 69.3048 103.841H65.248C64.1627 103.841 63.2828 102.962 63.2828 101.877V94.311C63.2828 93.2263 64.1627 92.3471 65.248 92.3471H69.3048C69.7662 92.3471 70.1642 92.0422 70.3034 91.6032C70.6737 90.4397 71.1397 89.3197 71.6936 88.2518C71.906 87.8423 71.8405 87.3449 71.5145 87.0189L68.645 84.152C67.8774 83.385 67.8774 82.1419 68.645 81.3749L73.9989 76.0249C74.7665 75.258 76.0103 75.258 76.7779 76.0249L79.6473 78.8918C79.9734 79.2179 80.4707 79.2833 80.8802 79.0715C81.9488 78.5177 83.07 78.0517 84.2342 77.6821C84.6739 77.5428 84.9794 77.1449 84.9794 76.6841V72.6305C84.9794 71.5459 85.8586 70.6666 86.9439 70.6666H94.5158C95.6011 70.6666 96.4803 71.5459 96.4803 72.6305V76.6841C96.4803 77.1449 96.7858 77.5428 97.2254 77.6821C98.3897 78.0517 99.5109 78.5177 100.579 79.0715C100.989 79.2833 101.486 79.2179 101.812 78.8918L104.682 76.0249C105.449 75.258 106.693 75.258 107.461 76.0249L112.815 81.3749C113.582 82.1419 113.582 83.385 112.815 84.152L109.945 87.0189C109.619 87.3449 109.554 87.8423 109.766 88.2518C110.32 89.3197 110.787 90.4397 111.156 91.6032C111.296 92.0422 111.693 92.3471 112.155 92.3477H116.212C117.297 92.3477 118.177 93.2263 118.177 94.311V101.877C118.177 102.962 117.297 103.841 116.212 103.841Z" fill="white"/>
<path d="M94.5158 126.158H86.9439C85.5095 126.158 84.3427 124.992 84.3427 123.558V119.504C84.3427 119.327 84.2214 119.17 84.0417 119.112C82.855 118.736 81.6927 118.254 80.5875 117.682C80.4194 117.595 80.2224 117.621 80.0972 117.746L77.2277 120.614C76.2137 121.627 74.563 121.627 73.5483 120.614L68.1951 115.264C67.1804 114.25 67.1804 112.6 68.1945 111.587L71.0639 108.719C71.1891 108.594 71.2154 108.397 71.1281 108.23C70.555 107.125 70.0737 105.963 69.6969 104.778C69.6398 104.598 69.4819 104.477 69.3048 104.477H65.248C63.8136 104.477 62.6462 103.311 62.6462 101.877V94.311C62.6462 92.8772 63.8136 91.7111 65.248 91.7111H69.3048C69.4819 91.7111 69.6398 91.5904 69.6969 91.4107C70.0737 90.2247 70.555 89.0637 71.1281 87.9585C71.2154 87.791 71.1891 87.5939 71.0639 87.4688L68.1951 84.6019C67.1804 83.5879 67.1804 81.9384 68.1945 80.9251L73.5483 75.575C74.563 74.561 76.2137 74.561 77.2277 75.575L80.0972 78.4419C80.223 78.5671 80.42 78.5934 80.5875 78.5061C81.6927 77.9336 82.855 77.4523 84.0417 77.0756C84.2214 77.0184 84.3427 76.8612 84.3427 76.6841V72.6298C84.3427 71.1967 85.5095 70.0299 86.9439 70.0299H94.5158C95.9502 70.0299 97.1176 71.1961 97.1176 72.6298V76.6841C97.1176 76.8612 97.2383 77.0184 97.418 77.0756C98.6047 77.4523 99.7669 77.9336 100.872 78.5061C101.04 78.5928 101.237 78.5671 101.362 78.4419L104.232 75.575C105.246 74.561 106.897 74.561 107.911 75.575L113.265 80.9251C114.279 81.9384 114.279 83.5879 113.265 84.6019L110.396 87.4688C110.271 87.5939 110.244 87.791 110.332 87.9585C110.905 89.0637 111.386 90.2247 111.763 91.4107C111.82 91.5904 111.978 91.7111 112.155 91.7111H116.212C117.646 91.7111 118.813 92.8772 118.813 94.311V101.877C118.813 103.311 117.646 104.477 116.212 104.477H112.155C111.978 104.477 111.82 104.598 111.763 104.778C111.386 105.963 110.905 107.125 110.332 108.23C110.244 108.397 110.271 108.594 110.396 108.719L113.265 111.587C114.279 112.6 114.279 114.25 113.265 115.264L107.911 120.614C106.897 121.627 105.246 121.627 104.232 120.614L101.362 117.746C101.237 117.621 101.04 117.595 100.872 117.682C99.7669 118.254 98.6047 118.736 97.418 119.112C97.2383 119.17 97.117 119.327 97.117 119.504V123.558C97.1176 124.992 95.9502 126.158 94.5158 126.158ZM80.3802 116.357C80.6485 116.357 80.9206 116.421 81.1735 116.552C82.2145 117.091 83.3094 117.545 84.4268 117.9C85.1379 118.125 85.616 118.77 85.616 119.504V123.558C85.616 124.29 86.2116 124.885 86.9439 124.885H94.5158C95.2481 124.885 95.8437 124.29 95.8437 123.558V119.504C95.8437 118.77 96.3218 118.125 97.0329 117.9C98.1503 117.545 99.2452 117.091 100.286 116.552C100.949 116.209 101.743 116.327 102.263 116.846L105.132 119.714C105.65 120.231 106.493 120.231 107.011 119.714L112.364 114.364C112.882 113.846 112.882 113.004 112.364 112.487L109.495 109.619C108.975 109.1 108.857 108.306 109.201 107.644C109.74 106.603 110.194 105.51 110.549 104.393C110.775 103.682 111.42 103.205 112.155 103.205H116.212C116.944 103.205 117.54 102.609 117.54 101.877V94.311C117.54 93.5793 116.944 92.9837 116.212 92.9837H112.155C111.42 92.9837 110.775 92.5062 110.549 91.7958C110.194 90.6791 109.74 89.5848 109.201 88.5444C108.857 87.8821 108.975 87.0889 109.495 86.569L112.364 83.7021C112.882 83.1848 112.882 82.3421 112.364 81.8248L107.011 76.4748C106.493 75.9569 105.65 75.9576 105.132 76.4748L102.263 79.3417C101.743 79.861 100.949 79.9797 100.286 79.6363C99.2452 79.0966 98.1503 78.6435 97.0329 78.2886C96.3218 78.0633 95.8437 77.4183 95.8437 76.6841V72.6305C95.8437 71.8982 95.2481 71.3026 94.5158 71.3026H86.9439C86.2116 71.3026 85.616 71.8982 85.616 72.6305V76.6841C85.616 77.4183 85.1379 78.0633 84.4268 78.2886C83.3094 78.6435 82.2145 79.0966 81.1735 79.6363C80.5105 79.979 79.7166 79.861 79.1968 79.3417L76.3279 76.4748C76.077 76.2239 75.7433 76.0859 75.3884 76.0859C75.0334 76.0859 74.6997 76.2239 74.4488 76.4748L69.0956 81.8248C68.5776 82.3421 68.5776 83.1848 69.0956 83.7021L71.9644 86.569C72.4842 87.0889 72.6023 87.8821 72.259 88.5444C71.7192 89.5848 71.2655 90.6791 70.9106 91.7958C70.6846 92.5062 70.0396 92.9837 69.3048 92.9837H65.248C64.5157 92.9837 63.9195 93.5793 63.9195 94.311V101.877C63.9195 102.609 64.5157 103.205 65.248 103.205H69.3048C70.0396 103.205 70.6846 103.682 70.9106 104.393C71.2655 105.51 71.7192 106.603 72.259 107.644C72.6023 108.306 72.4842 109.1 71.9644 109.619L69.0956 112.487C68.5776 113.004 68.5776 113.846 69.0956 114.364L74.4488 119.714C74.6997 119.964 75.0334 120.103 75.3884 120.103C75.7433 120.103 76.077 119.964 76.3279 119.714L79.1968 116.846C79.5183 116.525 79.9445 116.357 80.3802 116.357Z" fill="#B18B8A"/>
<path d="M105.86 98.0944C105.86 98.3414 105.854 98.5892 105.842 98.8363C105.83 99.0834 105.811 99.3305 105.787 99.5763C105.763 99.8227 105.732 100.069 105.696 100.313C105.66 100.558 105.618 100.801 105.569 101.044C105.521 101.287 105.467 101.529 105.406 101.769C105.347 102.009 105.281 102.247 105.209 102.484C105.137 102.72 105.059 102.955 104.976 103.188C104.892 103.421 104.803 103.652 104.708 103.881C104.614 104.11 104.513 104.336 104.407 104.56C104.301 104.783 104.19 105.005 104.073 105.223C103.957 105.441 103.835 105.656 103.708 105.868C103.58 106.08 103.448 106.289 103.31 106.495C103.172 106.701 103.03 106.904 102.882 107.102C102.735 107.301 102.583 107.496 102.425 107.687C102.268 107.879 102.106 108.066 101.94 108.249C101.774 108.432 101.603 108.612 101.428 108.787C101.253 108.962 101.074 109.133 100.89 109.299C100.707 109.465 100.519 109.626 100.328 109.783C100.136 109.941 99.9409 110.093 99.7419 110.24C99.5436 110.387 99.3408 110.53 99.1348 110.667C98.9288 110.805 98.7202 110.937 98.5077 111.064C98.2953 111.191 98.0797 111.313 97.8615 111.43C97.6426 111.547 97.4218 111.658 97.1978 111.764C96.9739 111.87 96.7479 111.97 96.5188 112.065C96.2903 112.159 96.0593 112.249 95.8257 112.332C95.5927 112.415 95.3578 112.493 95.121 112.565C94.8835 112.637 94.6448 112.702 94.4048 112.763C94.1647 112.823 93.9228 112.877 93.6802 112.925C93.4376 112.974 93.1937 113.016 92.9485 113.052C92.7034 113.089 92.4575 113.119 92.2111 113.143C91.9646 113.167 91.7182 113.186 91.4705 113.198C91.2234 113.21 90.9756 113.216 90.7279 113.216C90.4802 113.216 90.2331 113.21 89.9854 113.198C89.7383 113.186 89.4912 113.167 89.2447 113.143C88.9983 113.119 88.7525 113.089 88.5079 113.052C88.2628 113.016 88.0189 112.974 87.7757 112.925C87.5331 112.877 87.2917 112.823 87.0511 112.763C86.811 112.702 86.5723 112.636 86.3355 112.565C86.0986 112.493 85.8631 112.415 85.6301 112.332C85.3972 112.249 85.1661 112.159 84.937 112.065C84.7085 111.97 84.482 111.87 84.258 111.764C84.0346 111.658 83.8132 111.547 83.595 111.43C83.3761 111.313 83.1611 111.191 82.9487 111.064C82.7363 110.937 82.5271 110.805 82.321 110.667C82.115 110.53 81.9129 110.387 81.7139 110.24C81.5149 110.093 81.3198 109.941 81.1286 109.783C80.9367 109.626 80.7493 109.465 80.5657 109.299C80.3822 109.133 80.2031 108.962 80.0279 108.787C79.8527 108.612 79.682 108.432 79.5157 108.249C79.3495 108.066 79.1878 107.879 79.0306 107.687C78.874 107.496 78.7212 107.301 78.5736 107.102C78.4266 106.904 78.2835 106.701 78.1462 106.495C78.0088 106.289 77.876 106.08 77.7489 105.868C77.6218 105.656 77.4992 105.441 77.3831 105.223C77.2663 105.005 77.1546 104.783 77.0487 104.56C76.9428 104.336 76.8427 104.11 76.7477 103.881C76.6533 103.652 76.5641 103.421 76.4807 103.188C76.3973 102.955 76.3196 102.72 76.2477 102.484C76.1758 102.247 76.1097 102.009 76.0494 101.769C75.9891 101.529 75.9352 101.287 75.887 101.044C75.8383 100.801 75.7959 100.558 75.76 100.313C75.7234 100.069 75.6932 99.8227 75.6688 99.5763C75.6444 99.3305 75.6265 99.0834 75.6143 98.8363C75.6021 98.5892 75.5963 98.3414 75.5963 98.0944C75.5963 97.8466 75.6021 97.5995 75.6143 97.3524C75.6265 97.1053 75.6444 96.8583 75.6688 96.6118C75.6932 96.366 75.7234 96.1202 75.76 95.8757C75.7959 95.6305 75.8383 95.3866 75.887 95.144C75.9352 94.9014 75.9891 94.6601 76.0494 94.4201C76.1097 94.18 76.1758 93.9413 76.2477 93.7045C76.3196 93.4677 76.3973 93.2328 76.4807 92.9998C76.5641 92.7668 76.6533 92.5364 76.7477 92.3073C76.8427 92.0788 76.9428 91.8529 77.0487 91.6289C77.1546 91.4056 77.2663 91.1841 77.3831 90.9659C77.4992 90.7477 77.6218 90.5327 77.7489 90.3203C77.876 90.1079 78.0088 89.8993 78.1462 89.6933C78.2835 89.4872 78.4266 89.2851 78.5736 89.0861C78.7212 88.8878 78.874 88.6927 79.0306 88.5014C79.1878 88.3102 79.3495 88.1228 79.5157 87.9392C79.682 87.7557 79.8527 87.5766 80.0279 87.4021C80.2031 87.2268 80.3828 87.0561 80.5657 86.8899C80.7493 86.7237 80.9367 86.5619 81.1286 86.4053C81.3198 86.2481 81.5149 86.096 81.7139 85.9484C81.9129 85.8014 82.115 85.6589 82.321 85.5209C82.5271 85.3836 82.7363 85.2514 82.9487 85.1243C83.1611 84.9966 83.3761 84.8747 83.595 84.7585C83.8132 84.6417 84.0346 84.5307 84.258 84.4248C84.482 84.3189 84.7085 84.2187 84.937 84.1238C85.1661 84.0294 85.3972 83.9402 85.6301 83.8568C85.8631 83.7733 86.0986 83.6957 86.3355 83.6238C86.5723 83.5519 86.811 83.4858 87.0511 83.4261C87.2917 83.3658 87.5331 83.3119 87.7757 83.2631C88.0189 83.215 88.2628 83.1726 88.5079 83.1367C88.7525 83.1001 88.9983 83.0699 89.2447 83.0455C89.4912 83.0212 89.7383 83.0032 89.9854 82.991C90.2331 82.9788 90.4802 82.973 90.7279 82.973C90.9756 82.973 91.2234 82.9788 91.4705 82.991C91.7182 83.0032 91.9646 83.0212 92.2111 83.0455C92.4575 83.0699 92.7034 83.1001 92.9485 83.1367C93.193 83.1726 93.4376 83.215 93.6802 83.2631C93.9228 83.3119 94.1647 83.3658 94.4048 83.4261C94.6448 83.4858 94.8835 83.5519 95.121 83.6238C95.3578 83.6957 95.5927 83.7733 95.8257 83.8568C96.0593 83.9402 96.2903 84.0294 96.5188 84.1238C96.7479 84.2187 96.9739 84.3189 97.1978 84.4248C97.4218 84.5307 97.6426 84.6417 97.8615 84.7585C98.0797 84.8747 98.2953 84.9966 98.5077 85.1243C98.7202 85.2514 98.9288 85.3836 99.1348 85.5209C99.3408 85.6589 99.5436 85.8014 99.7419 85.9484C99.9409 86.096 100.136 86.2481 100.328 86.4053C100.519 86.5619 100.707 86.7237 100.89 86.8899C101.074 87.0561 101.253 87.2268 101.428 87.4021C101.603 87.5766 101.774 87.7557 101.94 87.9392C102.106 88.1228 102.268 88.3102 102.425 88.5014C102.583 88.6927 102.735 88.8878 102.882 89.0861C103.03 89.2851 103.172 89.4872 103.31 89.6933C103.448 89.8993 103.58 90.1079 103.707 90.3203C103.835 90.5327 103.957 90.7477 104.073 90.9659C104.19 91.1841 104.301 91.4056 104.407 91.6289C104.513 91.8529 104.614 92.0788 104.708 92.3073C104.803 92.5364 104.892 92.7668 104.976 92.9998C105.059 93.2328 105.137 93.4677 105.209 93.7045C105.281 93.9413 105.347 94.18 105.406 94.4201C105.467 94.6601 105.521 94.9014 105.569 95.144C105.618 95.3866 105.66 95.6305 105.696 95.8757C105.732 96.1202 105.763 96.366 105.787 96.6118C105.811 96.8583 105.83 97.1053 105.842 97.3524C105.854 97.5995 105.86 97.8466 105.86 98.0944Z" fill="white"/>
<path d="M90.7298 113.852C86.5177 113.852 82.5579 112.213 79.5793 109.237C76.6014 106.261 74.9609 102.303 74.9609 98.0943C74.9609 93.8848 76.6014 89.9281 79.5793 86.9515C82.5579 83.9755 86.5177 82.3363 90.7298 82.3363C94.9419 82.3363 98.9018 83.9755 101.88 86.9515C104.858 89.9281 106.499 93.8848 106.499 98.0943C106.499 102.303 104.858 106.261 101.88 109.237C98.9018 112.213 94.9419 113.852 90.7298 113.852ZM90.7298 83.609C82.7369 83.609 76.2343 90.1072 76.2343 98.0943C76.2343 106.081 82.7369 112.58 90.7298 112.58C98.7227 112.58 105.225 106.081 105.225 98.0943C105.225 90.1072 98.7227 83.609 90.7298 83.609Z" fill="#B18B8A"/>
<path d="M104.906 87.3982C103.632 86.1249 101.567 86.1249 100.292 87.3982L90.1176 97.5662L86.3387 93.7898C85.0641 92.5159 82.9988 92.5159 81.7242 93.7898C80.4502 95.0625 80.4502 97.1265 81.7242 98.4005L87.5337 104.206C88.2416 104.913 89.1927 105.213 90.1176 105.134C91.0424 105.213 91.9935 104.913 92.7014 104.206L104.906 92.0095C106.18 90.7362 106.18 88.6722 104.906 87.3982Z" fill="white"/>
<path d="M89.8294 105.782C88.7955 105.782 87.8103 105.381 87.0838 104.655L81.2736 98.8504C79.7532 97.3306 79.7532 94.8584 81.2736 93.3399C82.794 91.8208 85.2682 91.8208 86.7886 93.3399L90.1176 96.6664L99.842 86.9483C101.362 85.4292 103.837 85.4292 105.357 86.9483C105.357 86.9483 105.357 86.9483 105.357 86.9489C106.876 88.4681 106.876 90.9403 105.357 92.4594L93.1513 104.655C92.3574 105.449 91.2548 105.854 90.1176 105.772C90.0213 105.779 89.925 105.782 89.8294 105.782ZM84.0314 93.4721C83.3588 93.4721 82.6862 93.7282 82.1741 94.2397C81.1504 95.2621 81.1504 96.9269 82.1741 97.9506L87.9842 103.756C88.524 104.295 89.2819 104.567 90.063 104.5C90.0996 104.497 90.1355 104.497 90.1721 104.5C90.9532 104.567 91.7111 104.295 92.2515 103.756L104.457 91.5596C105.48 90.5366 105.48 88.8718 104.457 87.8481C103.432 86.8251 101.766 86.8251 100.742 87.8481L90.5681 98.0161C90.3191 98.2644 89.916 98.2644 89.6677 98.0161L85.8881 94.2397C85.376 93.7282 84.7034 93.4721 84.0314 93.4721Z" fill="#B18B8A"/>
</g>
<defs>
<clipPath id="clip0_145_1125">
<rect width="127" height="129" fill="white"/>
</clipPath>
</defs>
</svg>
